<svg width="52" height="52" viewBox="0 0 256 256" fill="none" xmlns="http://www.w3.org/2000/svg">
	<path d="M37.5534 121.62C66.5534 164.62 93.5534 152.62 101.053 148.62C108.553 144.621 142.053 114.62 108.553 71.1205C75.0534 27.6205 58.5534 45.6205 58.5534 45.6205L40.5534 60.6205C40.5534 60.6205 8.55339 78.6205 37.5534 121.62Z" stroke="black" stroke-width="6"/>
	<path d="M54.0534 73.6206C42.5534 82.1206 28.0534 83.6205 12.5534 88.6206C-2.81237 93.5773 -0.847703 41.5138 27.3094 21.6342C27.5554 21.4605 27.8034 21.2893 28.0534 21.1206C55.4426 7.99688 87.0534 28.1206 86.5534 34.1206C86.0534 40.1206 65.5533 65.1205 54.0534 73.6206Z" fill="black"/>
	<path d="M31.5533 28.6205C23.7087 14.8683 18.2367 9.13161 6.55334 2.62054M12.5534 88.6206C28.0534 83.6205 42.5534 82.1206 54.0534 73.6206C65.5533 65.1205 86.0534 40.1206 86.5534 34.1206C87.0534 28.1206 55.4426 7.99688 28.0534 21.1206C-0.81205 40.5997 -2.94662 93.6206 12.5534 88.6206Z" stroke="black" stroke-width="6"/>
</svg>
