<svg width="52" height="52" viewBox="0 0 356 356" fill="none" xmlns="http://www.w3.org/2000/svg">
	<path d="M77.4475 0C80.0423 0 82.2444 0.921765 83.966 2.54492C85.6179 4.10245 86.6954 6.17555 87.4152 8.33496C88.8432 12.6192 89.1319 18.0769 88.9767 23.1982C88.8556 27.1948 88.4545 31.171 88.0119 34.5391C90.6505 32.0721 93.8731 29.2344 97.2648 26.6592C101.442 23.4876 106.148 20.4992 110.473 19.2539C112.656 18.6256 115.004 18.3625 117.233 18.9814C119.575 19.6322 121.463 21.1691 122.734 23.499C125.212 28.0422 124.319 32.8101 122.241 36.9004C120.181 40.9574 116.764 44.7816 113.31 48C110.551 50.5702 107.658 52.8517 105.18 54.6689C107.989 55.0826 111.283 55.618 114.585 56.2666C118.895 57.1131 123.355 58.1786 126.79 59.4668C128.489 60.104 130.117 60.8601 131.374 61.7803C132.525 62.6226 134.068 64.1272 134.068 66.3701C134.067 68.2216 133.077 69.7183 132.149 70.752C131.173 71.8382 129.889 72.8346 128.529 73.7305C125.797 75.5314 122.256 77.2507 118.852 78.7207C116.551 79.7141 114.256 80.616 112.226 81.377C115.017 82.7809 118.362 84.5999 121.588 86.707C125.417 89.2078 129.307 92.2552 131.85 95.6455C134.41 99.0587 135.999 103.431 133.751 107.927C132.681 110.066 131.062 111.574 129.07 112.459C127.141 113.316 125.022 113.521 122.97 113.387C118.917 113.121 114.431 111.481 110.445 109.604C107.128 108.044 103.969 106.226 101.404 104.636C101.857 107.09 102.325 109.97 102.668 112.943C103.135 116.986 103.39 121.346 103.016 125.087C102.829 126.958 102.473 128.798 101.836 130.412C101.202 132.019 100.204 133.61 98.6096 134.673C96.7904 135.885 94.7864 135.936 93.0051 135.304C91.3672 134.722 89.918 133.58 88.6935 132.355C86.225 129.887 83.8543 126.243 81.843 122.685C80.5379 120.376 79.3341 118.012 78.3019 115.869C77.6414 118.27 76.8268 120.979 75.8596 123.728C74.3793 127.934 72.4997 132.369 70.2082 135.961C68.0685 139.315 65.1864 142.547 61.4064 143.546L61.0373 143.636C58.7743 144.139 56.7007 143.609 55.0119 142.336C53.4416 141.152 52.3304 139.428 51.5139 137.664C49.8808 134.137 48.963 129.409 48.4211 124.92C47.9976 121.411 47.7856 117.873 47.6838 114.858C46.534 116.099 45.2355 117.416 43.8234 118.703C41.117 121.171 37.8888 123.638 34.4182 125.245C30.9483 126.851 26.9616 127.719 22.965 126.52C20.935 125.91 19.2735 124.839 18.1223 123.276C16.9848 121.733 16.5268 119.956 16.4504 118.238C16.3032 114.927 17.55 111.3 18.9709 108.222C19.8752 106.262 20.9264 104.367 21.9406 102.689C21.2837 102.769 20.5998 102.834 19.8957 102.877C14.4645 103.206 7.22553 102.264 2.07147 96.374C0.548193 94.6331 -0.219564 92.5866 0.0548727 90.3896C0.312762 88.3265 1.43649 86.5866 2.71698 85.2021C5.24688 82.4671 9.3167 80.1336 13.257 78.2793C15.9483 77.0128 18.7485 75.8954 21.2746 74.9688C20.1695 74.5367 19.0153 74.0516 17.8439 73.5088C11.5009 70.5693 3.64265 65.5044 1.43476 57.4102C0.821236 55.1606 0.931945 52.9536 2.0539 51.043C3.13469 49.2028 4.89161 48.0891 6.65253 47.4062C10.0874 46.0744 14.7145 45.9294 18.9631 46.1611C21.9508 46.3241 24.9743 46.6912 27.6486 47.0986C26.6226 45.862 25.5373 44.4896 24.4523 43.0068C19.8092 36.6612 14.7339 27.7712 14.7336 18.8428C14.7336 16.4684 15.3442 14.0014 17.4396 12.5498C19.4444 11.1616 21.84 11.399 23.6584 11.8906C27.3598 12.8915 31.8833 15.8256 35.9885 18.9121C40.209 22.0853 44.4003 25.7437 47.5178 28.5879C48.2521 29.2578 48.9292 29.885 49.5353 30.4521C49.6906 30.0959 49.8567 29.7214 50.0314 29.3311C51.4325 26.202 53.4665 22.0065 55.9826 17.792C58.4848 13.6008 61.5399 9.26167 65.0148 5.93555C68.445 2.65244 72.6613 0.00015784 77.4475 0ZM67.5891 49.3086C54.8013 49.3086 44.4348 59.6751 44.4348 72.4629C44.435 85.2504 54.8014 95.6172 67.5891 95.6172C80.3765 95.617 90.7431 85.2504 90.7433 72.4629C90.7433 59.6752 80.3767 49.3087 67.5891 49.3086Z" fill="black"/>
</svg>
