<svg width="52" height="52" viewBox="0 0 356 356" fill="none" xmlns="http://www.w3.org/2000/svg">
	<path d="M46.1093 159.381C59.6165 159.613 84.4229 149.618 84.4229 149.618C89.3501 147.722 92.3322 147.803 97.9202 149.35C113.184 158.393 130.722 164.202 141.001 152.995C151.281 141.789 125.999 100.909 101.158 85.7731C94.3213 81.6071 77.6134 83.7403 72.174 86.8489C72.174 86.8489 59.256 91.1062 45.1759 112.39C31.0958 133.674 32.6021 159.149 46.1093 159.381Z" fill="black"/>
	<path d="M133.46 100.635C123.872 96.3241 118.076 81.4363 128.236 64.2311C138.396 47.026 147.885 46.3374 155.443 49.1879C163.001 52.0384 169.278 65.9165 163.596 82.0325C157.915 98.1485 143.047 104.945 133.46 100.635Z" fill="black"/>
	<path d="M11.236 55.4466C1.82723 60.1344 -3.3738 75.2406 7.4617 92.0288C18.2972 108.817 27.8053 109.128 35.2442 105.98C42.6832 102.831 48.404 88.7151 42.0874 72.8374C35.7709 56.9597 20.6448 50.7588 11.236 55.4466Z" fill="black"/>
	<path d="M48.6948 11.8866C38.1963 15.8431 31.035 31.3181 40.7183 50.3188C50.4016 69.3196 60.4632 70.6817 68.7032 68.146C76.9433 65.6102 84.549 51.2426 79.565 33.6989C74.581 16.1551 59.1934 7.93009 48.6948 11.8866Z" fill="black"/>
	<path d="M119.302 10.4842C129.95 14.0207 137.72 29.1992 128.798 48.5694C119.877 67.9397 109.878 69.7002 101.544 67.4937C93.2093 65.2872 85.039 51.2329 89.3225 33.5051C93.606 15.7773 108.655 6.94771 119.302 10.4842Z" fill="black"/>
</svg>
