<svg width="52" height="52" viewBox="0 0 356 356" fill="none" xmlns="http://www.w3.org/2000/svg">
	<path d="M46.0566 0.638417C48.4659 -0.710757 51.513 0.148276 52.8623 2.55736L57.4507 10.751C58.3894 12.4273 60.8865 12.4367 62.1178 10.9618C63.0841 9.80424 64.6401 9.85554 65.7936 10.8269L66 11.0007C67.2675 12.0681 67.4295 13.9604 66.3682 15.2328C65.3522 16.4509 64.2376 17.7959 63.2217 19.0378C62.816 19.5338 62.7573 20.2281 63.0704 20.7871L67.4526 28.6125C68.7482 30.9261 71.8954 31.3616 73.7707 29.4868L75.7577 27.5003C76.9293 26.329 78.8284 26.3291 79.9998 27.5005C81.1713 28.6721 81.1713 30.5715 79.9997 31.743L75.2214 36.5208C73.9548 37.7872 73.6845 39.7412 74.5597 41.3039L84.6693 59.3558C85.5594 60.945 87.411 61.6821 89.2276 61.5476C89.6476 61.5165 90.072 61.5007 90.5 61.5007C91.0509 61.5007 91.5956 61.5269 92.133 61.5781C93.9489 61.7511 95.8187 61.0518 96.7418 59.4785L107.674 40.844C108.608 39.2518 108.331 37.2271 107.004 35.9441L100.072 29.2429C98.8806 28.0914 98.8484 26.1923 99.9998 25.001C101.151 23.8095 103.051 23.7772 104.242 24.929L108.733 29.2705C110.596 31.0711 113.652 30.6533 114.963 28.4189L117.994 23.2536C118.899 21.7104 118.67 19.7536 117.432 18.4618L112.91 13.7429C111.763 12.5466 111.804 10.6475 113 9.50089C114.196 8.35418 116.096 8.39447 117.242 9.59087L119.02 11.4458C120.856 13.3617 124.015 12.9911 125.358 10.7022L130.188 2.47045C131.585 0.0888086 134.649 -0.709059 137.03 0.688222C139.412 2.08563 140.21 5.1493 138.812 7.531L133.98 15.7674C132.79 17.7948 133.944 20.3912 136.245 20.8675L136.67 20.9555C138.293 21.2911 139.336 22.8781 139 24.5002C138.665 26.1228 137.077 27.166 135.455 26.8302L131.161 25.9415C129.482 25.594 127.768 26.3554 126.9 27.8345L123.657 33.362C122.312 35.6549 123.536 38.5977 126.111 39.2599L130.342 40.3482C131.946 40.7609 132.913 42.3961 132.5 44.0005C132.087 45.6052 130.452 46.5714 128.848 46.1587L120.735 44.0722C119.006 43.6275 117.192 44.3824 116.289 45.9222L104.984 65.1928C104.13 66.6483 104.323 68.4615 105.176 69.9173C105.55 70.5541 105.883 71.2173 106.172 71.9035C106.907 73.6482 108.495 75.0007 110.388 75.0007H128.528C130.077 75.0007 131.488 74.1059 132.147 72.7039L136.508 63.4378C137.213 61.9387 139 61.2952 140.5 62.0006C141.999 62.7061 142.643 64.4937 141.937 65.993L140.382 69.2973C139.133 71.9503 141.069 75.0007 144.001 75.0007H151.708C153.263 75.0007 154.676 74.1006 155.333 72.6923L158.013 66.9506C158.713 65.4492 160.498 64.8001 162 65.5006C163.501 66.2013 164.151 67.9866 163.45 69.4881L163.224 69.972C162.13 72.3151 163.841 75.0007 166.426 75.0007H170C172.761 75.0007 175 77.2393 175 80.0007C175 82.762 172.761 85.0007 170 85.0007H166.242C163.652 85.0007 161.967 87.7263 163.126 90.0428L163.342 90.4753C164.083 91.9574 163.482 93.7597 162 94.5007C160.518 95.2418 158.716 94.641 157.975 93.1589L155.001 87.2119C154.324 85.8567 152.938 85.0007 151.423 85.0007H144.535C141.648 85.0007 139.712 87.9655 140.872 90.6088L143.041 95.5476C143.707 97.0647 143.017 98.8346 141.5 99.5007C139.983 100.167 138.213 99.4769 137.547 97.9597L132.908 87.3927C132.269 85.9393 130.832 85.0007 129.245 85.0007H108.885C107.267 85.0007 105.845 86.0004 104.999 87.3792C104.824 87.6644 104.64 87.944 104.449 88.2178C103.405 89.7138 103.097 91.6862 104.016 93.2625L113.8 110.051C114.572 111.376 116.034 112.143 117.563 112.025L127.779 111.24C129.431 111.112 130.873 112.348 131 114C131.127 115.652 129.891 117.095 128.239 117.222L124.781 117.487C121.839 117.714 120.146 120.94 121.632 123.49L126.308 131.515C127.025 132.744 128.341 133.501 129.764 133.501H134C135.657 133.501 137 134.844 137 136.501V137.298C137 138.514 136.014 139.501 134.797 139.501C133.097 139.501 132.037 141.344 132.893 142.813L138.82 152.983C140.21 155.369 139.403 158.431 137.018 159.821C134.632 161.211 131.57 160.404 130.18 158.018L124.543 148.346C123.187 146.02 119.919 145.779 118.237 147.881L117.717 148.532C116.682 149.826 114.794 150.036 113.5 149.001C112.206 147.966 111.996 146.078 113.031 144.784L116.776 140.102C117.809 138.811 117.941 137.018 117.109 135.589L113.035 128.6C111.559 126.068 107.95 125.931 106.286 128.344L105.673 129.234C104.732 130.598 102.864 130.941 101.5 130.001C100.136 129.06 99.7927 127.192 100.733 125.828L105.083 119.52C105.963 118.244 106.026 116.575 105.246 115.235L94.9961 97.647C94.1475 96.1908 92.4756 95.4696 90.7905 95.4983C90.6939 95.4999 90.597 95.5007 90.5 95.5007C90.2833 95.5007 90.0675 95.4966 89.8528 95.4885C88.171 95.4252 86.4864 96.1095 85.6067 97.5442L74.4451 115.748C73.5988 117.128 73.668 118.882 74.6202 120.191L80.1615 127.81C81.1359 129.15 80.8398 131.026 79.5002 132.001C78.1604 132.975 76.2841 132.679 75.3096 131.339L73.1719 128.401C71.4958 126.096 68.0163 126.234 66.527 128.663L62.665 134.962C61.7943 136.383 61.895 138.194 62.9178 139.509L67.0262 144.791C68.0435 146.099 67.8079 147.984 66.4999 149.001C65.1921 150.018 63.3072 149.782 62.29 148.474L61.4147 147.349C59.699 145.143 56.3077 145.332 54.8471 147.714L52.7627 151.114C51.3193 153.468 48.2408 154.206 45.8867 152.763C43.5327 151.32 42.7942 148.242 44.2373 145.887L46.5234 142.158C47.6755 140.278 46.4217 137.847 44.2224 137.695C42.605 137.584 41.3842 136.183 41.4955 134.565L41.5 134.501C41.6138 132.848 43.0462 131.6 44.6993 131.714L50.1749 132.091C51.6611 132.193 53.081 131.461 53.8597 130.191L57.7241 123.89C59.3083 121.306 57.5561 117.968 54.53 117.804L51.8342 117.659C50.1794 117.569 48.9105 116.155 49 114.5C49.0895 112.846 50.5034 111.577 52.158 111.666L62.4198 112.221C63.8862 112.3 65.2781 111.569 66.0456 110.317L76.6748 92.9818C77.6298 91.4242 77.3637 89.4422 76.3494 87.9225C76.2301 87.7438 76.1141 87.5626 76.0014 87.3792C75.155 86.0004 73.7332 85.0007 72.1153 85.0007H51.3415C49.7504 85.0007 48.3106 85.9438 47.6748 87.4023L43.949 95.9494C43.2868 97.4684 41.5185 98.1629 39.9996 97.5005C38.481 96.8383 37.7866 95.0705 38.4486 93.5517L39.7356 90.599C40.8873 87.9568 38.9511 85.0007 36.0688 85.0007H27.6885C26.0622 85.0007 24.5978 85.9853 23.9842 87.4914L22.4103 91.3544C21.7851 92.8887 20.026 93.6224 18.4915 92.9973C16.9665 92.376 16.2253 90.6326 16.8466 89.1075C17.6455 87.1463 16.2027 85.0007 14.0851 85.0007H5C2.23866 85.0007 0.000139414 82.762 0 80.0007C0 77.2393 2.23858 75.0007 5 75.0007H13.4304C16.1617 75.0007 18.0482 72.2675 17.0796 69.7137L16.7592 68.8691C16.1717 67.32 16.9512 65.588 18.5003 65.0006C20.0492 64.4133 21.7809 65.1927 22.3683 66.7415L24.5219 72.4193C25.1112 73.9731 26.6 75.0007 28.2619 75.0007H36.1945C39.2965 75.0007 41.218 71.6227 39.6326 68.9564L36.4548 63.612C35.6082 62.1881 36.076 60.3476 37.4998 59.5008C38.9237 58.654 40.7645 59.1219 41.6113 60.5459L49.0432 73.045C49.7642 74.2576 51.0706 75.0007 52.4813 75.0007H70.6118C72.5051 75.0007 74.0928 73.6483 74.8278 71.9034C75.1645 71.1042 75.5606 70.3361 76.0104 69.6046C76.8956 68.1654 77.1268 66.3538 76.3012 64.8796L65.901 46.3085C65.0423 44.7751 63.2833 43.9818 61.5656 44.3533L52.5668 46.2991C50.947 46.6494 49.35 45.6201 48.9999 44.0003C48.6499 42.3808 49.6788 40.7841 51.2982 40.4338L56.1021 39.3946C58.7308 38.8259 60.0605 35.8772 58.7464 33.5306L55.229 27.2495C54.4414 25.8429 52.8863 25.0467 51.2846 25.2298L43.3213 26.1404C41.6752 26.3286 40.1882 25.1468 40 23.5007C39.8118 21.8546 40.9935 20.3676 42.6396 20.1794L44.7771 19.9349C47.616 19.6102 49.2087 16.4995 47.8126 14.0064L44.1377 7.44408C42.7885 5.03488 43.6476 1.98779 46.0566 0.638417Z" fill="white"/>
</svg>
