<svg width="122" height="122" viewBox="0 0 256 256" fill="none" xmlns="http://www.w3.org/2000/svg">
	<path d="M83.9594 1.13428L83.9603 1.13525L83.9613 1.13721C83.9624 1.13862 83.9642 1.14048 83.9662 1.14307C83.9705 1.14852 83.9765 1.1569 83.9847 1.16748C84.0013 1.18862 84.0263 1.21938 84.058 1.26025C84.1215 1.34211 84.2138 1.46334 84.3324 1.61865C84.5695 1.92925 84.9098 2.37874 85.3207 2.93799C86.1422 4.05626 87.2503 5.61353 88.3949 7.3667C89.5388 9.1188 90.723 11.0733 91.6957 12.9858C92.6649 14.8916 93.4393 16.7861 93.7406 18.4126C94.328 21.5844 94.3253 25.8985 94.181 29.3892C94.1087 31.1406 94 32.6961 93.9095 33.814C93.8747 34.2453 93.8403 34.6115 93.8138 34.8989C94.1859 34.8007 94.6954 34.6662 95.307 34.4985C96.6435 34.1321 98.4682 33.6144 100.421 33.0112C102.375 32.4078 104.453 31.7199 106.297 31.0122C108.151 30.3008 109.736 29.5822 110.724 28.9233C111.692 28.2781 112.89 27.0058 114.161 25.4106C115.424 23.8275 116.726 21.9684 117.904 20.188C119.08 18.4087 120.128 16.714 120.882 15.4644C121.259 14.8397 121.563 14.327 121.772 13.9702C121.876 13.792 121.957 13.6526 122.011 13.5581C122.038 13.5109 122.06 13.4748 122.074 13.4507L122.093 13.4165L122.094 13.4146L122.717 12.3237L123.014 13.5444V13.5454C123.014 13.546 123.015 13.5473 123.015 13.5483C123.016 13.5504 123.016 13.5534 123.017 13.5571C123.019 13.5651 123.022 13.5768 123.026 13.5923C123.033 13.6235 123.044 13.6706 123.058 13.731C123.086 13.8517 123.128 14.029 123.18 14.2563C123.284 14.7114 123.43 15.3677 123.598 16.1724C123.934 17.7814 124.361 19.9885 124.723 22.3774C125.085 24.7648 125.383 27.3434 125.459 29.6938C125.535 32.0292 125.396 34.1992 124.843 35.7339C123.77 38.7136 121.292 41.8871 119.124 44.2856C118.034 45.4923 117.009 46.516 116.257 47.2388C116.046 47.4417 115.854 47.618 115.69 47.771C115.986 47.8516 116.352 47.952 116.778 48.062C118 48.3774 119.713 48.7935 121.677 49.1948C125.616 49.9998 130.52 50.7379 134.488 50.5112C138.4 50.2877 142.523 48.3788 145.702 46.4888C147.284 45.5481 148.617 44.6207 149.554 43.9292C150.023 43.5836 150.392 43.2975 150.643 43.0981C150.769 42.9985 150.865 42.9203 150.929 42.8677C150.961 42.8415 150.985 42.8213 151.001 42.8081C151.009 42.8016 151.015 42.7966 151.019 42.7935C151.021 42.7921 151.022 42.7912 151.023 42.7905L151.024 42.7896L152.04 41.9341L151.84 43.2476V43.2505C151.84 43.252 151.84 43.2539 151.839 43.2563C151.838 43.2621 151.837 43.271 151.835 43.2817C151.832 43.3032 151.827 43.3347 151.82 43.3755C151.806 43.4573 151.785 43.5772 151.756 43.731C151.699 44.0387 151.612 44.4834 151.488 45.0356C151.24 46.1401 150.847 47.6774 150.264 49.4116C149.102 52.8698 147.17 57.1582 144.098 60.3481C141.031 63.5336 136.518 65.9284 132.812 67.521C130.952 68.3201 129.281 68.9235 128.076 69.3267C127.595 69.4874 127.187 69.6151 126.87 69.7124C126.993 69.85 127.137 70.0097 127.302 70.189C127.911 70.8513 128.802 71.7791 129.93 72.8354C132.188 74.9505 135.382 77.5717 139.136 79.6196C142.844 81.6423 148.174 82.5589 152.63 82.9614C154.848 83.1617 156.831 83.2329 158.259 83.2544C158.973 83.2651 159.547 83.2637 159.943 83.2593C160.14 83.257 160.294 83.2538 160.397 83.2515C160.448 83.2503 160.487 83.2493 160.513 83.2485C160.526 83.2482 160.536 83.2477 160.542 83.2476H160.551L161.503 83.2163L160.989 84.0181L160.568 83.7476L160.988 84.0181V84.019L160.987 84.02C160.986 84.0215 160.984 84.0242 160.983 84.0269C160.979 84.0321 160.974 84.0397 160.968 84.0493C160.955 84.0688 160.936 84.0966 160.911 84.1333C160.862 84.207 160.79 84.3151 160.696 84.4517C160.507 84.7247 160.229 85.115 159.871 85.5874C159.156 86.5322 158.121 87.8092 156.835 89.1382C154.279 91.7813 150.676 94.6956 146.606 95.5337C142.588 96.3608 137.379 95.826 133.22 95.104C131.132 94.7414 129.29 94.3289 127.971 94.0063C127.449 93.8788 127.01 93.763 126.667 93.6724C126.763 94.063 126.893 94.5817 127.057 95.1997C127.44 96.6438 128.006 98.6288 128.737 100.792C130.206 105.143 132.312 110.122 134.884 112.918C137.485 115.746 141.181 118.252 144.251 120.059C145.782 120.96 147.148 121.683 148.131 122.18C148.623 122.429 149.018 122.62 149.29 122.75C149.426 122.814 149.531 122.863 149.602 122.896C149.637 122.912 149.664 122.925 149.682 122.933C149.691 122.937 149.697 122.94 149.702 122.942C149.704 122.943 149.705 122.944 149.706 122.945H149.707L150.925 123.496L149.645 123.879L149.643 123.88C149.641 123.881 149.639 123.881 149.636 123.882C149.63 123.884 149.622 123.887 149.611 123.89C149.588 123.897 149.555 123.907 149.511 123.919C149.424 123.945 149.295 123.982 149.129 124.029C148.798 124.123 148.316 124.257 147.717 124.417C146.519 124.735 144.847 125.156 142.95 125.561C139.169 126.369 134.442 127.132 130.795 126.897C128.879 126.773 126.888 125.838 125.01 124.564C123.124 123.284 121.304 121.63 119.72 120.003C118.135 118.375 116.777 116.762 115.816 115.557C115.437 115.083 115.12 114.67 114.874 114.345C114.807 114.574 114.73 114.843 114.646 115.148C114.339 116.261 113.938 117.862 113.567 119.806C112.823 123.698 112.196 128.953 112.652 134.425C113.106 139.881 114.755 144.315 116.289 147.384C117.057 148.918 117.795 150.11 118.339 150.916C118.611 151.318 118.834 151.625 118.989 151.829C119.066 151.931 119.126 152.007 119.166 152.057C119.186 152.082 119.201 152.101 119.21 152.113C119.215 152.119 119.219 152.123 119.221 152.125L119.224 152.128L120.122 153.208L118.745 152.94L118.839 152.449L118.744 152.94L118.742 152.939C118.74 152.939 118.739 152.938 118.737 152.938C118.732 152.937 118.725 152.936 118.716 152.934C118.699 152.931 118.674 152.925 118.642 152.918C118.577 152.905 118.481 152.884 118.358 152.856C118.111 152.8 117.751 152.714 117.296 152.593C116.387 152.352 115.097 151.974 113.569 151.42C110.514 150.315 106.491 148.509 102.638 145.707C98.7108 142.85 96.2474 138.007 94.7679 133.946C94.0247 131.906 93.5222 130.041 93.2054 128.687C93.0996 128.235 93.0162 127.838 92.9496 127.511C92.7594 127.734 92.5324 127.998 92.2767 128.301C91.4435 129.289 90.2947 130.676 89.0306 132.27C86.4971 135.466 83.5216 139.473 81.6986 142.777C79.9157 146.008 79.3399 150.688 79.225 154.625C79.1679 156.581 79.2248 158.331 79.2963 159.592C79.332 160.223 79.3715 160.731 79.4017 161.08C79.4168 161.254 79.4298 161.389 79.4388 161.48C79.4433 161.525 79.4472 161.56 79.4496 161.583C79.4508 161.594 79.4509 161.602 79.4515 161.608C79.4518 161.611 79.4524 161.613 79.4525 161.614V161.616L79.5922 162.866L78.6322 162.052L78.9554 161.67C78.6605 162.018 78.6346 162.049 78.6322 162.051H78.6312L78.6254 162.045C78.6211 162.042 78.6146 162.037 78.6068 162.03C78.5912 162.016 78.5686 161.997 78.5394 161.971C78.4806 161.919 78.3949 161.843 78.2855 161.743C78.0667 161.542 77.7521 161.246 77.3666 160.861C76.5956 160.09 75.5378 158.959 74.3861 157.516C72.0849 154.632 69.3952 150.484 67.8724 145.447C66.3507 140.413 66.3488 136.134 66.7308 133.107C66.9218 131.594 67.2089 130.393 67.4496 129.568C67.4813 129.459 67.5146 129.358 67.5443 129.262C67.0471 129.425 66.377 129.644 65.5824 129.906C63.8108 130.489 61.4196 131.281 58.9427 132.117C56.4657 132.952 53.9043 133.83 51.7904 134.584C49.6622 135.345 48.0233 135.968 47.3646 136.297C47.1083 136.426 46.7751 136.711 46.3783 137.168C45.989 137.618 45.5684 138.197 45.1322 138.868C44.2602 140.208 43.3473 141.875 42.515 143.511C41.6837 145.145 40.9372 146.738 40.3988 147.922C40.1297 148.514 39.9127 149.004 39.7631 149.345C39.6883 149.516 39.6304 149.65 39.5912 149.741C39.5718 149.786 39.5572 149.82 39.5472 149.843C39.5423 149.855 39.538 149.864 39.5355 149.87C39.5343 149.873 39.5332 149.875 39.5326 149.876V149.877L39.141 150.796L38.64 149.933H38.639V149.932L38.6381 149.931C38.6374 149.93 38.6363 149.928 38.6351 149.926C38.6328 149.922 38.6296 149.916 38.6254 149.909C38.6167 149.893 38.6041 149.871 38.5883 149.842C38.5565 149.785 38.5107 149.701 38.4535 149.592C38.3388 149.375 38.1778 149.057 37.9886 148.651C37.6104 147.839 37.1196 146.674 36.6654 145.252C35.7585 142.415 34.9898 138.531 35.5804 134.396C36.1719 130.256 38.5808 125.457 40.8041 121.732C41.921 119.861 43.0011 118.244 43.8021 117.095C44.1347 116.618 44.4196 116.222 44.639 115.92C44.2825 115.861 43.8183 115.784 43.2689 115.696C41.9275 115.48 40.0788 115.192 38.0511 114.905C33.9833 114.328 29.233 113.756 26.392 113.756C25.0342 113.756 23.3526 114.154 21.5668 114.774C19.789 115.391 17.9437 116.217 16.2689 117.047C14.5951 117.877 13.0987 118.707 12.0209 119.331C11.4824 119.642 11.0489 119.901 10.7504 120.083C10.6011 120.173 10.4855 120.244 10.4076 120.292C10.3689 120.316 10.3394 120.335 10.3197 120.347C10.3099 120.353 10.3021 120.358 10.2972 120.361C10.295 120.362 10.2935 120.364 10.2924 120.365L10.2904 120.366L9.23669 121.03L9.53845 119.821L9.53943 119.819C9.53986 119.817 9.54056 119.814 9.54138 119.811C9.543 119.805 9.54508 119.795 9.54822 119.783C9.55459 119.758 9.56409 119.72 9.57654 119.671C9.60143 119.575 9.63867 119.433 9.68689 119.251C9.78349 118.888 9.92592 118.364 10.1088 117.723C10.4743 116.442 11.0025 114.689 11.6547 112.805C12.3065 110.922 13.0841 108.9 13.9486 107.083C14.809 105.276 15.7728 103.634 16.807 102.539C17.8486 101.436 19.5128 100.396 21.3734 99.4604C23.245 98.5192 25.3613 97.661 27.3451 96.937C29.3302 96.2125 31.191 95.619 32.5551 95.2065C33.0857 95.0461 33.5416 94.9129 33.9008 94.8101C33.5548 94.5061 33.0909 94.0988 32.5345 93.6167C31.2686 92.5198 29.5282 91.0316 27.6302 89.4644C23.8139 86.313 19.4215 82.8961 16.9467 81.6587C14.5076 80.4392 10.5633 79.8654 7.1615 79.606C5.47376 79.4772 3.94193 79.4276 2.8324 79.4097C2.27804 79.4007 1.82929 79.3995 1.5199 79.4009C1.36529 79.4016 1.2453 79.4028 1.16443 79.4038C1.12406 79.4043 1.09304 79.4054 1.07263 79.4058H1.04333L0.000366211 79.4272L0.636108 78.6011L0.637085 78.6001L0.638062 78.5981C0.639095 78.5968 0.64118 78.5955 0.642944 78.5933C0.646749 78.5884 0.652405 78.5809 0.659546 78.5718C0.673822 78.5536 0.694755 78.5269 0.722046 78.4927C0.776878 78.424 0.857627 78.324 0.963257 78.1968C1.17464 77.9422 1.48547 77.578 1.88708 77.1362C2.69022 76.2528 3.8582 75.0555 5.31775 73.8003C8.22864 71.297 12.341 68.5269 17.0726 67.5806C21.764 66.6423 26.2685 66.9947 29.5912 67.5776C31.2543 67.8694 32.6262 68.2206 33.5844 68.4985C33.6385 68.5142 33.6911 68.5312 33.7426 68.5464C33.6924 68.4658 33.6396 68.3816 33.5853 68.2935C33.015 67.3671 32.2239 66.0247 31.3392 64.3569C29.5709 61.0233 27.4225 56.3792 25.9115 51.1489C24.4658 46.1449 20.9689 43.4726 17.8002 42.0425C16.2146 41.3269 14.718 40.9261 13.6176 40.7046C13.068 40.594 12.6188 40.5285 12.309 40.4907C12.1541 40.4718 12.0336 40.4598 11.9535 40.4526C11.9139 40.4491 11.8841 40.4463 11.8646 40.4448C11.855 40.4441 11.8475 40.4441 11.8431 40.4438H11.8383L11.7347 39.4624L11.8685 39.9448L11.7357 39.4624L11.7377 39.4614C11.7394 39.4609 11.7422 39.4604 11.7455 39.4595C11.7523 39.4576 11.7627 39.4552 11.7758 39.4517C11.8019 39.4446 11.8405 39.4339 11.891 39.4204C11.992 39.3935 12.1405 39.3542 12.3314 39.3052C12.7137 39.2071 13.2677 39.0691 13.9525 38.9097C15.3217 38.5909 17.2203 38.1854 19.3373 37.8374C23.5436 37.1459 28.7121 36.6641 32.2845 37.6167C35.8736 38.5738 39.6986 41.5936 42.5844 44.3062C44.0376 45.6722 45.2718 46.9794 46.1429 47.9448C46.4242 48.2566 46.6675 48.5337 46.8685 48.7651C46.9455 48.4104 47.0423 47.9695 47.1488 47.4575C47.4434 46.0422 47.8311 44.0883 48.2045 41.9341C48.9547 37.6058 49.6341 32.5337 49.4086 29.3755C49.2984 27.8337 48.771 25.9555 48.0209 23.9839C47.2734 22.0191 46.3173 19.9911 45.3715 18.1567C44.4261 16.3232 43.4936 14.6889 42.7982 13.5132C42.4508 12.9259 42.1624 12.4537 41.9613 12.1284C41.8608 11.9657 41.7823 11.8393 41.7289 11.7544C41.7023 11.7122 41.682 11.6802 41.6683 11.6587C41.6615 11.6479 41.6561 11.6396 41.6527 11.6343C41.651 11.6317 41.6496 11.6297 41.6488 11.6284L41.6478 11.6274L41.0746 10.731L42.1302 10.8608H42.1332C42.135 10.8611 42.1377 10.8624 42.141 10.8628C42.1479 10.8637 42.1583 10.864 42.1713 10.8657C42.1975 10.8692 42.2364 10.8744 42.2865 10.8813C42.3867 10.8952 42.5333 10.9165 42.7211 10.9458C43.0966 11.0043 43.6375 11.0959 44.3021 11.2271C45.6307 11.4891 47.4587 11.911 49.4554 12.5522C53.4259 13.8275 58.1617 15.9984 60.9095 19.5825C63.596 23.0866 65.5746 27.0481 66.8802 30.1235C67.5339 31.6632 68.0204 32.986 68.3441 33.9243C68.4386 34.1983 68.5195 34.4395 68.5863 34.644C68.8687 34.3693 69.2449 33.9999 69.6888 33.5513C70.7138 32.5156 72.104 31.0609 73.5648 29.3853C76.5047 26.013 79.6675 21.8159 80.7855 18.3501C81.9208 14.8307 82.4936 10.6102 82.7806 7.25146C82.9239 5.57582 82.9948 4.12183 83.0306 3.0874C83.0485 2.57029 83.0574 2.15767 83.0619 1.87549C83.0641 1.73464 83.0652 1.6262 83.0658 1.55322C83.0661 1.5167 83.0667 1.48856 83.0668 1.47021V0.000488281L83.9594 1.13428ZM81.5004 40.0005C58.5805 40.0005 40.0004 58.3568 40.0004 81.0005C40.0006 103.644 58.5807 122 81.5004 122C104.42 122 123 103.644 123 81.0005C123 58.3569 104.42 40.0007 81.5004 40.0005Z" fill="black"/>
	<path d="M70.5 85.5C70.5 85.5 73.1799 96.2222 79.1799 93.7222C85.1799 91.2222 82.3599 82.4445 83.1799 82.2222C84 82 87.1799 88.7222 94.1799 86.7222C101.18 84.7222 96.6799 75.7222 96.6799 75.7222" stroke="black" stroke-width="3" stroke-linecap="round"/>
	<path d="M61.68 78.722C55.68 78.722 67.68 73.722 67.68 73.722C67.68 73.722 75.2301 70.2902 75.2612 71.9561L80.5006 69.7222C80.4191 68.4559 88.1799 65.2222 88.1799 65.2222C88.1799 65.2222 99.1799 60.2222 94.6799 65.2222C90.18 70.2222 91.6799 69.2223 90.1799 70.2222C88.68 71.2221 88.1799 70.2222 82.1799 70.2222C81.0051 70.2222 80.5204 70.0305 80.5006 69.7222L75.2612 71.9561C75.2677 72.301 74.9518 72.8644 74.18 73.722C69.6801 78.722 71.1799 77.7221 69.68 78.722C68.1801 79.7219 67.68 78.722 61.68 78.722Z" fill="black"/>
	<path d="M75.2612 71.9561L80.5006 69.7222M61.68 78.722C55.68 78.722 67.68 73.722 67.68 73.722C67.68 73.722 78.6799 68.722 74.18 73.722C69.6801 78.722 71.1799 77.7221 69.68 78.722C68.1801 79.7219 67.68 78.722 61.68 78.722ZM82.1799 70.2222C76.1799 70.2222 88.1799 65.2222 88.1799 65.2222C88.1799 65.2222 99.1799 60.2222 94.6799 65.2222C90.18 70.2222 91.6799 69.2223 90.1799 70.2222C88.68 71.2221 88.1799 70.2222 82.1799 70.2222Z" stroke="black"/>
</svg>
