<svg width="115" height="171" viewBox="0 0 115 171" fill="none" xmlns="http://www.w3.org/2000/svg">
<path d="M61.5726 158.77C61.5726 158.77 46.5937 158.946 46.7908 164.729C46.9879 170.513 52.1123 169.987 55.0686 169.987C58.025 169.987 57.8891 168.94 56.8424 167.183M99.0197 72.7157C99.8481 70.1227 102.486 67.2238 106.115 65.3546M106.115 65.3546C113.6 68.6096 113.407 73.7673 110.845 74.8188C108.283 75.8704 107.507 75.5057 106.312 73.592M106.115 65.3546L109.268 61.3235M111.239 32.0543C111.239 32.0543 111.831 29.2501 111.042 27.3222C110.254 25.3943 105.523 14.7032 100.596 12.6C95.669 10.4968 89.3621 10.4968 87.5883 11.7237C85.8145 12.9505 78.9063 13.857 83.4494 22.2395C87.9925 30.6221 97.6165 21.0343 94.9913 18.7343C92.3662 16.4342 92.2139 17.108 91.7272 17.5074M107.889 5.93995C108.25 8.50409 112.028 9.62051 113.21 8.04312C114.393 6.46573 114.787 0.506742 110.451 1.03255C106.115 1.55835 101.976 6.99152 101.582 8.04312C101.188 9.09471 100.491 12.4163 102.764 17.5074C104.196 20.714 108.471 23.6767 110.451 27.6727C115.575 38.0133 93.3041 71.1383 99.808 82.3552C106.312 93.5721 107.297 94.0979 104.932 101.634C102.567 109.171 93.304 115.831 90.939 119.862C88.5739 123.893 88.3768 135.11 93.8953 138.44C99.4139 141.77 111.831 147.904 110.451 152.11C109.071 156.317 105.918 155.44 105.918 155.44M105.918 155.44C105.918 155.44 105.721 169.987 93.8953 169.987C82.0699 169.987 64.9231 159.822 54.4773 155.44C44.0315 151.059 42.0606 149.306 30.0381 151.059C18.0156 152.811 15.6506 156.667 12.3 159.647C8.94949 162.626 14.2709 168.059 18.0156 168.41C21.7603 168.761 19.7894 163.678 22.1545 161.399C24.5196 159.121 24.5196 166.132 24.5196 166.132M105.918 155.44L100.794 148.78M102.173 86.3863L90.7419 74.293C82.9999 65.7389 79.902 56.9419 83.4496 51.3334C86.9972 45.725 87.9827 45.3744 95.4721 46.426C99.0706 46.9313 102.962 49.5808 100.991 54.6634C99.0197 59.7461 96.4575 59.045 93.107 58.344M105.13 91.8195C105.535 89.7615 105.965 88.8952 107.1 87.2626M99.2168 110.573C99.2168 110.573 103.947 98.4795 99.808 94.9742L99.7258 94.9046C95.6558 91.4574 94.6417 90.5985 88.3768 91.4689C82.0699 92.3453 79.9019 99.8816 80.8874 101.634C81.8729 103.387 82.6612 104.088 87.1943 103.913C91.7274 103.737 88.771 97.2527 88.771 97.2527M97.443 140.368C97.443 140.368 95.0779 130.728 97.8372 128.274C100.596 125.821 106.509 123.192 107.298 120.037C108.086 116.882 107.889 114.604 105.524 114.078C103.159 113.552 100.991 114.954 100.399 117.233C99.8081 119.511 100.794 120.037 102.567 120.037C104.341 120.037 104.932 117.233 104.932 117.233M74.5805 164.729C66.2372 153.111 60.0537 149.652 46.5937 151.935M44.2287 151.409C30.2848 157.357 11.5117 157.018 6.38735 154.038C1.26301 151.059 0.474646 148.605 1.26301 147.203C2.05137 145.801 4.12499 145.404 6.38735 148.255" stroke="black" stroke-width="2" stroke-linecap="round"/>
</svg>
