<svg width="159" height="159" viewBox="0 0 159 159" fill="none" xmlns="http://www.w3.org/2000/svg">
<path d="M20.3164 116.728C9.9308 95.2017 50.4968 81.5765 50.4968 81.5765C50.4968 81.5765 4.68207 66.052 18.8995 46.5107C33.1169 26.9693 63.9609 55.7556 63.9609 55.7556C63.9609 55.7556 51.1523 8.72168 75.8558 10.217C100.559 11.7123 91.7164 54.8145 91.7164 54.8145C91.7164 54.8145 123.655 21.0444 136.892 41.1141C150.128 61.1838 106.41 77.7352 106.41 77.7352C106.41 77.7352 154.196 91.1121 139.778 111.633C125.359 132.154 94.2266 102.288 94.2266 102.288C94.2266 102.288 107.952 142.364 84.8813 147.839C61.8102 153.314 65.6799 104.598 65.6799 104.598C65.6799 104.598 30.702 138.255 20.3164 116.728Z" fill="#00AAFF" stroke="#005078"/>
<circle cx="79.0436" cy="79.2665" r="13" transform="rotate(11.594 79.0436 79.2665)" fill="#FFE07F"/>
</svg>
