<svg width="289" height="349" viewBox="0 0 289 349" fill="none" xmlns="http://www.w3.org/2000/svg">
<path d="M0.5 232C20.9614 211.659 33.7843 204.665 57.7302 199L186.964 229.46C186.964 229.46 245.094 264.413 248.587 265.412C252.079 266.411 257.568 261.667 260.063 262.666C262.558 263.664 261.809 275.399 262.558 278.395C263.306 281.391 268.546 277.146 266.55 282.889C264.554 288.631 257.069 340.812 257.069 340.812L249 348.5H0.5V232Z" fill="var(--primary)" stroke="var(--primary)"/>
<path d="M92 255.525C99.2838 244.83 103.469 215.237 100.642 212C124.008 223.793 137.681 229.649 163.171 233.148L168 272L92 255.525Z" fill="white" stroke="var(--primary)"/>
<path d="M215.23 190.428C203.464 211.807 193.12 221.242 173.588 234C149.86 231.455 141.558 228.044 124.922 222.859C83.9334 205.757 73.2633 190.843 54.933 163.938C54.933 163.938 25.8337 101.304 54.933 84.9645C84.0323 68.625 206.199 82.4888 206.199 82.4888C214.363 124.905 220.048 148.75 215.23 190.428Z" fill="white" stroke="var(--primary)"/>
<path d="M163.574 233.849L195.39 237.613L249 268.724L234.721 276L60.6124 245.642L21.7825 236.108L6 233.599L12.2629 227.828L65.3722 206L102.448 217.29" stroke="var(--primary)"/>
<path d="M124.35 132C140.767 133.355 149.429 134.604 146.404 153.512C144.902 163.601 136.771 172.057 124.35 173.788C111.928 175.519 102.192 166.347 99 156.727C103.648 141.948 108.697 136.046 124.35 132Z" fill="white" stroke="var(--primary)"/>
<path d="M115.108 174.156C123.372 175.459 129.227 174.741 135.315 170.664" stroke="var(--primary)" stroke-width="3"/>
<path d="M136.847 149.528C138.611 166.153 124.503 166.908 124.503 166.908C124.503 166.908 110.395 168.923 109.135 154.062C107.876 139.201 115.686 135.422 120.724 134.415C125.763 133.407 135.084 132.904 136.847 149.528Z" fill="var(--primary)" stroke="var(--primary)"/>
<path d="M121.912 143.011C122.189 145.27 121.912 147.382 119.599 147.929C117.286 148.475 116.403 145.776 116.258 143.557C115.57 139.909 116.258 137 118.314 137C120.37 137 121.952 139.777 121.912 143.011Z" fill="var(--primary)" stroke="var(--primary)"/>
<path d="M168 199.943L175.2 205L177 200.835L179.314 202.025C181.688 199.48 183.144 198.793 186 199.05" stroke="var(--primary)"/>
<path d="M107.173 1C107.173 1 41.9205 9.73944 34.9469 30.2147C27.9733 50.69 -2.25449 111.878 15.5205 169.546C15.5205 169.546 29.7167 189.273 29.9658 191.27C30.2148 193.268 26.728 197.762 26.728 197.762L31.7092 195.016L41.1733 200.01C41.1733 200.01 35.9431 192.019 37.6865 189.273C39.4299 186.526 42.6677 193.887 45.4073 195.016C48.1469 196.144 49.8903 196.431 52.1318 196.514L47.3997 191.27C47.8499 186.425 48.4459 184.819 50.1394 184.029L58.3582 196.514C58.3848 201.732 58.4257 205.378 58.3582 208C58.3582 208 61.3469 205.004 61.3469 200.01C61.3469 195.016 65.83 205.253 65.83 205.253C65.83 205.253 53.3771 160.557 61.3469 171.544C69.3167 182.531 85.5055 195.765 89.7394 197.762C93.9734 199.76 98.9545 200.01 98.9545 200.01C98.9545 200.01 91.2338 185.277 85.5055 176.538C79.7771 167.799 105.679 197.762 105.679 197.762C104.102 192.519 102.441 184.279 100.449 180.283C98.4564 176.288 108.917 185.694 113.4 189.273C113.4 189.273 103.936 174.54 103.438 172.793C102.939 171.045 118.132 189.273 118.132 189.273C118.132 189.273 101.694 167.799 103.438 161.057C105.181 154.315 134.819 113.364 137.807 107.372C140.796 101.379 118.132 158.31 118.132 158.31C118.132 158.31 132.577 137.585 134.819 134.589C137.06 131.592 146.773 98.3824 147.521 103.876C148.268 109.369 158.479 167.799 158.479 167.799C158.479 167.799 160.472 161.806 160.472 158.31C160.472 154.814 163.46 166.051 163.46 166.051V158.31C163.46 158.31 166.2 146.324 166.2 150.569C166.2 154.814 167.694 167.799 167.694 167.799C167.694 167.799 169.171 163.281 171.296 156.562C176.924 138.759 187.097 105.5 186.374 99.8806C185.377 92.1399 218.253 180.283 218.253 180.283V154.814C216.819 133.6 222.123 161.545 225.475 171.544C225.475 171.544 231.453 153.566 232.698 145.076C233.943 136.586 243.657 161.057 243.657 161.057C243.657 161.057 246.396 141.58 247.392 134.589C248.389 127.597 249.136 158.31 249.136 158.31C249.136 158.31 262.087 114.862 261.34 124.85C260.592 134.838 270.555 153.566 270.555 153.566C270.555 153.566 269.807 108.37 267.815 102.378C265.823 96.3848 285 126.349 285 126.349C285 126.349 256.359 45.4463 230.208 27.7177C204.057 9.98914 107.173 1 107.173 1Z" fill="var(--primary)" stroke="var(--primary)"/>
<path d="M172.514 187.969C172.925 187.902 180.536 181.855 180.948 178.923C181.36 175.99 173.621 167.629 172.983 168.635" stroke="var(--primary)"/>
<path d="M248.246 116.926C244.247 116.167 232.499 105.033 232.499 105.033L229 85.7999C231.491 76.8578 238.498 66.5673 239.748 66.3143C240.998 66.0612 239.748 67.8326 240.498 68.0857C241.248 68.3388 254.495 61 256.495 61C258.494 61 259.744 62.0122 259.744 62.0122C259.744 62.0122 259.244 64.7959 259.744 65.5551C260.244 66.3143 264.993 65.8081 265.743 67.3265C266.493 68.8449 268.992 81.2448 268.992 81.2448C268.992 81.2448 267.493 82.7632 268.242 84.2816C268.992 85.7999 269.992 86.5591 269.992 86.5591L271.742 89.8489C271.742 89.8489 273.741 95.1632 273.991 97.6938C274.241 100.224 268.992 101.743 268.242 103.261C267.493 104.779 265.743 111.46 265.743 111.865C265.743 112.27 261.494 116.926 259.744 117.686C257.994 118.445 252.246 117.686 248.246 116.926Z" fill="white" stroke="var(--primary)"/>
<path d="M258.83 65C258.83 65 256.257 66.5 256.023 67.25C255.789 68 257.427 70.5 257.193 71C256.959 71.5 256.023 74.25 256.023 75C256.023 75.75 257.193 74.75 257.661 75C258.128 75.25 257.193 81.25 257.193 81.25C257.193 81.25 260 89.25 260 90.25C260 91.25 260 103 260 103" stroke="var(--primary)"/>
<path d="M233.735 90.8046C240.385 82.2977 244.606 78.3373 255.286 76.4556M233.245 84.3988C236.88 77.0753 239.689 73.5883 245.49 68M235.204 107.203C235.795 108.603 250.129 109.681 257 108.485M233 101.31C235.968 102.491 237.781 102.216 241.082 101.31M233.49 95.4168C236.296 92.0326 237.936 90.5874 241.082 89.5235" stroke="var(--primary)"/>
<path d="M261 86.6897C262.88 86.0916 263.693 85.7163 264.84 85M267 102.139C265.103 103.029 264.04 103.519 262.44 102.139" stroke="var(--primary)"/>
<path d="M220.258 121.146C231.905 104.621 234.833 94.4038 235 74.8462C234.507 70.1049 232.66 69.4126 227.254 70.8201L225.755 69.3104H223.007C223.007 69.3104 223.007 64.5294 219.009 63.7745C215.012 63.0196 207.766 70.0652 207.766 70.0652C207.766 70.0652 207.766 62.013 204.518 61.5098C201.269 61.0065 201.519 61.5098 199.52 61.5098C197.522 61.5098 190.526 60 190.526 60L184.029 66.0391C184.029 66.0391 176.534 68.3038 174.285 70.8201C172.036 73.3365 171.786 84.6599 171.786 84.6599C171.786 84.6599 167.789 84.6599 166.04 86.4213C164.291 88.1827 167.789 94.2218 167.789 94.2218C167.789 94.2218 163.541 101.771 164.041 104.79C164.541 107.81 169.038 110.578 168.788 112.843C168.538 115.107 167.789 115.359 167.789 115.359L173.036 118.63C173.036 118.63 185.528 133.225 198.271 130.708C211.014 128.192 220.258 121.146 220.258 121.146Z" fill="white" stroke="var(--primary)"/>
<path d="M219.923 105.352L201.773 127.244L199 127.982L202.781 157.254L240.341 170.537C241.719 171.162 242.492 171.146 243.87 170.537C243.87 170.537 244.626 168.077 245.382 165.864C246.139 163.65 247.903 162.912 247.903 162.912L248.66 161.436L250.676 159.222C250.676 159.222 250.928 158.976 252.441 157.254C253.953 155.532 251.684 154.302 252.441 152.089C253.197 149.875 256.474 148.399 257.734 146.185C258.995 143.971 260.003 138.068 260.003 138.068L262.776 131.918C262.776 131.918 263.28 128.72 262.776 125.277C262.272 121.833 250.676 119.619 250.676 119.619C250.676 119.619 252.441 116.667 252.441 115.437C252.441 114.207 248.66 111.206 248.66 111.01C248.66 110.764 249.416 109.288 248.66 107.32C247.903 105.352 244.794 103.056 242.862 101.416L240.341 98.9564C240.341 98.9564 236.812 96.2506 233.787 96.0047C230.762 95.7587 219.923 105.352 219.923 105.352Z" fill="white" stroke="var(--primary)"/>
<path d="M204.665 154.053C202.586 160.63 196.219 169.475 194.728 169.724C193.238 169.972 181.314 171.216 179.326 170.967C177.339 170.719 178.351 168.421 176.842 166.987L173.861 165.744C173.861 165.744 170.135 162.759 169.638 162.51C169.141 162.261 170.135 160.023 169.638 159.525C169.141 159.028 163.924 161.266 163.924 161.266L162.434 159.525C162.434 159.525 153.491 149.327 153.242 148.332C152.994 147.337 154.733 145.596 154.733 145.596C154.733 145.596 152 140.372 152 139.377C152 138.382 153.987 135.646 153.987 135.646L155.726 129.925L157.962 120.97C157.962 120.97 155.229 116.493 155.726 115.498C156.223 114.503 159.453 113.259 159.453 113.259C159.453 113.259 161.192 107.538 163.924 107.041C166.657 106.543 182.059 110.772 182.059 110.772C182.883 112.602 183.446 113.46 185.04 114.005C189.957 116.172 192.689 117.474 197.213 120.97L201.436 128.184V137.387C205.199 143.888 205.389 147.538 204.665 154.053Z" fill="white" stroke="var(--primary)"/>
<path d="M184.148 139C182.457 137.856 181.08 138 181.591 134.5C182.102 131 184.899 130.72 187.983 131.5C191.412 132.367 193.583 137.097 191.307 139.75C189.442 141.924 186.534 140.615 184.148 139Z" fill="var(--primary)"/>
<path d="M178.267 132C178.062 132 160.625 132.5 158.068 132C155.511 131.5 155 128.25 155 128.25M181.335 139C177.491 144.047 174.441 146.052 167.784 148.5M182.614 143.75C179.752 149.252 176.91 152.439 170.341 158.25M190.284 148C195.093 153.499 196.762 156.797 197.955 163M194.886 139C194.886 139 196.932 141 196.932 142.25C196.932 143.5 195.909 144.75 196.42 145.75C196.932 146.75 200 154.75 200 154.75M191.562 132C192.254 124.655 191.246 121.549 186.705 118M183.636 126.5C184.281 125.094 172.837 119.259 165.739 118M181.591 130.5L172.898 127.25M181.591 134.5C181.08 138 182.457 137.856 184.148 139C186.534 140.615 189.442 141.924 191.307 139.75C193.583 137.097 191.412 132.367 187.983 131.5C184.899 130.72 182.102 131 181.591 134.5Z" stroke="var(--primary)"/>
<path d="M218.185 139.488C218.318 137.011 216.307 133.407 214.208 134.628C213.132 135.254 213.236 136.343 212.613 137.442C213.236 139.939 211.735 143.424 214.208 143.837C215.681 144.084 216.884 143.129 217.57 141.784C217.926 141.086 218.142 140.284 218.185 139.488Z" fill="var(--primary)"/>
<path d="M217.191 133.093C228.368 122.178 235.72 119.788 250 119.535M217.688 134.884C229.73 127.328 236.636 125.583 249.254 127.209M211.971 133.605C217.546 124.192 221.205 120.016 230.364 118M217.191 141.535C228.525 148.992 235.044 152.448 247.763 153.814M236.081 153.047C241.258 156.231 243.639 158.18 246.769 162M213.462 147.419C214.443 146.193 222.126 150.025 225.145 153.814M207 141.535C207 141.535 209.237 137.953 210.231 133.605C211.225 129.256 209.734 121.837 209.734 121.837M212.468 137.698L212.613 137.442M212.613 137.442C213.236 136.343 213.132 135.254 214.208 134.628C216.307 133.407 218.318 137.011 218.185 139.488C218.06 141.817 216.445 144.211 214.208 143.837C211.735 143.424 213.236 139.939 212.613 137.442Z" stroke="var(--primary)"/>
<path d="M185.256 178.172L191.392 170.286C195.259 165.041 197.643 162.325 204.646 160.365C204.646 160.365 209.8 156.295 212.009 156.041C214.218 155.786 214.218 156.804 214.218 156.804C214.218 156.804 234.835 159.093 236.062 160.365C237.29 161.637 238.517 160.874 238.026 163.418C237.535 165.961 236.062 165.453 236.062 167.997C236.062 170.54 240.235 173.084 239.99 175.119C239.744 177.154 237.29 181.478 236.062 181.478C234.835 181.478 229.435 179.443 230.417 182.242C231.399 185.04 233.447 189.311 231.399 192.925C230.403 194.683 229.389 195.412 227.717 196.487C226.144 197.498 224.852 197.223 223.299 198.267C221.707 199.338 221.657 201.186 219.863 201.829C217.731 202.592 214.218 200.557 214.218 200.557C214.218 200.557 211.298 201.443 209.8 200.557C207.579 199.243 208.327 193.943 208.327 193.943C208.327 193.943 205.213 201.34 201.7 200.557C199.513 200.069 197.528 196.487 197.528 196.487C197.528 196.487 192.043 197.195 189.919 194.96C187.861 192.795 188.446 187.329 188.446 187.329L189.919 183.005C189.919 183.005 186.137 183.235 185.256 181.478C184.681 180.333 185.256 178.172 185.256 178.172Z" fill="white" stroke="var(--primary)"/>
<path d="M207.235 169.47C208.167 167.211 209.007 166.597 211.346 167.242C212.44 169.569 211.667 170.493 208.686 171.698C206.899 171.189 206.673 170.673 207.235 169.47Z" fill="var(--primary)"/>
<path d="M206.026 174.174C203.917 174.257 199.723 183.574 199.98 188.781M200.706 169.47C199.863 169.334 194.311 174.566 192 177.64M209.895 174.917C210.646 181.562 210.579 185.298 208.686 192M212.797 174.174C215.307 178.504 215.855 180.948 216.425 185.315M214.974 171.698C216.295 170.694 225.368 175.959 229 180.116M211.346 167.242C209.007 166.597 208.167 167.211 207.235 169.47C206.673 170.673 206.899 171.189 208.686 171.698C211.667 170.493 212.44 169.569 211.346 167.242Z" stroke="var(--primary)"/>
<path d="M200.102 102.168C197.614 102.478 196.784 105.189 196.835 107.697C196.885 110.12 197.698 112.669 200.102 112.974C202.732 113.308 204.314 110.348 204.374 107.697C204.435 104.969 202.809 101.83 200.102 102.168Z" fill="var(--primary)"/>
<path d="M205.63 99.6547C216.873 89.9418 220.63 84.2972 218.194 73.5184M214.424 70C214.337 74.4477 214.342 76.2557 214.424 78.5446M195.579 103.676C188.359 97.5832 184.868 93.6901 180 85.5813M214.424 104.43C217.951 104.679 224.473 96.2353 223.973 90.8588M196.835 107.697C196.784 105.189 197.614 102.478 200.102 102.168C202.809 101.83 204.435 104.969 204.374 107.697C204.314 110.348 202.732 113.308 200.102 112.974C197.698 112.669 196.885 110.12 196.835 107.697Z" stroke="var(--primary)"/>
<path d="M69.6844 248.251L132.571 258.729L194.69 269.705L190.96 291.595L65.961 267.858L69.6844 248.251Z" fill="var(--primary)"/>
</svg>
