<svg width="1512" height="51" viewBox="0 0 1512 51" fill="none" xmlns="http://www.w3.org/2000/svg">
<path d="M-24 6C-24 6 18 50.8844 42.6 49.9867C67.2 49.089 99 6 99 6M97 6C97 6 139 50.8844 163.6 49.9867C188.2 49.089 220 6 220 6M218 6C218 6 260 50.8844 284.6 49.9867C309.2 49.089 341 6 341 6M339 6C339 6 381 50.8844 405.6 49.9867C430.2 49.089 462 6 462 6M460 6C460 6 502 50.8844 526.6 49.9867C551.2 49.089 583 6 583 6M581 6C581 6 623 50.8844 647.6 49.9867C672.2 49.089 704 6 704 6M702 6C702 6 744 50.8844 768.6 49.9867C793.2 49.089 825 6 825 6M823 6C823 6 865 50.8844 889.6 49.9867C914.2 49.089 946 6 946 6M944 6C944 6 986 50.8844 1010.6 49.9867C1035.2 49.089 1067 6 1067 6M1065 6C1065 6 1107 50.8844 1131.6 49.9867C1156.2 49.089 1188 6 1188 6M1186 6C1186 6 1228 50.8844 1252.6 49.9867C1277.2 49.089 1309 6 1309 6M1307 6C1307 6 1349 50.8844 1373.6 49.9867C1398.2 49.089 1430 6 1430 6M1428 6C1428 6 1470 50.8844 1494.6 49.9867C1519.2 49.089 1551 6 1551 6M37.1465 43L41.6568 38.8609M41.6568 38.8609L45.756 35.099M41.6568 38.8609L45.9954 42.1501M41.6568 38.8609L37.1338 35.4317M45.756 35.099L50.3893 30.8469M45.756 35.099L49.5502 38.6493M45.756 35.099L41.1957 30.832M50.3893 30.8469L56.0621 25.641M50.3893 30.8469L53.9822 34.1604M50.3893 30.8469L45.3149 26.1672M56.0621 25.641L61.3363 20.8008M56.0621 25.641L59.6259 29.5642M56.0621 25.641L50.8482 19.9013M61.3363 20.8008L66.5697 15.9981M61.3363 20.8008L65.0043 24.764M61.3363 20.8008L55.5627 14.5625M66.5697 15.9981L71.4952 11.4779M66.5697 15.9981L70.1403 19.9852M66.5697 15.9981L60.3894 9.09664M71.4952 11.4779L77.6551 5.82497M71.4952 11.4779L75.0339 15.2279M71.4952 11.4779L64.6717 4.24722M77.6551 5.82497L83.3021 0.642605M77.6551 5.82497L81.2894 9.43965M77.6551 5.82497L70.001 -1.78769M83.3021 0.642605L88.3418 -3.98235M83.3021 0.642605L86.887 4.39242M83.3021 0.642605L75.2721 -7.75684M88.3418 -3.98235L89.2404 -4.80696M88.3418 -3.98235L92 -0.611917M88.3418 -3.98235L68.786 -22M33.2516 39.828L37.1338 35.4317M37.1338 35.4317L41.1957 30.832M37.1338 35.4317L32.0929 31.61M41.1957 30.832L45.3149 26.1672M41.1957 30.832L36.624 26.5542M45.3149 26.1672L50.8482 19.9013M45.3149 26.1672L40.7466 21.9542M50.8482 19.9013L55.5627 14.5625M50.8482 19.9013L46.6894 15.3231M55.5627 14.5625L60.3894 9.09664M55.5627 14.5625L51.401 10.0658M60.3894 9.09664L64.6717 4.24722M60.3894 9.09664L56.331 4.56476M64.6717 4.24722L70.001 -1.78769M64.6717 4.24722L60.5397 -0.131399M70.001 -1.78769L75.2721 -7.75684M70.001 -1.78769L65.7834 -5.98238M75.2721 -7.75684L77.0689 -9.79158M75.2721 -7.75684L63.6158 -19.9493M28.383 35.7496L32.0929 31.61M32.0929 31.61L36.624 26.5542M32.0929 31.61L25.866 26.8891M36.624 26.5542L40.7466 21.9542M36.624 26.5542L30.4365 20.7646M40.7466 21.9542L46.6894 15.3231M40.7466 21.9542L34.1136 15.8372M46.6894 15.3231L51.401 10.0658M46.6894 15.3231L39.996 7.95461M51.401 10.0658L56.331 4.56476M51.401 10.0658L44.2149 2.30122M56.331 4.56476L60.5397 -0.131399M56.331 4.56476L48.8008 -3.84406M60.5397 -0.131399L65.7834 -5.98238M60.5397 -0.131399L52.4375 -8.71726M65.7834 -5.98238L70.0095 -10.6979M65.7834 -5.98238L52.7107 -18.9843M22.2973 31.6713L25.866 26.8891M25.866 26.8891L30.4365 20.7646M25.866 26.8891L20.1286 22.5393M30.4365 20.7646L34.1136 15.8372M30.4365 20.7646L25.2047 15.8693M34.1136 15.8372L39.996 7.95461M34.1136 15.8372L28.8931 11.0227M39.996 7.95461L44.2149 2.30122M39.996 7.95461L35.225 2.70246M44.2149 2.30122L48.8008 -3.84406M44.2149 2.30122L39.4492 -2.8481M48.8008 -3.84406L52.4375 -8.71726M48.8008 -3.84406L44.1552 -9.0318M52.4375 -8.71726L56.6208 -14.323M52.4375 -8.71726L47.7201 -13.7162M16.455 27.3664L20.1286 22.5393M20.1286 22.5393L25.2047 15.8693M20.1286 22.5393L14.421 18.2121M25.2047 15.8693L28.8931 11.0227M25.2047 15.8693L19.836 10.8458M28.8931 11.0227L35.225 2.70246M28.8931 11.0227L23.4178 5.97336M35.225 2.70246L39.4492 -2.8481M35.225 2.70246L30.028 -3.01868M39.4492 -2.8481L44.1552 -9.0318M39.4492 -2.8481L34.1286 -8.5969M44.1552 -9.0318L47.7201 -13.7162M44.1552 -9.0318L38.8243 -14.9846M47.7201 -13.7162L49.5614 -16.1356M47.7201 -13.7162L42.1955 -19.5706M10.8561 23.0615L14.421 18.2121M14.421 18.2121L19.836 10.8458M14.421 18.2121L9.0728 14.1573M19.836 10.8458L23.4178 5.97336M19.836 10.8458L15.0922 6.40707M23.4178 5.97336L30.028 -3.01868M23.4178 5.97336L18.7631 1.68066M30.028 -3.01868L34.1286 -8.5969M30.028 -3.01868L25.9229 -7.53785M34.1286 -8.5969L38.8243 -14.9846M34.1286 -8.5969L30.1142 -12.9344M38.8243 -14.9846L42.1955 -19.5706M38.8243 -14.9846L34.2589 -20.0827M42.1955 -19.5706L42.5019 -19.9874M42.1955 -19.5706L42.1289 -19.6411M5.50064 18.7567L9.0728 14.1573M9.0728 14.1573L15.0922 6.40707M9.0728 14.1573L2.38372 9.08602M15.0922 6.40707L18.7631 1.68066M15.0922 6.40707L9.18828 0.88278M18.7631 1.68066L25.9229 -7.53785M18.7631 1.68066L12.9632 -3.66809M25.9229 -7.53785L30.1142 -12.9344M25.9229 -7.53785L20.8267 -13.1479M30.1142 -12.9344L34.7122 -18.8545M30.1142 -12.9344L27.6229 -15.6264M-1.31538 13.5455L2.38372 9.08602M2.38372 9.08602L9.18828 0.88278M2.38372 9.08602L-3.7793 4.41354M9.18828 0.88278L12.9632 -3.66809M9.18828 0.88278L3.32186 -4.60641M12.9632 -3.66809L20.8267 -13.1479M12.9632 -3.66809L7.81952 -8.41169M20.8267 -13.1479L24.2447 -17.2685M20.8267 -13.1479L20.7794 -13.2M-7.40112 9.014L-3.7793 4.41354M-3.7793 4.41354L3.32186 -4.60641M-3.7793 4.41354L-9.23061 0.280636M3.32186 -4.60641L13.2904 -17.2685M3.32186 -4.60641L0.883911 -6.88759M-13 4.48254L-9.23061 0.280636M-9.23061 0.280636L7.93494 -18.8545M-9.23061 0.280636L-10.7261 -0.853138M158.146 43L162.657 38.8609M162.657 38.8609L166.756 35.099M162.657 38.8609L166.995 42.1501M162.657 38.8609L158.134 35.4317M166.756 35.099L171.389 30.8469M166.756 35.099L170.55 38.6493M166.756 35.099L162.196 30.832M171.389 30.8469L177.062 25.641M171.389 30.8469L174.982 34.1604M171.389 30.8469L166.315 26.1672M177.062 25.641L182.336 20.8008M177.062 25.641L180.626 29.5642M177.062 25.641L171.848 19.9013M182.336 20.8008L187.57 15.9981M182.336 20.8008L186.004 24.764M182.336 20.8008L176.563 14.5625M187.57 15.9981L192.495 11.4779M187.57 15.9981L191.14 19.9852M187.57 15.9981L181.389 9.09664M192.495 11.4779L198.655 5.82497M192.495 11.4779L196.034 15.2279M192.495 11.4779L185.672 4.24722M198.655 5.82497L204.302 0.642605M198.655 5.82497L202.289 9.43965M198.655 5.82497L191.001 -1.78769M204.302 0.642605L209.342 -3.98235M204.302 0.642605L207.887 4.39242M204.302 0.642605L196.272 -7.75684M209.342 -3.98235L210.24 -4.80696M209.342 -3.98235L213 -0.611917M209.342 -3.98235L189.786 -22M154.252 39.828L158.134 35.4317M158.134 35.4317L162.196 30.832M158.134 35.4317L153.093 31.61M162.196 30.832L166.315 26.1672M162.196 30.832L157.624 26.5542M166.315 26.1672L171.848 19.9013M166.315 26.1672L161.747 21.9542M171.848 19.9013L176.563 14.5625M171.848 19.9013L167.689 15.3231M176.563 14.5625L181.389 9.09664M176.563 14.5625L172.401 10.0658M181.389 9.09664L185.672 4.24722M181.389 9.09664L177.331 4.56476M185.672 4.24722L191.001 -1.78769M185.672 4.24722L181.54 -0.131399M191.001 -1.78769L196.272 -7.75684M191.001 -1.78769L186.783 -5.98238M196.272 -7.75684L198.069 -9.79158M196.272 -7.75684L184.616 -19.9493M149.383 35.7496L153.093 31.61M153.093 31.61L157.624 26.5542M153.093 31.61L146.866 26.8891M157.624 26.5542L161.747 21.9542M157.624 26.5542L151.436 20.7646M161.747 21.9542L167.689 15.3231M161.747 21.9542L155.114 15.8372M167.689 15.3231L172.401 10.0658M167.689 15.3231L160.996 7.95461M172.401 10.0658L177.331 4.56476M172.401 10.0658L165.215 2.30122M177.331 4.56476L181.54 -0.131399M177.331 4.56476L169.801 -3.84406M181.54 -0.131399L186.783 -5.98238M181.54 -0.131399L173.438 -8.71726M186.783 -5.98238L191.009 -10.6979M186.783 -5.98238L173.711 -18.9843M143.297 31.6713L146.866 26.8891M146.866 26.8891L151.436 20.7646M146.866 26.8891L141.129 22.5393M151.436 20.7646L155.114 15.8372M151.436 20.7646L146.205 15.8693M155.114 15.8372L160.996 7.95461M155.114 15.8372L149.893 11.0227M160.996 7.95461L165.215 2.30122M160.996 7.95461L156.225 2.70246M165.215 2.30122L169.801 -3.84406M165.215 2.30122L160.449 -2.8481M169.801 -3.84406L173.438 -8.71726M169.801 -3.84406L165.155 -9.0318M173.438 -8.71726L177.621 -14.323M173.438 -8.71726L168.72 -13.7162M137.455 27.3664L141.129 22.5393M141.129 22.5393L146.205 15.8693M141.129 22.5393L135.421 18.2121M146.205 15.8693L149.893 11.0227M146.205 15.8693L140.836 10.8458M149.893 11.0227L156.225 2.70246M149.893 11.0227L144.418 5.97336M156.225 2.70246L160.449 -2.8481M156.225 2.70246L151.028 -3.01868M160.449 -2.8481L165.155 -9.0318M160.449 -2.8481L155.129 -8.5969M165.155 -9.0318L168.72 -13.7162M165.155 -9.0318L159.824 -14.9846M168.72 -13.7162L170.561 -16.1356M168.72 -13.7162L163.196 -19.5706M131.856 23.0615L135.421 18.2121M135.421 18.2121L140.836 10.8458M135.421 18.2121L130.073 14.1573M140.836 10.8458L144.418 5.97336M140.836 10.8458L136.092 6.40707M144.418 5.97336L151.028 -3.01868M144.418 5.97336L139.763 1.68066M151.028 -3.01868L155.129 -8.5969M151.028 -3.01868L146.923 -7.53785M155.129 -8.5969L159.824 -14.9846M155.129 -8.5969L151.114 -12.9344M159.824 -14.9846L163.196 -19.5706M159.824 -14.9846L155.259 -20.0827M163.196 -19.5706L163.502 -19.9874M163.196 -19.5706L163.129 -19.6411M126.501 18.7567L130.073 14.1573M130.073 14.1573L136.092 6.40707M130.073 14.1573L123.384 9.08602M136.092 6.40707L139.763 1.68066M136.092 6.40707L130.188 0.88278M139.763 1.68066L146.923 -7.53785M139.763 1.68066L133.963 -3.66809M146.923 -7.53785L151.114 -12.9344M146.923 -7.53785L141.827 -13.1479M151.114 -12.9344L155.712 -18.8545M151.114 -12.9344L148.623 -15.6264M119.685 13.5455L123.384 9.08602M123.384 9.08602L130.188 0.88278M123.384 9.08602L117.221 4.41354M130.188 0.88278L133.963 -3.66809M130.188 0.88278L124.322 -4.60641M133.963 -3.66809L141.827 -13.1479M133.963 -3.66809L128.82 -8.41169M141.827 -13.1479L145.245 -17.2685M141.827 -13.1479L141.779 -13.2M113.599 9.014L117.221 4.41354M117.221 4.41354L124.322 -4.60641M117.221 4.41354L111.769 0.280636M124.322 -4.60641L134.29 -17.2685M124.322 -4.60641L121.884 -6.88759M108 4.48254L111.769 0.280636M111.769 0.280636L128.935 -18.8545M111.769 0.280636L110.274 -0.853138M279.146 43L283.657 38.8609M283.657 38.8609L287.756 35.099M283.657 38.8609L287.995 42.1501M283.657 38.8609L279.134 35.4317M287.756 35.099L292.389 30.8469M287.756 35.099L291.55 38.6493M287.756 35.099L283.196 30.832M292.389 30.8469L298.062 25.641M292.389 30.8469L295.982 34.1604M292.389 30.8469L287.315 26.1672M298.062 25.641L303.336 20.8008M298.062 25.641L301.626 29.5642M298.062 25.641L292.848 19.9013M303.336 20.8008L308.57 15.9981M303.336 20.8008L307.004 24.764M303.336 20.8008L297.563 14.5625M308.57 15.9981L313.495 11.4779M308.57 15.9981L312.14 19.9852M308.57 15.9981L302.389 9.09664M313.495 11.4779L319.655 5.82497M313.495 11.4779L317.034 15.2279M313.495 11.4779L306.672 4.24722M319.655 5.82497L325.302 0.642605M319.655 5.82497L323.289 9.43965M319.655 5.82497L312.001 -1.78769M325.302 0.642605L330.342 -3.98235M325.302 0.642605L328.887 4.39242M325.302 0.642605L317.272 -7.75684M330.342 -3.98235L331.24 -4.80696M330.342 -3.98235L334 -0.611917M330.342 -3.98235L310.786 -22M275.252 39.828L279.134 35.4317M279.134 35.4317L283.196 30.832M279.134 35.4317L274.093 31.61M283.196 30.832L287.315 26.1672M283.196 30.832L278.624 26.5542M287.315 26.1672L292.848 19.9013M287.315 26.1672L282.747 21.9542M292.848 19.9013L297.563 14.5625M292.848 19.9013L288.689 15.3231M297.563 14.5625L302.389 9.09664M297.563 14.5625L293.401 10.0658M302.389 9.09664L306.672 4.24722M302.389 9.09664L298.331 4.56476M306.672 4.24722L312.001 -1.78769M306.672 4.24722L302.54 -0.131399M312.001 -1.78769L317.272 -7.75684M312.001 -1.78769L307.783 -5.98238M317.272 -7.75684L319.069 -9.79158M317.272 -7.75684L305.616 -19.9493M270.383 35.7496L274.093 31.61M274.093 31.61L278.624 26.5542M274.093 31.61L267.866 26.8891M278.624 26.5542L282.747 21.9542M278.624 26.5542L272.436 20.7646M282.747 21.9542L288.689 15.3231M282.747 21.9542L276.114 15.8372M288.689 15.3231L293.401 10.0658M288.689 15.3231L281.996 7.95461M293.401 10.0658L298.331 4.56476M293.401 10.0658L286.215 2.30122M298.331 4.56476L302.54 -0.131399M298.331 4.56476L290.801 -3.84406M302.54 -0.131399L307.783 -5.98238M302.54 -0.131399L294.438 -8.71726M307.783 -5.98238L312.009 -10.6979M307.783 -5.98238L294.711 -18.9843M264.297 31.6713L267.866 26.8891M267.866 26.8891L272.436 20.7646M267.866 26.8891L262.129 22.5393M272.436 20.7646L276.114 15.8372M272.436 20.7646L267.205 15.8693M276.114 15.8372L281.996 7.95461M276.114 15.8372L270.893 11.0227M281.996 7.95461L286.215 2.30122M281.996 7.95461L277.225 2.70246M286.215 2.30122L290.801 -3.84406M286.215 2.30122L281.449 -2.8481M290.801 -3.84406L294.438 -8.71726M290.801 -3.84406L286.155 -9.0318M294.438 -8.71726L298.621 -14.323M294.438 -8.71726L289.72 -13.7162M258.455 27.3664L262.129 22.5393M262.129 22.5393L267.205 15.8693M262.129 22.5393L256.421 18.2121M267.205 15.8693L270.893 11.0227M267.205 15.8693L261.836 10.8458M270.893 11.0227L277.225 2.70246M270.893 11.0227L265.418 5.97336M277.225 2.70246L281.449 -2.8481M277.225 2.70246L272.028 -3.01868M281.449 -2.8481L286.155 -9.0318M281.449 -2.8481L276.129 -8.5969M286.155 -9.0318L289.72 -13.7162M286.155 -9.0318L280.824 -14.9846M289.72 -13.7162L291.561 -16.1356M289.72 -13.7162L284.196 -19.5706M252.856 23.0615L256.421 18.2121M256.421 18.2121L261.836 10.8458M256.421 18.2121L251.073 14.1573M261.836 10.8458L265.418 5.97336M261.836 10.8458L257.092 6.40707M265.418 5.97336L272.028 -3.01868M265.418 5.97336L260.763 1.68066M272.028 -3.01868L276.129 -8.5969M272.028 -3.01868L267.923 -7.53785M276.129 -8.5969L280.824 -14.9846M276.129 -8.5969L272.114 -12.9344M280.824 -14.9846L284.196 -19.5706M280.824 -14.9846L276.259 -20.0827M284.196 -19.5706L284.502 -19.9874M284.196 -19.5706L284.129 -19.6411M247.501 18.7567L251.073 14.1573M251.073 14.1573L257.092 6.40707M251.073 14.1573L244.384 9.08602M257.092 6.40707L260.763 1.68066M257.092 6.40707L251.188 0.88278M260.763 1.68066L267.923 -7.53785M260.763 1.68066L254.963 -3.66809M267.923 -7.53785L272.114 -12.9344M267.923 -7.53785L262.827 -13.1479M272.114 -12.9344L276.712 -18.8545M272.114 -12.9344L269.623 -15.6264M240.685 13.5455L244.384 9.08602M244.384 9.08602L251.188 0.88278M244.384 9.08602L238.221 4.41354M251.188 0.88278L254.963 -3.66809M251.188 0.88278L245.322 -4.60641M254.963 -3.66809L262.827 -13.1479M254.963 -3.66809L249.82 -8.41169M262.827 -13.1479L266.245 -17.2685M262.827 -13.1479L262.779 -13.2M234.599 9.014L238.221 4.41354M238.221 4.41354L245.322 -4.60641M238.221 4.41354L232.769 0.280636M245.322 -4.60641L255.29 -17.2685M245.322 -4.60641L242.884 -6.88759M229 4.48254L232.769 0.280636M232.769 0.280636L249.935 -18.8545M232.769 0.280636L231.274 -0.853138M400.146 43L404.657 38.8609M404.657 38.8609L408.756 35.099M404.657 38.8609L408.995 42.1501M404.657 38.8609L400.134 35.4317M408.756 35.099L413.389 30.8469M408.756 35.099L412.55 38.6493M408.756 35.099L404.196 30.832M413.389 30.8469L419.062 25.641M413.389 30.8469L416.982 34.1604M413.389 30.8469L408.315 26.1672M419.062 25.641L424.336 20.8008M419.062 25.641L422.626 29.5642M419.062 25.641L413.848 19.9013M424.336 20.8008L429.57 15.9981M424.336 20.8008L428.004 24.764M424.336 20.8008L418.563 14.5625M429.57 15.9981L434.495 11.4779M429.57 15.9981L433.14 19.9852M429.57 15.9981L423.389 9.09664M434.495 11.4779L440.655 5.82497M434.495 11.4779L438.034 15.2279M434.495 11.4779L427.672 4.24722M440.655 5.82497L446.302 0.642605M440.655 5.82497L444.289 9.43965M440.655 5.82497L433.001 -1.78769M446.302 0.642605L451.342 -3.98235M446.302 0.642605L449.887 4.39242M446.302 0.642605L438.272 -7.75684M451.342 -3.98235L452.24 -4.80696M451.342 -3.98235L455 -0.611917M451.342 -3.98235L431.786 -22M396.252 39.828L400.134 35.4317M400.134 35.4317L404.196 30.832M400.134 35.4317L395.093 31.61M404.196 30.832L408.315 26.1672M404.196 30.832L399.624 26.5542M408.315 26.1672L413.848 19.9013M408.315 26.1672L403.747 21.9542M413.848 19.9013L418.563 14.5625M413.848 19.9013L409.689 15.3231M418.563 14.5625L423.389 9.09664M418.563 14.5625L414.401 10.0658M423.389 9.09664L427.672 4.24722M423.389 9.09664L419.331 4.56476M427.672 4.24722L433.001 -1.78769M427.672 4.24722L423.54 -0.131399M433.001 -1.78769L438.272 -7.75684M433.001 -1.78769L428.783 -5.98238M438.272 -7.75684L440.069 -9.79158M438.272 -7.75684L426.616 -19.9493M391.383 35.7496L395.093 31.61M395.093 31.61L399.624 26.5542M395.093 31.61L388.866 26.8891M399.624 26.5542L403.747 21.9542M399.624 26.5542L393.436 20.7646M403.747 21.9542L409.689 15.3231M403.747 21.9542L397.114 15.8372M409.689 15.3231L414.401 10.0658M409.689 15.3231L402.996 7.95461M414.401 10.0658L419.331 4.56476M414.401 10.0658L407.215 2.30122M419.331 4.56476L423.54 -0.131399M419.331 4.56476L411.801 -3.84406M423.54 -0.131399L428.783 -5.98238M423.54 -0.131399L415.438 -8.71726M428.783 -5.98238L433.009 -10.6979M428.783 -5.98238L415.711 -18.9843M385.297 31.6713L388.866 26.8891M388.866 26.8891L393.436 20.7646M388.866 26.8891L383.129 22.5393M393.436 20.7646L397.114 15.8372M393.436 20.7646L388.205 15.8693M397.114 15.8372L402.996 7.95461M397.114 15.8372L391.893 11.0227M402.996 7.95461L407.215 2.30122M402.996 7.95461L398.225 2.70246M407.215 2.30122L411.801 -3.84406M407.215 2.30122L402.449 -2.8481M411.801 -3.84406L415.438 -8.71726M411.801 -3.84406L407.155 -9.0318M415.438 -8.71726L419.621 -14.323M415.438 -8.71726L410.72 -13.7162M379.455 27.3664L383.129 22.5393M383.129 22.5393L388.205 15.8693M383.129 22.5393L377.421 18.2121M388.205 15.8693L391.893 11.0227M388.205 15.8693L382.836 10.8458M391.893 11.0227L398.225 2.70246M391.893 11.0227L386.418 5.97336M398.225 2.70246L402.449 -2.8481M398.225 2.70246L393.028 -3.01868M402.449 -2.8481L407.155 -9.0318M402.449 -2.8481L397.129 -8.5969M407.155 -9.0318L410.72 -13.7162M407.155 -9.0318L401.824 -14.9846M410.72 -13.7162L412.561 -16.1356M410.72 -13.7162L405.196 -19.5706M373.856 23.0615L377.421 18.2121M377.421 18.2121L382.836 10.8458M377.421 18.2121L372.073 14.1573M382.836 10.8458L386.418 5.97336M382.836 10.8458L378.092 6.40707M386.418 5.97336L393.028 -3.01868M386.418 5.97336L381.763 1.68066M393.028 -3.01868L397.129 -8.5969M393.028 -3.01868L388.923 -7.53785M397.129 -8.5969L401.824 -14.9846M397.129 -8.5969L393.114 -12.9344M401.824 -14.9846L405.196 -19.5706M401.824 -14.9846L397.259 -20.0827M405.196 -19.5706L405.502 -19.9874M405.196 -19.5706L405.129 -19.6411M368.501 18.7567L372.073 14.1573M372.073 14.1573L378.092 6.40707M372.073 14.1573L365.384 9.08602M378.092 6.40707L381.763 1.68066M378.092 6.40707L372.188 0.88278M381.763 1.68066L388.923 -7.53785M381.763 1.68066L375.963 -3.66809M388.923 -7.53785L393.114 -12.9344M388.923 -7.53785L383.827 -13.1479M393.114 -12.9344L397.712 -18.8545M393.114 -12.9344L390.623 -15.6264M361.685 13.5455L365.384 9.08602M365.384 9.08602L372.188 0.88278M365.384 9.08602L359.221 4.41354M372.188 0.88278L375.963 -3.66809M372.188 0.88278L366.322 -4.60641M375.963 -3.66809L383.827 -13.1479M375.963 -3.66809L370.82 -8.41169M383.827 -13.1479L387.245 -17.2685M383.827 -13.1479L383.779 -13.2M355.599 9.014L359.221 4.41354M359.221 4.41354L366.322 -4.60641M359.221 4.41354L353.769 0.280636M366.322 -4.60641L376.29 -17.2685M366.322 -4.60641L363.884 -6.88759M350 4.48254L353.769 0.280636M353.769 0.280636L370.935 -18.8545M353.769 0.280636L352.274 -0.853138M521.146 43L525.657 38.8609M525.657 38.8609L529.756 35.099M525.657 38.8609L529.995 42.1501M525.657 38.8609L521.134 35.4317M529.756 35.099L534.389 30.8469M529.756 35.099L533.55 38.6493M529.756 35.099L525.196 30.832M534.389 30.8469L540.062 25.641M534.389 30.8469L537.982 34.1604M534.389 30.8469L529.315 26.1672M540.062 25.641L545.336 20.8008M540.062 25.641L543.626 29.5642M540.062 25.641L534.848 19.9013M545.336 20.8008L550.57 15.9981M545.336 20.8008L549.004 24.764M545.336 20.8008L539.563 14.5625M550.57 15.9981L555.495 11.4779M550.57 15.9981L554.14 19.9852M550.57 15.9981L544.389 9.09664M555.495 11.4779L561.655 5.82497M555.495 11.4779L559.034 15.2279M555.495 11.4779L548.672 4.24722M561.655 5.82497L567.302 0.642605M561.655 5.82497L565.289 9.43965M561.655 5.82497L554.001 -1.78769M567.302 0.642605L572.342 -3.98235M567.302 0.642605L570.887 4.39242M567.302 0.642605L559.272 -7.75684M572.342 -3.98235L573.24 -4.80696M572.342 -3.98235L576 -0.611917M572.342 -3.98235L552.786 -22M517.252 39.828L521.134 35.4317M521.134 35.4317L525.196 30.832M521.134 35.4317L516.093 31.61M525.196 30.832L529.315 26.1672M525.196 30.832L520.624 26.5542M529.315 26.1672L534.848 19.9013M529.315 26.1672L524.747 21.9542M534.848 19.9013L539.563 14.5625M534.848 19.9013L530.689 15.3231M539.563 14.5625L544.389 9.09664M539.563 14.5625L535.401 10.0658M544.389 9.09664L548.672 4.24722M544.389 9.09664L540.331 4.56476M548.672 4.24722L554.001 -1.78769M548.672 4.24722L544.54 -0.131399M554.001 -1.78769L559.272 -7.75684M554.001 -1.78769L549.783 -5.98238M559.272 -7.75684L561.069 -9.79158M559.272 -7.75684L547.616 -19.9493M512.383 35.7496L516.093 31.61M516.093 31.61L520.624 26.5542M516.093 31.61L509.866 26.8891M520.624 26.5542L524.747 21.9542M520.624 26.5542L514.436 20.7646M524.747 21.9542L530.689 15.3231M524.747 21.9542L518.114 15.8372M530.689 15.3231L535.401 10.0658M530.689 15.3231L523.996 7.95461M535.401 10.0658L540.331 4.56476M535.401 10.0658L528.215 2.30122M540.331 4.56476L544.54 -0.131399M540.331 4.56476L532.801 -3.84406M544.54 -0.131399L549.783 -5.98238M544.54 -0.131399L536.438 -8.71726M549.783 -5.98238L554.009 -10.6979M549.783 -5.98238L536.711 -18.9843M506.297 31.6713L509.866 26.8891M509.866 26.8891L514.436 20.7646M509.866 26.8891L504.129 22.5393M514.436 20.7646L518.114 15.8372M514.436 20.7646L509.205 15.8693M518.114 15.8372L523.996 7.95461M518.114 15.8372L512.893 11.0227M523.996 7.95461L528.215 2.30122M523.996 7.95461L519.225 2.70246M528.215 2.30122L532.801 -3.84406M528.215 2.30122L523.449 -2.8481M532.801 -3.84406L536.438 -8.71726M532.801 -3.84406L528.155 -9.0318M536.438 -8.71726L540.621 -14.323M536.438 -8.71726L531.72 -13.7162M500.455 27.3664L504.129 22.5393M504.129 22.5393L509.205 15.8693M504.129 22.5393L498.421 18.2121M509.205 15.8693L512.893 11.0227M509.205 15.8693L503.836 10.8458M512.893 11.0227L519.225 2.70246M512.893 11.0227L507.418 5.97336M519.225 2.70246L523.449 -2.8481M519.225 2.70246L514.028 -3.01868M523.449 -2.8481L528.155 -9.0318M523.449 -2.8481L518.129 -8.5969M528.155 -9.0318L531.72 -13.7162M528.155 -9.0318L522.824 -14.9846M531.72 -13.7162L533.561 -16.1356M531.72 -13.7162L526.195 -19.5706M494.856 23.0615L498.421 18.2121M498.421 18.2121L503.836 10.8458M498.421 18.2121L493.073 14.1573M503.836 10.8458L507.418 5.97336M503.836 10.8458L499.092 6.40707M507.418 5.97336L514.028 -3.01868M507.418 5.97336L502.763 1.68066M514.028 -3.01868L518.129 -8.5969M514.028 -3.01868L509.923 -7.53785M518.129 -8.5969L522.824 -14.9846M518.129 -8.5969L514.114 -12.9344M522.824 -14.9846L526.195 -19.5706M522.824 -14.9846L518.259 -20.0827M526.195 -19.5706L526.502 -19.9874M526.195 -19.5706L526.129 -19.6411M489.501 18.7567L493.073 14.1573M493.073 14.1573L499.092 6.40707M493.073 14.1573L486.384 9.08602M499.092 6.40707L502.763 1.68066M499.092 6.40707L493.188 0.88278M502.763 1.68066L509.923 -7.53785M502.763 1.68066L496.963 -3.66809M509.923 -7.53785L514.114 -12.9344M509.923 -7.53785L504.827 -13.1479M514.114 -12.9344L518.712 -18.8545M514.114 -12.9344L511.623 -15.6264M482.685 13.5455L486.384 9.08602M486.384 9.08602L493.188 0.88278M486.384 9.08602L480.221 4.41354M493.188 0.88278L496.963 -3.66809M493.188 0.88278L487.322 -4.60641M496.963 -3.66809L504.827 -13.1479M496.963 -3.66809L491.82 -8.41169M504.827 -13.1479L508.245 -17.2685M504.827 -13.1479L504.779 -13.2M476.599 9.014L480.221 4.41354M480.221 4.41354L487.322 -4.60641M480.221 4.41354L474.769 0.280636M487.322 -4.60641L497.29 -17.2685M487.322 -4.60641L484.884 -6.88759M471 4.48254L474.769 0.280636M474.769 0.280636L491.935 -18.8545M474.769 0.280636L473.274 -0.853138M642.146 43L646.657 38.8609M646.657 38.8609L650.756 35.099M646.657 38.8609L650.995 42.1501M646.657 38.8609L642.134 35.4317M650.756 35.099L655.389 30.8469M650.756 35.099L654.55 38.6493M650.756 35.099L646.196 30.832M655.389 30.8469L661.062 25.641M655.389 30.8469L658.982 34.1604M655.389 30.8469L650.315 26.1672M661.062 25.641L666.336 20.8008M661.062 25.641L664.626 29.5642M661.062 25.641L655.848 19.9013M666.336 20.8008L671.57 15.9981M666.336 20.8008L670.004 24.764M666.336 20.8008L660.563 14.5625M671.57 15.9981L676.495 11.4779M671.57 15.9981L675.14 19.9852M671.57 15.9981L665.389 9.09664M676.495 11.4779L682.655 5.82497M676.495 11.4779L680.034 15.2279M676.495 11.4779L669.672 4.24722M682.655 5.82497L688.302 0.642605M682.655 5.82497L686.289 9.43965M682.655 5.82497L675.001 -1.78769M688.302 0.642605L693.342 -3.98235M688.302 0.642605L691.887 4.39242M688.302 0.642605L680.272 -7.75684M693.342 -3.98235L694.24 -4.80696M693.342 -3.98235L697 -0.611917M693.342 -3.98235L673.786 -22M638.252 39.828L642.134 35.4317M642.134 35.4317L646.196 30.832M642.134 35.4317L637.093 31.61M646.196 30.832L650.315 26.1672M646.196 30.832L641.624 26.5542M650.315 26.1672L655.848 19.9013M650.315 26.1672L645.747 21.9542M655.848 19.9013L660.563 14.5625M655.848 19.9013L651.689 15.3231M660.563 14.5625L665.389 9.09664M660.563 14.5625L656.401 10.0658M665.389 9.09664L669.672 4.24722M665.389 9.09664L661.331 4.56476M669.672 4.24722L675.001 -1.78769M669.672 4.24722L665.54 -0.131399M675.001 -1.78769L680.272 -7.75684M675.001 -1.78769L670.783 -5.98238M680.272 -7.75684L682.069 -9.79158M680.272 -7.75684L668.616 -19.9493M633.383 35.7496L637.093 31.61M637.093 31.61L641.624 26.5542M637.093 31.61L630.866 26.8891M641.624 26.5542L645.747 21.9542M641.624 26.5542L635.436 20.7646M645.747 21.9542L651.689 15.3231M645.747 21.9542L639.114 15.8372M651.689 15.3231L656.401 10.0658M651.689 15.3231L644.996 7.95461M656.401 10.0658L661.331 4.56476M656.401 10.0658L649.215 2.30122M661.331 4.56476L665.54 -0.131399M661.331 4.56476L653.801 -3.84406M665.54 -0.131399L670.783 -5.98238M665.54 -0.131399L657.438 -8.71726M670.783 -5.98238L675.009 -10.6979M670.783 -5.98238L657.711 -18.9843M627.297 31.6713L630.866 26.8891M630.866 26.8891L635.436 20.7646M630.866 26.8891L625.129 22.5393M635.436 20.7646L639.114 15.8372M635.436 20.7646L630.205 15.8693M639.114 15.8372L644.996 7.95461M639.114 15.8372L633.893 11.0227M644.996 7.95461L649.215 2.30122M644.996 7.95461L640.225 2.70246M649.215 2.30122L653.801 -3.84406M649.215 2.30122L644.449 -2.8481M653.801 -3.84406L657.438 -8.71726M653.801 -3.84406L649.155 -9.0318M657.438 -8.71726L661.621 -14.323M657.438 -8.71726L652.72 -13.7162M621.455 27.3664L625.129 22.5393M625.129 22.5393L630.205 15.8693M625.129 22.5393L619.421 18.2121M630.205 15.8693L633.893 11.0227M630.205 15.8693L624.836 10.8458M633.893 11.0227L640.225 2.70246M633.893 11.0227L628.418 5.97336M640.225 2.70246L644.449 -2.8481M640.225 2.70246L635.028 -3.01868M644.449 -2.8481L649.155 -9.0318M644.449 -2.8481L639.129 -8.5969M649.155 -9.0318L652.72 -13.7162M649.155 -9.0318L643.824 -14.9846M652.72 -13.7162L654.561 -16.1356M652.72 -13.7162L647.195 -19.5706M615.856 23.0615L619.421 18.2121M619.421 18.2121L624.836 10.8458M619.421 18.2121L614.073 14.1573M624.836 10.8458L628.418 5.97336M624.836 10.8458L620.092 6.40707M628.418 5.97336L635.028 -3.01868M628.418 5.97336L623.763 1.68066M635.028 -3.01868L639.129 -8.5969M635.028 -3.01868L630.923 -7.53785M639.129 -8.5969L643.824 -14.9846M639.129 -8.5969L635.114 -12.9344M643.824 -14.9846L647.195 -19.5706M643.824 -14.9846L639.259 -20.0827M647.195 -19.5706L647.502 -19.9874M647.195 -19.5706L647.129 -19.6411M610.501 18.7567L614.073 14.1573M614.073 14.1573L620.092 6.40707M614.073 14.1573L607.384 9.08602M620.092 6.40707L623.763 1.68066M620.092 6.40707L614.188 0.88278M623.763 1.68066L630.923 -7.53785M623.763 1.68066L617.963 -3.66809M630.923 -7.53785L635.114 -12.9344M630.923 -7.53785L625.827 -13.1479M635.114 -12.9344L639.712 -18.8545M635.114 -12.9344L632.623 -15.6264M603.685 13.5455L607.384 9.08602M607.384 9.08602L614.188 0.88278M607.384 9.08602L601.221 4.41354M614.188 0.88278L617.963 -3.66809M614.188 0.88278L608.322 -4.60641M617.963 -3.66809L625.827 -13.1479M617.963 -3.66809L612.82 -8.41169M625.827 -13.1479L629.245 -17.2685M625.827 -13.1479L625.779 -13.2M597.599 9.014L601.221 4.41354M601.221 4.41354L608.322 -4.60641M601.221 4.41354L595.769 0.280636M608.322 -4.60641L618.29 -17.2685M608.322 -4.60641L605.884 -6.88759M592 4.48254L595.769 0.280636M595.769 0.280636L612.935 -18.8545M595.769 0.280636L594.274 -0.853138M763.146 43L767.657 38.8609M767.657 38.8609L771.756 35.099M767.657 38.8609L771.995 42.1501M767.657 38.8609L763.134 35.4317M771.756 35.099L776.389 30.8469M771.756 35.099L775.55 38.6493M771.756 35.099L767.196 30.832M776.389 30.8469L782.062 25.641M776.389 30.8469L779.982 34.1604M776.389 30.8469L771.315 26.1672M782.062 25.641L787.336 20.8008M782.062 25.641L785.626 29.5642M782.062 25.641L776.848 19.9013M787.336 20.8008L792.57 15.9981M787.336 20.8008L791.004 24.764M787.336 20.8008L781.563 14.5625M792.57 15.9981L797.495 11.4779M792.57 15.9981L796.14 19.9852M792.57 15.9981L786.389 9.09664M797.495 11.4779L803.655 5.82497M797.495 11.4779L801.034 15.2279M797.495 11.4779L790.672 4.24722M803.655 5.82497L809.302 0.642605M803.655 5.82497L807.289 9.43965M803.655 5.82497L796.001 -1.78769M809.302 0.642605L814.342 -3.98235M809.302 0.642605L812.887 4.39242M809.302 0.642605L801.272 -7.75684M814.342 -3.98235L815.24 -4.80696M814.342 -3.98235L818 -0.611917M814.342 -3.98235L794.786 -22M759.252 39.828L763.134 35.4317M763.134 35.4317L767.196 30.832M763.134 35.4317L758.093 31.61M767.196 30.832L771.315 26.1672M767.196 30.832L762.624 26.5542M771.315 26.1672L776.848 19.9013M771.315 26.1672L766.747 21.9542M776.848 19.9013L781.563 14.5625M776.848 19.9013L772.689 15.3231M781.563 14.5625L786.389 9.09664M781.563 14.5625L777.401 10.0658M786.389 9.09664L790.672 4.24722M786.389 9.09664L782.331 4.56476M790.672 4.24722L796.001 -1.78769M790.672 4.24722L786.54 -0.131399M796.001 -1.78769L801.272 -7.75684M796.001 -1.78769L791.783 -5.98238M801.272 -7.75684L803.069 -9.79158M801.272 -7.75684L789.616 -19.9493M754.383 35.7496L758.093 31.61M758.093 31.61L762.624 26.5542M758.093 31.61L751.866 26.8891M762.624 26.5542L766.747 21.9542M762.624 26.5542L756.436 20.7646M766.747 21.9542L772.689 15.3231M766.747 21.9542L760.114 15.8372M772.689 15.3231L777.401 10.0658M772.689 15.3231L765.996 7.95461M777.401 10.0658L782.331 4.56476M777.401 10.0658L770.215 2.30122M782.331 4.56476L786.54 -0.131399M782.331 4.56476L774.801 -3.84406M786.54 -0.131399L791.783 -5.98238M786.54 -0.131399L778.438 -8.71726M791.783 -5.98238L796.009 -10.6979M791.783 -5.98238L778.711 -18.9843M748.297 31.6713L751.866 26.8891M751.866 26.8891L756.436 20.7646M751.866 26.8891L746.129 22.5393M756.436 20.7646L760.114 15.8372M756.436 20.7646L751.205 15.8693M760.114 15.8372L765.996 7.95461M760.114 15.8372L754.893 11.0227M765.996 7.95461L770.215 2.30122M765.996 7.95461L761.225 2.70246M770.215 2.30122L774.801 -3.84406M770.215 2.30122L765.449 -2.8481M774.801 -3.84406L778.438 -8.71726M774.801 -3.84406L770.155 -9.0318M778.438 -8.71726L782.621 -14.323M778.438 -8.71726L773.72 -13.7162M742.455 27.3664L746.129 22.5393M746.129 22.5393L751.205 15.8693M746.129 22.5393L740.421 18.2121M751.205 15.8693L754.893 11.0227M751.205 15.8693L745.836 10.8458M754.893 11.0227L761.225 2.70246M754.893 11.0227L749.418 5.97336M761.225 2.70246L765.449 -2.8481M761.225 2.70246L756.028 -3.01868M765.449 -2.8481L770.155 -9.0318M765.449 -2.8481L760.129 -8.5969M770.155 -9.0318L773.72 -13.7162M770.155 -9.0318L764.824 -14.9846M773.72 -13.7162L775.561 -16.1356M773.72 -13.7162L768.195 -19.5706M736.856 23.0615L740.421 18.2121M740.421 18.2121L745.836 10.8458M740.421 18.2121L735.073 14.1573M745.836 10.8458L749.418 5.97336M745.836 10.8458L741.092 6.40707M749.418 5.97336L756.028 -3.01868M749.418 5.97336L744.763 1.68066M756.028 -3.01868L760.129 -8.5969M756.028 -3.01868L751.923 -7.53785M760.129 -8.5969L764.824 -14.9846M760.129 -8.5969L756.114 -12.9344M764.824 -14.9846L768.195 -19.5706M764.824 -14.9846L760.259 -20.0827M768.195 -19.5706L768.502 -19.9874M768.195 -19.5706L768.129 -19.6411M731.501 18.7567L735.073 14.1573M735.073 14.1573L741.092 6.40707M735.073 14.1573L728.384 9.08602M741.092 6.40707L744.763 1.68066M741.092 6.40707L735.188 0.88278M744.763 1.68066L751.923 -7.53785M744.763 1.68066L738.963 -3.66809M751.923 -7.53785L756.114 -12.9344M751.923 -7.53785L746.827 -13.1479M756.114 -12.9344L760.712 -18.8545M756.114 -12.9344L753.623 -15.6264M724.685 13.5455L728.384 9.08602M728.384 9.08602L735.188 0.88278M728.384 9.08602L722.221 4.41354M735.188 0.88278L738.963 -3.66809M735.188 0.88278L729.322 -4.60641M738.963 -3.66809L746.827 -13.1479M738.963 -3.66809L733.82 -8.41169M746.827 -13.1479L750.245 -17.2685M746.827 -13.1479L746.779 -13.2M718.599 9.014L722.221 4.41354M722.221 4.41354L729.322 -4.60641M722.221 4.41354L716.769 0.280636M729.322 -4.60641L739.29 -17.2685M729.322 -4.60641L726.884 -6.88759M713 4.48254L716.769 0.280636M716.769 0.280636L733.935 -18.8545M716.769 0.280636L715.274 -0.853138M884.146 43L888.657 38.8609M888.657 38.8609L892.756 35.099M888.657 38.8609L892.995 42.1501M888.657 38.8609L884.134 35.4317M892.756 35.099L897.389 30.8469M892.756 35.099L896.55 38.6493M892.756 35.099L888.196 30.832M897.389 30.8469L903.062 25.641M897.389 30.8469L900.982 34.1604M897.389 30.8469L892.315 26.1672M903.062 25.641L908.336 20.8008M903.062 25.641L906.626 29.5642M903.062 25.641L897.848 19.9013M908.336 20.8008L913.57 15.9981M908.336 20.8008L912.004 24.764M908.336 20.8008L902.563 14.5625M913.57 15.9981L918.495 11.4779M913.57 15.9981L917.14 19.9852M913.57 15.9981L907.389 9.09664M918.495 11.4779L924.655 5.82497M918.495 11.4779L922.034 15.2279M918.495 11.4779L911.672 4.24722M924.655 5.82497L930.302 0.642605M924.655 5.82497L928.289 9.43965M924.655 5.82497L917.001 -1.78769M930.302 0.642605L935.342 -3.98235M930.302 0.642605L933.887 4.39242M930.302 0.642605L922.272 -7.75684M935.342 -3.98235L936.24 -4.80696M935.342 -3.98235L939 -0.611917M935.342 -3.98235L915.786 -22M880.252 39.828L884.134 35.4317M884.134 35.4317L888.196 30.832M884.134 35.4317L879.093 31.61M888.196 30.832L892.315 26.1672M888.196 30.832L883.624 26.5542M892.315 26.1672L897.848 19.9013M892.315 26.1672L887.747 21.9542M897.848 19.9013L902.563 14.5625M897.848 19.9013L893.689 15.3231M902.563 14.5625L907.389 9.09664M902.563 14.5625L898.401 10.0658M907.389 9.09664L911.672 4.24722M907.389 9.09664L903.331 4.56476M911.672 4.24722L917.001 -1.78769M911.672 4.24722L907.54 -0.131399M917.001 -1.78769L922.272 -7.75684M917.001 -1.78769L912.783 -5.98238M922.272 -7.75684L924.069 -9.79158M922.272 -7.75684L910.616 -19.9493M875.383 35.7496L879.093 31.61M879.093 31.61L883.624 26.5542M879.093 31.61L872.866 26.8891M883.624 26.5542L887.747 21.9542M883.624 26.5542L877.436 20.7646M887.747 21.9542L893.689 15.3231M887.747 21.9542L881.114 15.8372M893.689 15.3231L898.401 10.0658M893.689 15.3231L886.996 7.95461M898.401 10.0658L903.331 4.56476M898.401 10.0658L891.215 2.30122M903.331 4.56476L907.54 -0.131399M903.331 4.56476L895.801 -3.84406M907.54 -0.131399L912.783 -5.98238M907.54 -0.131399L899.438 -8.71726M912.783 -5.98238L917.009 -10.6979M912.783 -5.98238L899.711 -18.9843M869.297 31.6713L872.866 26.8891M872.866 26.8891L877.436 20.7646M872.866 26.8891L867.129 22.5393M877.436 20.7646L881.114 15.8372M877.436 20.7646L872.205 15.8693M881.114 15.8372L886.996 7.95461M881.114 15.8372L875.893 11.0227M886.996 7.95461L891.215 2.30122M886.996 7.95461L882.225 2.70246M891.215 2.30122L895.801 -3.84406M891.215 2.30122L886.449 -2.8481M895.801 -3.84406L899.438 -8.71726M895.801 -3.84406L891.155 -9.0318M899.438 -8.71726L903.621 -14.323M899.438 -8.71726L894.72 -13.7162M863.455 27.3664L867.129 22.5393M867.129 22.5393L872.205 15.8693M867.129 22.5393L861.421 18.2121M872.205 15.8693L875.893 11.0227M872.205 15.8693L866.836 10.8458M875.893 11.0227L882.225 2.70246M875.893 11.0227L870.418 5.97336M882.225 2.70246L886.449 -2.8481M882.225 2.70246L877.028 -3.01868M886.449 -2.8481L891.155 -9.0318M886.449 -2.8481L881.129 -8.5969M891.155 -9.0318L894.72 -13.7162M891.155 -9.0318L885.824 -14.9846M894.72 -13.7162L896.561 -16.1356M894.72 -13.7162L889.195 -19.5706M857.856 23.0615L861.421 18.2121M861.421 18.2121L866.836 10.8458M861.421 18.2121L856.073 14.1573M866.836 10.8458L870.418 5.97336M866.836 10.8458L862.092 6.40707M870.418 5.97336L877.028 -3.01868M870.418 5.97336L865.763 1.68066M877.028 -3.01868L881.129 -8.5969M877.028 -3.01868L872.923 -7.53785M881.129 -8.5969L885.824 -14.9846M881.129 -8.5969L877.114 -12.9344M885.824 -14.9846L889.195 -19.5706M885.824 -14.9846L881.259 -20.0827M889.195 -19.5706L889.502 -19.9874M889.195 -19.5706L889.129 -19.6411M852.501 18.7567L856.073 14.1573M856.073 14.1573L862.092 6.40707M856.073 14.1573L849.384 9.08602M862.092 6.40707L865.763 1.68066M862.092 6.40707L856.188 0.88278M865.763 1.68066L872.923 -7.53785M865.763 1.68066L859.963 -3.66809M872.923 -7.53785L877.114 -12.9344M872.923 -7.53785L867.827 -13.1479M877.114 -12.9344L881.712 -18.8545M877.114 -12.9344L874.623 -15.6264M845.685 13.5455L849.384 9.08602M849.384 9.08602L856.188 0.88278M849.384 9.08602L843.221 4.41354M856.188 0.88278L859.963 -3.66809M856.188 0.88278L850.322 -4.60641M859.963 -3.66809L867.827 -13.1479M859.963 -3.66809L854.82 -8.41169M867.827 -13.1479L871.245 -17.2685M867.827 -13.1479L867.779 -13.2M839.599 9.014L843.221 4.41354M843.221 4.41354L850.322 -4.60641M843.221 4.41354L837.769 0.280636M850.322 -4.60641L860.29 -17.2685M850.322 -4.60641L847.884 -6.88759M834 4.48254L837.769 0.280636M837.769 0.280636L854.935 -18.8545M837.769 0.280636L836.274 -0.853138M1005.15 43L1009.66 38.8609M1009.66 38.8609L1013.76 35.099M1009.66 38.8609L1014 42.1501M1009.66 38.8609L1005.13 35.4317M1013.76 35.099L1018.39 30.8469M1013.76 35.099L1017.55 38.6493M1013.76 35.099L1009.2 30.832M1018.39 30.8469L1024.06 25.641M1018.39 30.8469L1021.98 34.1604M1018.39 30.8469L1013.31 26.1672M1024.06 25.641L1029.34 20.8008M1024.06 25.641L1027.63 29.5642M1024.06 25.641L1018.85 19.9013M1029.34 20.8008L1034.57 15.9981M1029.34 20.8008L1033 24.764M1029.34 20.8008L1023.56 14.5625M1034.57 15.9981L1039.5 11.4779M1034.57 15.9981L1038.14 19.9852M1034.57 15.9981L1028.39 9.09664M1039.5 11.4779L1045.66 5.82497M1039.5 11.4779L1043.03 15.2279M1039.5 11.4779L1032.67 4.24722M1045.66 5.82497L1051.3 0.642605M1045.66 5.82497L1049.29 9.43965M1045.66 5.82497L1038 -1.78769M1051.3 0.642605L1056.34 -3.98235M1051.3 0.642605L1054.89 4.39242M1051.3 0.642605L1043.27 -7.75684M1056.34 -3.98235L1057.24 -4.80696M1056.34 -3.98235L1060 -0.611917M1056.34 -3.98235L1036.79 -22M1001.25 39.828L1005.13 35.4317M1005.13 35.4317L1009.2 30.832M1005.13 35.4317L1000.09 31.61M1009.2 30.832L1013.31 26.1672M1009.2 30.832L1004.62 26.5542M1013.31 26.1672L1018.85 19.9013M1013.31 26.1672L1008.75 21.9542M1018.85 19.9013L1023.56 14.5625M1018.85 19.9013L1014.69 15.3231M1023.56 14.5625L1028.39 9.09664M1023.56 14.5625L1019.4 10.0658M1028.39 9.09664L1032.67 4.24722M1028.39 9.09664L1024.33 4.56476M1032.67 4.24722L1038 -1.78769M1032.67 4.24722L1028.54 -0.131399M1038 -1.78769L1043.27 -7.75684M1038 -1.78769L1033.78 -5.98238M1043.27 -7.75684L1045.07 -9.79158M1043.27 -7.75684L1031.62 -19.9493M996.383 35.7496L1000.09 31.61M1000.09 31.61L1004.62 26.5542M1000.09 31.61L993.866 26.8891M1004.62 26.5542L1008.75 21.9542M1004.62 26.5542L998.436 20.7646M1008.75 21.9542L1014.69 15.3231M1008.75 21.9542L1002.11 15.8372M1014.69 15.3231L1019.4 10.0658M1014.69 15.3231L1008 7.95461M1019.4 10.0658L1024.33 4.56476M1019.4 10.0658L1012.21 2.30122M1024.33 4.56476L1028.54 -0.131399M1024.33 4.56476L1016.8 -3.84406M1028.54 -0.131399L1033.78 -5.98238M1028.54 -0.131399L1020.44 -8.71726M1033.78 -5.98238L1038.01 -10.6979M1033.78 -5.98238L1020.71 -18.9843M990.297 31.6713L993.866 26.8891M993.866 26.8891L998.436 20.7646M993.866 26.8891L988.129 22.5393M998.436 20.7646L1002.11 15.8372M998.436 20.7646L993.205 15.8693M1002.11 15.8372L1008 7.95461M1002.11 15.8372L996.893 11.0227M1008 7.95461L1012.21 2.30122M1008 7.95461L1003.22 2.70246M1012.21 2.30122L1016.8 -3.84406M1012.21 2.30122L1007.45 -2.8481M1016.8 -3.84406L1020.44 -8.71726M1016.8 -3.84406L1012.16 -9.0318M1020.44 -8.71726L1024.62 -14.323M1020.44 -8.71726L1015.72 -13.7162M984.455 27.3664L988.129 22.5393M988.129 22.5393L993.205 15.8693M988.129 22.5393L982.421 18.2121M993.205 15.8693L996.893 11.0227M993.205 15.8693L987.836 10.8458M996.893 11.0227L1003.22 2.70246M996.893 11.0227L991.418 5.97336M1003.22 2.70246L1007.45 -2.8481M1003.22 2.70246L998.028 -3.01868M1007.45 -2.8481L1012.16 -9.0318M1007.45 -2.8481L1002.13 -8.5969M1012.16 -9.0318L1015.72 -13.7162M1012.16 -9.0318L1006.82 -14.9846M1015.72 -13.7162L1017.56 -16.1356M1015.72 -13.7162L1010.2 -19.5706M978.856 23.0615L982.421 18.2121M982.421 18.2121L987.836 10.8458M982.421 18.2121L977.073 14.1573M987.836 10.8458L991.418 5.97336M987.836 10.8458L983.092 6.40707M991.418 5.97336L998.028 -3.01868M991.418 5.97336L986.763 1.68066M998.028 -3.01868L1002.13 -8.5969M998.028 -3.01868L993.923 -7.53785M1002.13 -8.5969L1006.82 -14.9846M1002.13 -8.5969L998.114 -12.9344M1006.82 -14.9846L1010.2 -19.5706M1006.82 -14.9846L1002.26 -20.0827M1010.2 -19.5706L1010.5 -19.9874M1010.2 -19.5706L1010.13 -19.6411M973.501 18.7567L977.073 14.1573M977.073 14.1573L983.092 6.40707M977.073 14.1573L970.384 9.08602M983.092 6.40707L986.763 1.68066M983.092 6.40707L977.188 0.88278M986.763 1.68066L993.923 -7.53785M986.763 1.68066L980.963 -3.66809M993.923 -7.53785L998.114 -12.9344M993.923 -7.53785L988.827 -13.1479M998.114 -12.9344L1002.71 -18.8545M998.114 -12.9344L995.623 -15.6264M966.685 13.5455L970.384 9.08602M970.384 9.08602L977.188 0.88278M970.384 9.08602L964.221 4.41354M977.188 0.88278L980.963 -3.66809M977.188 0.88278L971.322 -4.60641M980.963 -3.66809L988.827 -13.1479M980.963 -3.66809L975.82 -8.41169M988.827 -13.1479L992.245 -17.2685M988.827 -13.1479L988.779 -13.2M960.599 9.014L964.221 4.41354M964.221 4.41354L971.322 -4.60641M964.221 4.41354L958.769 0.280636M971.322 -4.60641L981.29 -17.2685M971.322 -4.60641L968.884 -6.88759M955 4.48254L958.769 0.280636M958.769 0.280636L975.935 -18.8545M958.769 0.280636L957.274 -0.853138M1126.15 43L1130.66 38.8609M1130.66 38.8609L1134.76 35.099M1130.66 38.8609L1135 42.1501M1130.66 38.8609L1126.13 35.4317M1134.76 35.099L1139.39 30.8469M1134.76 35.099L1138.55 38.6493M1134.76 35.099L1130.2 30.832M1139.39 30.8469L1145.06 25.641M1139.39 30.8469L1142.98 34.1604M1139.39 30.8469L1134.31 26.1672M1145.06 25.641L1150.34 20.8008M1145.06 25.641L1148.63 29.5642M1145.06 25.641L1139.85 19.9013M1150.34 20.8008L1155.57 15.9981M1150.34 20.8008L1154 24.764M1150.34 20.8008L1144.56 14.5625M1155.57 15.9981L1160.5 11.4779M1155.57 15.9981L1159.14 19.9852M1155.57 15.9981L1149.39 9.09664M1160.5 11.4779L1166.66 5.82497M1160.5 11.4779L1164.03 15.2279M1160.5 11.4779L1153.67 4.24722M1166.66 5.82497L1172.3 0.642605M1166.66 5.82497L1170.29 9.43965M1166.66 5.82497L1159 -1.78769M1172.3 0.642605L1177.34 -3.98235M1172.3 0.642605L1175.89 4.39242M1172.3 0.642605L1164.27 -7.75684M1177.34 -3.98235L1178.24 -4.80696M1177.34 -3.98235L1181 -0.611917M1177.34 -3.98235L1157.79 -22M1122.25 39.828L1126.13 35.4317M1126.13 35.4317L1130.2 30.832M1126.13 35.4317L1121.09 31.61M1130.2 30.832L1134.31 26.1672M1130.2 30.832L1125.62 26.5542M1134.31 26.1672L1139.85 19.9013M1134.31 26.1672L1129.75 21.9542M1139.85 19.9013L1144.56 14.5625M1139.85 19.9013L1135.69 15.3231M1144.56 14.5625L1149.39 9.09664M1144.56 14.5625L1140.4 10.0658M1149.39 9.09664L1153.67 4.24722M1149.39 9.09664L1145.33 4.56476M1153.67 4.24722L1159 -1.78769M1153.67 4.24722L1149.54 -0.131399M1159 -1.78769L1164.27 -7.75684M1159 -1.78769L1154.78 -5.98238M1164.27 -7.75684L1166.07 -9.79158M1164.27 -7.75684L1152.62 -19.9493M1117.38 35.7496L1121.09 31.61M1121.09 31.61L1125.62 26.5542M1121.09 31.61L1114.87 26.8891M1125.62 26.5542L1129.75 21.9542M1125.62 26.5542L1119.44 20.7646M1129.75 21.9542L1135.69 15.3231M1129.75 21.9542L1123.11 15.8372M1135.69 15.3231L1140.4 10.0658M1135.69 15.3231L1129 7.95461M1140.4 10.0658L1145.33 4.56476M1140.4 10.0658L1133.21 2.30122M1145.33 4.56476L1149.54 -0.131399M1145.33 4.56476L1137.8 -3.84406M1149.54 -0.131399L1154.78 -5.98238M1149.54 -0.131399L1141.44 -8.71726M1154.78 -5.98238L1159.01 -10.6979M1154.78 -5.98238L1141.71 -18.9843M1111.3 31.6713L1114.87 26.8891M1114.87 26.8891L1119.44 20.7646M1114.87 26.8891L1109.13 22.5393M1119.44 20.7646L1123.11 15.8372M1119.44 20.7646L1114.2 15.8693M1123.11 15.8372L1129 7.95461M1123.11 15.8372L1117.89 11.0227M1129 7.95461L1133.21 2.30122M1129 7.95461L1124.22 2.70246M1133.21 2.30122L1137.8 -3.84406M1133.21 2.30122L1128.45 -2.8481M1137.8 -3.84406L1141.44 -8.71726M1137.8 -3.84406L1133.16 -9.0318M1141.44 -8.71726L1145.62 -14.323M1141.44 -8.71726L1136.72 -13.7162M1105.45 27.3664L1109.13 22.5393M1109.13 22.5393L1114.2 15.8693M1109.13 22.5393L1103.42 18.2121M1114.2 15.8693L1117.89 11.0227M1114.2 15.8693L1108.84 10.8458M1117.89 11.0227L1124.22 2.70246M1117.89 11.0227L1112.42 5.97336M1124.22 2.70246L1128.45 -2.8481M1124.22 2.70246L1119.03 -3.01868M1128.45 -2.8481L1133.16 -9.0318M1128.45 -2.8481L1123.13 -8.5969M1133.16 -9.0318L1136.72 -13.7162M1133.16 -9.0318L1127.82 -14.9846M1136.72 -13.7162L1138.56 -16.1356M1136.72 -13.7162L1131.2 -19.5706M1099.86 23.0615L1103.42 18.2121M1103.42 18.2121L1108.84 10.8458M1103.42 18.2121L1098.07 14.1573M1108.84 10.8458L1112.42 5.97336M1108.84 10.8458L1104.09 6.40707M1112.42 5.97336L1119.03 -3.01868M1112.42 5.97336L1107.76 1.68066M1119.03 -3.01868L1123.13 -8.5969M1119.03 -3.01868L1114.92 -7.53785M1123.13 -8.5969L1127.82 -14.9846M1123.13 -8.5969L1119.11 -12.9344M1127.82 -14.9846L1131.2 -19.5706M1127.82 -14.9846L1123.26 -20.0827M1131.2 -19.5706L1131.5 -19.9874M1131.2 -19.5706L1131.13 -19.6411M1094.5 18.7567L1098.07 14.1573M1098.07 14.1573L1104.09 6.40707M1098.07 14.1573L1091.38 9.08602M1104.09 6.40707L1107.76 1.68066M1104.09 6.40707L1098.19 0.88278M1107.76 1.68066L1114.92 -7.53785M1107.76 1.68066L1101.96 -3.66809M1114.92 -7.53785L1119.11 -12.9344M1114.92 -7.53785L1109.83 -13.1479M1119.11 -12.9344L1123.71 -18.8545M1119.11 -12.9344L1116.62 -15.6264M1087.68 13.5455L1091.38 9.08602M1091.38 9.08602L1098.19 0.88278M1091.38 9.08602L1085.22 4.41354M1098.19 0.88278L1101.96 -3.66809M1098.19 0.88278L1092.32 -4.60641M1101.96 -3.66809L1109.83 -13.1479M1101.96 -3.66809L1096.82 -8.41169M1109.83 -13.1479L1113.24 -17.2685M1109.83 -13.1479L1109.78 -13.2M1081.6 9.014L1085.22 4.41354M1085.22 4.41354L1092.32 -4.60641M1085.22 4.41354L1079.77 0.280636M1092.32 -4.60641L1102.29 -17.2685M1092.32 -4.60641L1089.88 -6.88759M1076 4.48254L1079.77 0.280636M1079.77 0.280636L1096.93 -18.8545M1079.77 0.280636L1078.27 -0.853138M1247.15 43L1251.66 38.8609M1251.66 38.8609L1255.76 35.099M1251.66 38.8609L1256 42.1501M1251.66 38.8609L1247.13 35.4317M1255.76 35.099L1260.39 30.8469M1255.76 35.099L1259.55 38.6493M1255.76 35.099L1251.2 30.832M1260.39 30.8469L1266.06 25.641M1260.39 30.8469L1263.98 34.1604M1260.39 30.8469L1255.31 26.1672M1266.06 25.641L1271.34 20.8008M1266.06 25.641L1269.63 29.5642M1266.06 25.641L1260.85 19.9013M1271.34 20.8008L1276.57 15.9981M1271.34 20.8008L1275 24.764M1271.34 20.8008L1265.56 14.5625M1276.57 15.9981L1281.5 11.4779M1276.57 15.9981L1280.14 19.9852M1276.57 15.9981L1270.39 9.09664M1281.5 11.4779L1287.66 5.82497M1281.5 11.4779L1285.03 15.2279M1281.5 11.4779L1274.67 4.24722M1287.66 5.82497L1293.3 0.642605M1287.66 5.82497L1291.29 9.43965M1287.66 5.82497L1280 -1.78769M1293.3 0.642605L1298.34 -3.98235M1293.3 0.642605L1296.89 4.39242M1293.3 0.642605L1285.27 -7.75684M1298.34 -3.98235L1299.24 -4.80696M1298.34 -3.98235L1302 -0.611917M1298.34 -3.98235L1278.79 -22M1243.25 39.828L1247.13 35.4317M1247.13 35.4317L1251.2 30.832M1247.13 35.4317L1242.09 31.61M1251.2 30.832L1255.31 26.1672M1251.2 30.832L1246.62 26.5542M1255.31 26.1672L1260.85 19.9013M1255.31 26.1672L1250.75 21.9542M1260.85 19.9013L1265.56 14.5625M1260.85 19.9013L1256.69 15.3231M1265.56 14.5625L1270.39 9.09664M1265.56 14.5625L1261.4 10.0658M1270.39 9.09664L1274.67 4.24722M1270.39 9.09664L1266.33 4.56476M1274.67 4.24722L1280 -1.78769M1274.67 4.24722L1270.54 -0.131399M1280 -1.78769L1285.27 -7.75684M1280 -1.78769L1275.78 -5.98238M1285.27 -7.75684L1287.07 -9.79158M1285.27 -7.75684L1273.62 -19.9493M1238.38 35.7496L1242.09 31.61M1242.09 31.61L1246.62 26.5542M1242.09 31.61L1235.87 26.8891M1246.62 26.5542L1250.75 21.9542M1246.62 26.5542L1240.44 20.7646M1250.75 21.9542L1256.69 15.3231M1250.75 21.9542L1244.11 15.8372M1256.69 15.3231L1261.4 10.0658M1256.69 15.3231L1250 7.95461M1261.4 10.0658L1266.33 4.56476M1261.4 10.0658L1254.21 2.30122M1266.33 4.56476L1270.54 -0.131399M1266.33 4.56476L1258.8 -3.84406M1270.54 -0.131399L1275.78 -5.98238M1270.54 -0.131399L1262.44 -8.71726M1275.78 -5.98238L1280.01 -10.6979M1275.78 -5.98238L1262.71 -18.9843M1232.3 31.6713L1235.87 26.8891M1235.87 26.8891L1240.44 20.7646M1235.87 26.8891L1230.13 22.5393M1240.44 20.7646L1244.11 15.8372M1240.44 20.7646L1235.2 15.8693M1244.11 15.8372L1250 7.95461M1244.11 15.8372L1238.89 11.0227M1250 7.95461L1254.21 2.30122M1250 7.95461L1245.22 2.70246M1254.21 2.30122L1258.8 -3.84406M1254.21 2.30122L1249.45 -2.8481M1258.8 -3.84406L1262.44 -8.71726M1258.8 -3.84406L1254.16 -9.0318M1262.44 -8.71726L1266.62 -14.323M1262.44 -8.71726L1257.72 -13.7162M1226.45 27.3664L1230.13 22.5393M1230.13 22.5393L1235.2 15.8693M1230.13 22.5393L1224.42 18.2121M1235.2 15.8693L1238.89 11.0227M1235.2 15.8693L1229.84 10.8458M1238.89 11.0227L1245.22 2.70246M1238.89 11.0227L1233.42 5.97336M1245.22 2.70246L1249.45 -2.8481M1245.22 2.70246L1240.03 -3.01868M1249.45 -2.8481L1254.16 -9.0318M1249.45 -2.8481L1244.13 -8.5969M1254.16 -9.0318L1257.72 -13.7162M1254.16 -9.0318L1248.82 -14.9846M1257.72 -13.7162L1259.56 -16.1356M1257.72 -13.7162L1252.2 -19.5706M1220.86 23.0615L1224.42 18.2121M1224.42 18.2121L1229.84 10.8458M1224.42 18.2121L1219.07 14.1573M1229.84 10.8458L1233.42 5.97336M1229.84 10.8458L1225.09 6.40707M1233.42 5.97336L1240.03 -3.01868M1233.42 5.97336L1228.76 1.68066M1240.03 -3.01868L1244.13 -8.5969M1240.03 -3.01868L1235.92 -7.53785M1244.13 -8.5969L1248.82 -14.9846M1244.13 -8.5969L1240.11 -12.9344M1248.82 -14.9846L1252.2 -19.5706M1248.82 -14.9846L1244.26 -20.0827M1252.2 -19.5706L1252.5 -19.9874M1252.2 -19.5706L1252.13 -19.6411M1215.5 18.7567L1219.07 14.1573M1219.07 14.1573L1225.09 6.40707M1219.07 14.1573L1212.38 9.08602M1225.09 6.40707L1228.76 1.68066M1225.09 6.40707L1219.19 0.88278M1228.76 1.68066L1235.92 -7.53785M1228.76 1.68066L1222.96 -3.66809M1235.92 -7.53785L1240.11 -12.9344M1235.92 -7.53785L1230.83 -13.1479M1240.11 -12.9344L1244.71 -18.8545M1240.11 -12.9344L1237.62 -15.6264M1208.68 13.5455L1212.38 9.08602M1212.38 9.08602L1219.19 0.88278M1212.38 9.08602L1206.22 4.41354M1219.19 0.88278L1222.96 -3.66809M1219.19 0.88278L1213.32 -4.60641M1222.96 -3.66809L1230.83 -13.1479M1222.96 -3.66809L1217.82 -8.41169M1230.83 -13.1479L1234.24 -17.2685M1230.83 -13.1479L1230.78 -13.2M1202.6 9.014L1206.22 4.41354M1206.22 4.41354L1213.32 -4.60641M1206.22 4.41354L1200.77 0.280636M1213.32 -4.60641L1223.29 -17.2685M1213.32 -4.60641L1210.88 -6.88759M1197 4.48254L1200.77 0.280636M1200.77 0.280636L1217.93 -18.8545M1200.77 0.280636L1199.27 -0.853138M1368.15 43L1372.66 38.8609M1372.66 38.8609L1376.76 35.099M1372.66 38.8609L1377 42.1501M1372.66 38.8609L1368.13 35.4317M1376.76 35.099L1381.39 30.8469M1376.76 35.099L1380.55 38.6493M1376.76 35.099L1372.2 30.832M1381.39 30.8469L1387.06 25.641M1381.39 30.8469L1384.98 34.1604M1381.39 30.8469L1376.31 26.1672M1387.06 25.641L1392.34 20.8008M1387.06 25.641L1390.63 29.5642M1387.06 25.641L1381.85 19.9013M1392.34 20.8008L1397.57 15.9981M1392.34 20.8008L1396 24.764M1392.34 20.8008L1386.56 14.5625M1397.57 15.9981L1402.5 11.4779M1397.57 15.9981L1401.14 19.9852M1397.57 15.9981L1391.39 9.09664M1402.5 11.4779L1408.66 5.82497M1402.5 11.4779L1406.03 15.2279M1402.5 11.4779L1395.67 4.24722M1408.66 5.82497L1414.3 0.642605M1408.66 5.82497L1412.29 9.43965M1408.66 5.82497L1401 -1.78769M1414.3 0.642605L1419.34 -3.98235M1414.3 0.642605L1417.89 4.39242M1414.3 0.642605L1406.27 -7.75684M1419.34 -3.98235L1420.24 -4.80696M1419.34 -3.98235L1423 -0.611917M1419.34 -3.98235L1399.79 -22M1364.25 39.828L1368.13 35.4317M1368.13 35.4317L1372.2 30.832M1368.13 35.4317L1363.09 31.61M1372.2 30.832L1376.31 26.1672M1372.2 30.832L1367.62 26.5542M1376.31 26.1672L1381.85 19.9013M1376.31 26.1672L1371.75 21.9542M1381.85 19.9013L1386.56 14.5625M1381.85 19.9013L1377.69 15.3231M1386.56 14.5625L1391.39 9.09664M1386.56 14.5625L1382.4 10.0658M1391.39 9.09664L1395.67 4.24722M1391.39 9.09664L1387.33 4.56476M1395.67 4.24722L1401 -1.78769M1395.67 4.24722L1391.54 -0.131399M1401 -1.78769L1406.27 -7.75684M1401 -1.78769L1396.78 -5.98238M1406.27 -7.75684L1408.07 -9.79158M1406.27 -7.75684L1394.62 -19.9493M1359.38 35.7496L1363.09 31.61M1363.09 31.61L1367.62 26.5542M1363.09 31.61L1356.87 26.8891M1367.62 26.5542L1371.75 21.9542M1367.62 26.5542L1361.44 20.7646M1371.75 21.9542L1377.69 15.3231M1371.75 21.9542L1365.11 15.8372M1377.69 15.3231L1382.4 10.0658M1377.69 15.3231L1371 7.95461M1382.4 10.0658L1387.33 4.56476M1382.4 10.0658L1375.21 2.30122M1387.33 4.56476L1391.54 -0.131399M1387.33 4.56476L1379.8 -3.84406M1391.54 -0.131399L1396.78 -5.98238M1391.54 -0.131399L1383.44 -8.71726M1396.78 -5.98238L1401.01 -10.6979M1396.78 -5.98238L1383.71 -18.9843M1353.3 31.6713L1356.87 26.8891M1356.87 26.8891L1361.44 20.7646M1356.87 26.8891L1351.13 22.5393M1361.44 20.7646L1365.11 15.8372M1361.44 20.7646L1356.2 15.8693M1365.11 15.8372L1371 7.95461M1365.11 15.8372L1359.89 11.0227M1371 7.95461L1375.21 2.30122M1371 7.95461L1366.22 2.70246M1375.21 2.30122L1379.8 -3.84406M1375.21 2.30122L1370.45 -2.8481M1379.8 -3.84406L1383.44 -8.71726M1379.8 -3.84406L1375.16 -9.0318M1383.44 -8.71726L1387.62 -14.323M1383.44 -8.71726L1378.72 -13.7162M1347.45 27.3664L1351.13 22.5393M1351.13 22.5393L1356.2 15.8693M1351.13 22.5393L1345.42 18.2121M1356.2 15.8693L1359.89 11.0227M1356.2 15.8693L1350.84 10.8458M1359.89 11.0227L1366.22 2.70246M1359.89 11.0227L1354.42 5.97336M1366.22 2.70246L1370.45 -2.8481M1366.22 2.70246L1361.03 -3.01868M1370.45 -2.8481L1375.16 -9.0318M1370.45 -2.8481L1365.13 -8.5969M1375.16 -9.0318L1378.72 -13.7162M1375.16 -9.0318L1369.82 -14.9846M1378.72 -13.7162L1380.56 -16.1356M1378.72 -13.7162L1373.2 -19.5706M1341.86 23.0615L1345.42 18.2121M1345.42 18.2121L1350.84 10.8458M1345.42 18.2121L1340.07 14.1573M1350.84 10.8458L1354.42 5.97336M1350.84 10.8458L1346.09 6.40707M1354.42 5.97336L1361.03 -3.01868M1354.42 5.97336L1349.76 1.68066M1361.03 -3.01868L1365.13 -8.5969M1361.03 -3.01868L1356.92 -7.53785M1365.13 -8.5969L1369.82 -14.9846M1365.13 -8.5969L1361.11 -12.9344M1369.82 -14.9846L1373.2 -19.5706M1369.82 -14.9846L1365.26 -20.0827M1373.2 -19.5706L1373.5 -19.9874M1373.2 -19.5706L1373.13 -19.6411M1336.5 18.7567L1340.07 14.1573M1340.07 14.1573L1346.09 6.40707M1340.07 14.1573L1333.38 9.08602M1346.09 6.40707L1349.76 1.68066M1346.09 6.40707L1340.19 0.88278M1349.76 1.68066L1356.92 -7.53785M1349.76 1.68066L1343.96 -3.66809M1356.92 -7.53785L1361.11 -12.9344M1356.92 -7.53785L1351.83 -13.1479M1361.11 -12.9344L1365.71 -18.8545M1361.11 -12.9344L1358.62 -15.6264M1329.68 13.5455L1333.38 9.08602M1333.38 9.08602L1340.19 0.88278M1333.38 9.08602L1327.22 4.41354M1340.19 0.88278L1343.96 -3.66809M1340.19 0.88278L1334.32 -4.60641M1343.96 -3.66809L1351.83 -13.1479M1343.96 -3.66809L1338.82 -8.41169M1351.83 -13.1479L1355.24 -17.2685M1351.83 -13.1479L1351.78 -13.2M1323.6 9.014L1327.22 4.41354M1327.22 4.41354L1334.32 -4.60641M1327.22 4.41354L1321.77 0.280636M1334.32 -4.60641L1344.29 -17.2685M1334.32 -4.60641L1331.88 -6.88759M1318 4.48254L1321.77 0.280636M1321.77 0.280636L1338.93 -18.8545M1321.77 0.280636L1320.27 -0.853138M1489.15 43L1493.66 38.8609M1493.66 38.8609L1497.76 35.099M1493.66 38.8609L1498 42.1501M1493.66 38.8609L1489.13 35.4317M1497.76 35.099L1502.39 30.8469M1497.76 35.099L1501.55 38.6493M1497.76 35.099L1493.2 30.832M1502.39 30.8469L1508.06 25.641M1502.39 30.8469L1505.98 34.1604M1502.39 30.8469L1497.31 26.1672M1508.06 25.641L1513.34 20.8008M1508.06 25.641L1511.63 29.5642M1508.06 25.641L1502.85 19.9013M1513.34 20.8008L1518.57 15.9981M1513.34 20.8008L1517 24.764M1513.34 20.8008L1507.56 14.5625M1518.57 15.9981L1523.5 11.4779M1518.57 15.9981L1522.14 19.9852M1518.57 15.9981L1512.39 9.09664M1523.5 11.4779L1529.66 5.82497M1523.5 11.4779L1527.03 15.2279M1523.5 11.4779L1516.67 4.24722M1529.66 5.82497L1535.3 0.642605M1529.66 5.82497L1533.29 9.43965M1529.66 5.82497L1522 -1.78769M1535.3 0.642605L1540.34 -3.98235M1535.3 0.642605L1538.89 4.39242M1535.3 0.642605L1527.27 -7.75684M1540.34 -3.98235L1541.24 -4.80696M1540.34 -3.98235L1544 -0.611917M1540.34 -3.98235L1520.79 -22M1485.25 39.828L1489.13 35.4317M1489.13 35.4317L1493.2 30.832M1489.13 35.4317L1484.09 31.61M1493.2 30.832L1497.31 26.1672M1493.2 30.832L1488.62 26.5542M1497.31 26.1672L1502.85 19.9013M1497.31 26.1672L1492.75 21.9542M1502.85 19.9013L1507.56 14.5625M1502.85 19.9013L1498.69 15.3231M1507.56 14.5625L1512.39 9.09664M1507.56 14.5625L1503.4 10.0658M1512.39 9.09664L1516.67 4.24722M1512.39 9.09664L1508.33 4.56476M1516.67 4.24722L1522 -1.78769M1516.67 4.24722L1512.54 -0.131399M1522 -1.78769L1527.27 -7.75684M1522 -1.78769L1517.78 -5.98238M1527.27 -7.75684L1529.07 -9.79158M1527.27 -7.75684L1515.62 -19.9493M1480.38 35.7496L1484.09 31.61M1484.09 31.61L1488.62 26.5542M1484.09 31.61L1477.87 26.8891M1488.62 26.5542L1492.75 21.9542M1488.62 26.5542L1482.44 20.7646M1492.75 21.9542L1498.69 15.3231M1492.75 21.9542L1486.11 15.8372M1498.69 15.3231L1503.4 10.0658M1498.69 15.3231L1492 7.95461M1503.4 10.0658L1508.33 4.56476M1503.4 10.0658L1496.21 2.30122M1508.33 4.56476L1512.54 -0.131399M1508.33 4.56476L1500.8 -3.84406M1512.54 -0.131399L1517.78 -5.98238M1512.54 -0.131399L1504.44 -8.71726M1517.78 -5.98238L1522.01 -10.6979M1517.78 -5.98238L1504.71 -18.9843M1474.3 31.6713L1477.87 26.8891M1477.87 26.8891L1482.44 20.7646M1477.87 26.8891L1472.13 22.5393M1482.44 20.7646L1486.11 15.8372M1482.44 20.7646L1477.2 15.8693M1486.11 15.8372L1492 7.95461M1486.11 15.8372L1480.89 11.0227M1492 7.95461L1496.21 2.30122M1492 7.95461L1487.22 2.70246M1496.21 2.30122L1500.8 -3.84406M1496.21 2.30122L1491.45 -2.8481M1500.8 -3.84406L1504.44 -8.71726M1500.8 -3.84406L1496.16 -9.0318M1504.44 -8.71726L1508.62 -14.323M1504.44 -8.71726L1499.72 -13.7162M1468.45 27.3664L1472.13 22.5393M1472.13 22.5393L1477.2 15.8693M1472.13 22.5393L1466.42 18.2121M1477.2 15.8693L1480.89 11.0227M1477.2 15.8693L1471.84 10.8458M1480.89 11.0227L1487.22 2.70246M1480.89 11.0227L1475.42 5.97336M1487.22 2.70246L1491.45 -2.8481M1487.22 2.70246L1482.03 -3.01868M1491.45 -2.8481L1496.16 -9.0318M1491.45 -2.8481L1486.13 -8.5969M1496.16 -9.0318L1499.72 -13.7162M1496.16 -9.0318L1490.82 -14.9846M1499.72 -13.7162L1501.56 -16.1356M1499.72 -13.7162L1494.2 -19.5706M1462.86 23.0615L1466.42 18.2121M1466.42 18.2121L1471.84 10.8458M1466.42 18.2121L1461.07 14.1573M1471.84 10.8458L1475.42 5.97336M1471.84 10.8458L1467.09 6.40707M1475.42 5.97336L1482.03 -3.01868M1475.42 5.97336L1470.76 1.68066M1482.03 -3.01868L1486.13 -8.5969M1482.03 -3.01868L1477.92 -7.53785M1486.13 -8.5969L1490.82 -14.9846M1486.13 -8.5969L1482.11 -12.9344M1490.82 -14.9846L1494.2 -19.5706M1490.82 -14.9846L1486.26 -20.0827M1494.2 -19.5706L1494.5 -19.9874M1494.2 -19.5706L1494.13 -19.6411M1457.5 18.7567L1461.07 14.1573M1461.07 14.1573L1467.09 6.40707M1461.07 14.1573L1454.38 9.08602M1467.09 6.40707L1470.76 1.68066M1467.09 6.40707L1461.19 0.88278M1470.76 1.68066L1477.92 -7.53785M1470.76 1.68066L1464.96 -3.66809M1477.92 -7.53785L1482.11 -12.9344M1477.92 -7.53785L1472.83 -13.1479M1482.11 -12.9344L1486.71 -18.8545M1482.11 -12.9344L1479.62 -15.6264M1450.68 13.5455L1454.38 9.08602M1454.38 9.08602L1461.19 0.88278M1454.38 9.08602L1448.22 4.41354M1461.19 0.88278L1464.96 -3.66809M1461.19 0.88278L1455.32 -4.60641M1464.96 -3.66809L1472.83 -13.1479M1464.96 -3.66809L1459.82 -8.41169M1472.83 -13.1479L1476.24 -17.2685M1472.83 -13.1479L1472.78 -13.2M1444.6 9.014L1448.22 4.41354M1448.22 4.41354L1455.32 -4.60641M1448.22 4.41354L1442.77 0.280636M1455.32 -4.60641L1465.29 -17.2685M1455.32 -4.60641L1452.88 -6.88759M1439 4.48254L1442.77 0.280636M1442.77 0.280636L1459.93 -18.8545M1442.77 0.280636L1441.27 -0.853138" stroke="white" stroke-linecap="round"/>
<path d="M65.0325 26.9458C65.4858 25.3227 68.2675 26.4915 68.2675 26.4915C68.2675 26.4915 66.5661 23.5354 68.229 23.1636C69.8918 22.7918 70.1831 25.7523 70.1831 25.7523C70.1831 25.7523 71.6965 22.6663 72.9342 23.8963C74.172 25.1264 71.6959 26.9956 71.6959 26.9956C71.6959 26.9956 74.9595 26.6963 74.725 28.3752C74.4905 30.0541 71.4056 28.8932 71.4056 28.8932C71.4056 28.8932 73.3115 31.8275 71.5923 32.2418C69.8732 32.6562 69.617 29.625 69.617 29.625C69.617 29.625 68.4763 32.3855 67.0002 31.6004C65.524 30.8153 67.9985 28.4173 67.9985 28.4173C67.9985 28.4173 64.5793 28.569 65.0325 26.9458Z" fill="white"/>
<path d="M70.4382 28.4309C70.0342 28.7359 69.4594 28.6556 69.1544 28.2515C68.8494 27.8475 68.9297 27.2727 69.3337 26.9677C69.7377 26.6627 70.3125 26.743 70.6175 27.147C70.9225 27.5511 70.8423 28.1259 70.4382 28.4309Z" fill="white"/>
<path d="M186.033 26.9458C186.486 25.3227 189.268 26.4915 189.268 26.4915C189.268 26.4915 187.566 23.5354 189.229 23.1636C190.892 22.7918 191.183 25.7523 191.183 25.7523C191.183 25.7523 192.696 22.6663 193.934 23.8963C195.172 25.1264 192.696 26.9956 192.696 26.9956C192.696 26.9956 195.96 26.6963 195.725 28.3752C195.491 30.0541 192.406 28.8932 192.406 28.8932C192.406 28.8932 194.311 31.8275 192.592 32.2418C190.873 32.6562 190.617 29.625 190.617 29.625C190.617 29.625 189.476 32.3855 188 31.6004C186.524 30.8153 188.999 28.4173 188.999 28.4173C188.999 28.4173 185.579 28.569 186.033 26.9458Z" fill="white"/>
<path d="M191.438 28.4309C191.034 28.7359 190.459 28.6556 190.154 28.2515C189.849 27.8475 189.93 27.2727 190.334 26.9677C190.738 26.6627 191.313 26.743 191.618 27.147C191.923 27.5511 191.842 28.1259 191.438 28.4309Z" fill="white"/>
<path d="M307.033 26.9458C307.486 25.3227 310.268 26.4915 310.268 26.4915C310.268 26.4915 308.566 23.5354 310.229 23.1636C311.892 22.7918 312.183 25.7523 312.183 25.7523C312.183 25.7523 313.696 22.6663 314.934 23.8963C316.172 25.1264 313.696 26.9956 313.696 26.9956C313.696 26.9956 316.96 26.6963 316.725 28.3752C316.491 30.0541 313.406 28.8932 313.406 28.8932C313.406 28.8932 315.311 31.8275 313.592 32.2418C311.873 32.6562 311.617 29.625 311.617 29.625C311.617 29.625 310.476 32.3855 309 31.6004C307.524 30.8153 309.999 28.4173 309.999 28.4173C309.999 28.4173 306.579 28.569 307.033 26.9458Z" fill="white"/>
<path d="M312.438 28.4309C312.034 28.7359 311.459 28.6556 311.154 28.2515C310.849 27.8475 310.93 27.2727 311.334 26.9677C311.738 26.6627 312.313 26.743 312.618 27.147C312.923 27.5511 312.842 28.1259 312.438 28.4309Z" fill="white"/>
<path d="M428.033 26.9458C428.486 25.3227 431.268 26.4915 431.268 26.4915C431.268 26.4915 429.566 23.5354 431.229 23.1636C432.892 22.7918 433.183 25.7523 433.183 25.7523C433.183 25.7523 434.696 22.6663 435.934 23.8963C437.172 25.1264 434.696 26.9956 434.696 26.9956C434.696 26.9956 437.96 26.6963 437.725 28.3752C437.491 30.0541 434.406 28.8932 434.406 28.8932C434.406 28.8932 436.311 31.8275 434.592 32.2418C432.873 32.6562 432.617 29.625 432.617 29.625C432.617 29.625 431.476 32.3855 430 31.6004C428.524 30.8153 430.999 28.4173 430.999 28.4173C430.999 28.4173 427.579 28.569 428.033 26.9458Z" fill="white"/>
<path d="M433.438 28.4309C433.034 28.7359 432.459 28.6556 432.154 28.2515C431.849 27.8475 431.93 27.2727 432.334 26.9677C432.738 26.6627 433.313 26.743 433.618 27.147C433.923 27.5511 433.842 28.1259 433.438 28.4309Z" fill="white"/>
<path d="M549.033 26.9458C549.486 25.3227 552.268 26.4915 552.268 26.4915C552.268 26.4915 550.566 23.5354 552.229 23.1636C553.892 22.7918 554.183 25.7523 554.183 25.7523C554.183 25.7523 555.697 22.6663 556.934 23.8963C558.172 25.1264 555.696 26.9956 555.696 26.9956C555.696 26.9956 558.96 26.6963 558.725 28.3752C558.491 30.0541 555.406 28.8932 555.406 28.8932C555.406 28.8932 557.311 31.8275 555.592 32.2418C553.873 32.6562 553.617 29.625 553.617 29.625C553.617 29.625 552.476 32.3855 551 31.6004C549.524 30.8153 551.999 28.4173 551.999 28.4173C551.999 28.4173 548.579 28.569 549.033 26.9458Z" fill="white"/>
<path d="M554.438 28.4309C554.034 28.7359 553.459 28.6556 553.154 28.2515C552.849 27.8475 552.93 27.2727 553.334 26.9677C553.738 26.6627 554.313 26.743 554.618 27.147C554.923 27.5511 554.842 28.1259 554.438 28.4309Z" fill="white"/>
<path d="M670.033 26.9458C670.486 25.3227 673.268 26.4915 673.268 26.4915C673.268 26.4915 671.566 23.5354 673.229 23.1636C674.892 22.7918 675.183 25.7523 675.183 25.7523C675.183 25.7523 676.697 22.6663 677.934 23.8963C679.172 25.1264 676.696 26.9956 676.696 26.9956C676.696 26.9956 679.96 26.6963 679.725 28.3752C679.491 30.0541 676.406 28.8932 676.406 28.8932C676.406 28.8932 678.311 31.8275 676.592 32.2418C674.873 32.6562 674.617 29.625 674.617 29.625C674.617 29.625 673.476 32.3855 672 31.6004C670.524 30.8153 672.999 28.4173 672.999 28.4173C672.999 28.4173 669.579 28.569 670.033 26.9458Z" fill="white"/>
<path d="M675.438 28.4309C675.034 28.7359 674.459 28.6556 674.154 28.2515C673.849 27.8475 673.93 27.2727 674.334 26.9677C674.738 26.6627 675.313 26.743 675.618 27.147C675.923 27.5511 675.842 28.1259 675.438 28.4309Z" fill="white"/>
<path d="M791.033 26.9458C791.486 25.3227 794.268 26.4915 794.268 26.4915C794.268 26.4915 792.566 23.5354 794.229 23.1636C795.892 22.7918 796.183 25.7523 796.183 25.7523C796.183 25.7523 797.697 22.6663 798.934 23.8963C800.172 25.1264 797.696 26.9956 797.696 26.9956C797.696 26.9956 800.96 26.6963 800.725 28.3752C800.491 30.0541 797.406 28.8932 797.406 28.8932C797.406 28.8932 799.311 31.8275 797.592 32.2418C795.873 32.6562 795.617 29.625 795.617 29.625C795.617 29.625 794.476 32.3855 793 31.6004C791.524 30.8153 793.999 28.4173 793.999 28.4173C793.999 28.4173 790.579 28.569 791.033 26.9458Z" fill="white"/>
<path d="M796.438 28.4309C796.034 28.7359 795.459 28.6556 795.154 28.2515C794.849 27.8475 794.93 27.2727 795.334 26.9677C795.738 26.6627 796.313 26.743 796.618 27.147C796.923 27.5511 796.842 28.1259 796.438 28.4309Z" fill="white"/>
<path d="M912.033 26.9458C912.486 25.3227 915.268 26.4915 915.268 26.4915C915.268 26.4915 913.566 23.5354 915.229 23.1636C916.892 22.7918 917.183 25.7523 917.183 25.7523C917.183 25.7523 918.697 22.6663 919.934 23.8963C921.172 25.1264 918.696 26.9956 918.696 26.9956C918.696 26.9956 921.96 26.6963 921.725 28.3752C921.491 30.0541 918.406 28.8932 918.406 28.8932C918.406 28.8932 920.311 31.8275 918.592 32.2418C916.873 32.6562 916.617 29.625 916.617 29.625C916.617 29.625 915.476 32.3855 914 31.6004C912.524 30.8153 914.999 28.4173 914.999 28.4173C914.999 28.4173 911.579 28.569 912.033 26.9458Z" fill="white"/>
<path d="M917.438 28.4309C917.034 28.7359 916.459 28.6556 916.154 28.2515C915.849 27.8475 915.93 27.2727 916.334 26.9677C916.738 26.6627 917.313 26.743 917.618 27.147C917.923 27.5511 917.842 28.1259 917.438 28.4309Z" fill="white"/>
<path d="M1033.03 26.9458C1033.49 25.3227 1036.27 26.4915 1036.27 26.4915C1036.27 26.4915 1034.57 23.5354 1036.23 23.1636C1037.89 22.7918 1038.18 25.7523 1038.18 25.7523C1038.18 25.7523 1039.7 22.6663 1040.93 23.8963C1042.17 25.1264 1039.7 26.9956 1039.7 26.9956C1039.7 26.9956 1042.96 26.6963 1042.73 28.3752C1042.49 30.0541 1039.41 28.8932 1039.41 28.8932C1039.41 28.8932 1041.31 31.8275 1039.59 32.2418C1037.87 32.6562 1037.62 29.625 1037.62 29.625C1037.62 29.625 1036.48 32.3855 1035 31.6004C1033.52 30.8153 1036 28.4173 1036 28.4173C1036 28.4173 1032.58 28.569 1033.03 26.9458Z" fill="white"/>
<path d="M1038.44 28.4309C1038.03 28.7359 1037.46 28.6556 1037.15 28.2515C1036.85 27.8475 1036.93 27.2727 1037.33 26.9677C1037.74 26.6627 1038.31 26.743 1038.62 27.147C1038.92 27.5511 1038.84 28.1259 1038.44 28.4309Z" fill="white"/>
<path d="M1154.03 26.9458C1154.49 25.3227 1157.27 26.4915 1157.27 26.4915C1157.27 26.4915 1155.57 23.5354 1157.23 23.1636C1158.89 22.7918 1159.18 25.7523 1159.18 25.7523C1159.18 25.7523 1160.7 22.6663 1161.93 23.8963C1163.17 25.1264 1160.7 26.9956 1160.7 26.9956C1160.7 26.9956 1163.96 26.6963 1163.73 28.3752C1163.49 30.0541 1160.41 28.8932 1160.41 28.8932C1160.41 28.8932 1162.31 31.8275 1160.59 32.2418C1158.87 32.6562 1158.62 29.625 1158.62 29.625C1158.62 29.625 1157.48 32.3855 1156 31.6004C1154.52 30.8153 1157 28.4173 1157 28.4173C1157 28.4173 1153.58 28.569 1154.03 26.9458Z" fill="white"/>
<path d="M1159.44 28.4309C1159.03 28.7359 1158.46 28.6556 1158.15 28.2515C1157.85 27.8475 1157.93 27.2727 1158.33 26.9677C1158.74 26.6627 1159.31 26.743 1159.62 27.147C1159.92 27.5511 1159.84 28.1259 1159.44 28.4309Z" fill="white"/>
<path d="M1275.03 26.9458C1275.49 25.3227 1278.27 26.4915 1278.27 26.4915C1278.27 26.4915 1276.57 23.5354 1278.23 23.1636C1279.89 22.7918 1280.18 25.7523 1280.18 25.7523C1280.18 25.7523 1281.7 22.6663 1282.93 23.8963C1284.17 25.1264 1281.7 26.9956 1281.7 26.9956C1281.7 26.9956 1284.96 26.6963 1284.73 28.3752C1284.49 30.0541 1281.41 28.8932 1281.41 28.8932C1281.41 28.8932 1283.31 31.8275 1281.59 32.2418C1279.87 32.6562 1279.62 29.625 1279.62 29.625C1279.62 29.625 1278.48 32.3855 1277 31.6004C1275.52 30.8153 1278 28.4173 1278 28.4173C1278 28.4173 1274.58 28.569 1275.03 26.9458Z" fill="white"/>
<path d="M1280.44 28.4309C1280.03 28.7359 1279.46 28.6556 1279.15 28.2515C1278.85 27.8475 1278.93 27.2727 1279.33 26.9677C1279.74 26.6627 1280.31 26.743 1280.62 27.147C1280.92 27.5511 1280.84 28.1259 1280.44 28.4309Z" fill="white"/>
<path d="M1396.03 26.9458C1396.49 25.3227 1399.27 26.4915 1399.27 26.4915C1399.27 26.4915 1397.57 23.5354 1399.23 23.1636C1400.89 22.7918 1401.18 25.7523 1401.18 25.7523C1401.18 25.7523 1402.7 22.6663 1403.93 23.8963C1405.17 25.1264 1402.7 26.9956 1402.7 26.9956C1402.7 26.9956 1405.96 26.6963 1405.73 28.3752C1405.49 30.0541 1402.41 28.8932 1402.41 28.8932C1402.41 28.8932 1404.31 31.8275 1402.59 32.2418C1400.87 32.6562 1400.62 29.625 1400.62 29.625C1400.62 29.625 1399.48 32.3855 1398 31.6004C1396.52 30.8153 1399 28.4173 1399 28.4173C1399 28.4173 1395.58 28.569 1396.03 26.9458Z" fill="white"/>
<path d="M1401.44 28.4309C1401.03 28.7359 1400.46 28.6556 1400.15 28.2515C1399.85 27.8475 1399.93 27.2727 1400.33 26.9677C1400.74 26.6627 1401.31 26.743 1401.62 27.147C1401.92 27.5511 1401.84 28.1259 1401.44 28.4309Z" fill="white"/>
<path d="M1517.03 26.9458C1517.49 25.3227 1520.27 26.4915 1520.27 26.4915C1520.27 26.4915 1518.57 23.5354 1520.23 23.1636C1521.89 22.7918 1522.18 25.7523 1522.18 25.7523C1522.18 25.7523 1523.7 22.6663 1524.93 23.8963C1526.17 25.1264 1523.7 26.9956 1523.7 26.9956C1523.7 26.9956 1526.96 26.6963 1526.73 28.3752C1526.49 30.0541 1523.41 28.8932 1523.41 28.8932C1523.41 28.8932 1525.31 31.8275 1523.59 32.2418C1521.87 32.6562 1521.62 29.625 1521.62 29.625C1521.62 29.625 1520.48 32.3855 1519 31.6004C1517.52 30.8153 1520 28.4173 1520 28.4173C1520 28.4173 1516.58 28.569 1517.03 26.9458Z" fill="white"/>
<path d="M1522.44 28.4309C1522.03 28.7359 1521.46 28.6556 1521.15 28.2515C1520.85 27.8475 1520.93 27.2727 1521.33 26.9677C1521.74 26.6627 1522.31 26.743 1522.62 27.147C1522.92 27.5511 1522.84 28.1259 1522.44 28.4309Z" fill="white"/>
<path d="M-7.07285 18.2453C-7.39491 17.4091 -5.83741 17.0244 -5.83741 17.0244C-5.83741 17.0244 -7.50166 16.3039 -6.91052 15.6173C-6.31939 14.9308 -5.25517 16.1009 -5.25517 16.1009C-5.25517 16.1009 -5.58956 14.3042 -4.67111 14.4358C-3.75266 14.5675 -4.21521 16.1508 -4.21521 16.1508C-4.21521 16.1508 -2.91831 14.9869 -2.48526 15.7774C-2.05222 16.5679 -3.73647 17.0523 -3.73647 17.0523C-3.73647 17.0523 -1.99196 17.6986 -2.59361 18.4212C-3.19526 19.1437 -4.26696 17.9323 -4.26696 17.9323C-4.26696 17.9323 -3.87697 19.4718 -4.75579 19.6057C-5.63462 19.7395 -5.34067 17.9311 -5.34067 17.9311C-5.34067 17.9311 -6.75079 19.0815 -7.07285 18.2453Z" fill="white"/>
<path d="M-4.29587 17.1623C-4.37135 17.4207 -4.64198 17.5689 -4.90035 17.4934C-5.15872 17.418 -5.30698 17.1473 -5.23151 16.889C-5.15603 16.6306 -4.8854 16.4823 -4.62703 16.5578C-4.36866 16.6333 -4.2204 16.9039 -4.29587 17.1623Z" fill="white"/>
<path d="M113.927 18.2453C113.605 17.4091 115.163 17.0244 115.163 17.0244C115.163 17.0244 113.498 16.3039 114.089 15.6173C114.681 14.9308 115.745 16.1009 115.745 16.1009C115.745 16.1009 115.41 14.3042 116.329 14.4358C117.247 14.5675 116.785 16.1508 116.785 16.1508C116.785 16.1508 118.082 14.9869 118.515 15.7774C118.948 16.5679 117.264 17.0523 117.264 17.0523C117.264 17.0523 119.008 17.6986 118.406 18.4212C117.805 19.1437 116.733 17.9323 116.733 17.9323C116.733 17.9323 117.123 19.4718 116.244 19.6057C115.365 19.7395 115.659 17.9311 115.659 17.9311C115.659 17.9311 114.249 19.0815 113.927 18.2453Z" fill="white"/>
<path d="M116.704 17.1623C116.629 17.4207 116.358 17.5689 116.1 17.4934C115.841 17.418 115.693 17.1473 115.768 16.889C115.844 16.6306 116.115 16.4823 116.373 16.5578C116.631 16.6333 116.78 16.9039 116.704 17.1623Z" fill="white"/>
<path d="M234.927 18.2453C234.605 17.4091 236.163 17.0244 236.163 17.0244C236.163 17.0244 234.498 16.3039 235.089 15.6173C235.681 14.9308 236.745 16.1009 236.745 16.1009C236.745 16.1009 236.41 14.3042 237.329 14.4358C238.247 14.5675 237.785 16.1508 237.785 16.1508C237.785 16.1508 239.082 14.9869 239.515 15.7774C239.948 16.5679 238.264 17.0523 238.264 17.0523C238.264 17.0523 240.008 17.6986 239.406 18.4212C238.805 19.1437 237.733 17.9323 237.733 17.9323C237.733 17.9323 238.123 19.4718 237.244 19.6057C236.365 19.7395 236.659 17.9311 236.659 17.9311C236.659 17.9311 235.249 19.0815 234.927 18.2453Z" fill="white"/>
<path d="M237.704 17.1623C237.629 17.4207 237.358 17.5689 237.1 17.4934C236.841 17.418 236.693 17.1473 236.768 16.889C236.844 16.6306 237.115 16.4823 237.373 16.5578C237.631 16.6333 237.78 16.9039 237.704 17.1623Z" fill="white"/>
<path d="M355.927 18.2453C355.605 17.4091 357.163 17.0244 357.163 17.0244C357.163 17.0244 355.498 16.3039 356.089 15.6173C356.681 14.9308 357.745 16.1009 357.745 16.1009C357.745 16.1009 357.41 14.3042 358.329 14.4358C359.247 14.5675 358.785 16.1508 358.785 16.1508C358.785 16.1508 360.082 14.9869 360.515 15.7774C360.948 16.5679 359.264 17.0523 359.264 17.0523C359.264 17.0523 361.008 17.6986 360.406 18.4212C359.805 19.1437 358.733 17.9323 358.733 17.9323C358.733 17.9323 359.123 19.4718 358.244 19.6057C357.365 19.7395 357.659 17.9311 357.659 17.9311C357.659 17.9311 356.249 19.0815 355.927 18.2453Z" fill="white"/>
<path d="M358.704 17.1623C358.629 17.4207 358.358 17.5689 358.1 17.4934C357.841 17.418 357.693 17.1473 357.768 16.889C357.844 16.6306 358.115 16.4823 358.373 16.5578C358.631 16.6333 358.78 16.9039 358.704 17.1623Z" fill="white"/>
<path d="M476.927 18.2453C476.605 17.4091 478.163 17.0244 478.163 17.0244C478.163 17.0244 476.498 16.3039 477.089 15.6173C477.681 14.9308 478.745 16.1009 478.745 16.1009C478.745 16.1009 478.41 14.3042 479.329 14.4358C480.247 14.5675 479.785 16.1508 479.785 16.1508C479.785 16.1508 481.082 14.9869 481.515 15.7774C481.948 16.5679 480.264 17.0523 480.264 17.0523C480.264 17.0523 482.008 17.6986 481.406 18.4212C480.805 19.1437 479.733 17.9323 479.733 17.9323C479.733 17.9323 480.123 19.4718 479.244 19.6057C478.365 19.7395 478.659 17.9311 478.659 17.9311C478.659 17.9311 477.249 19.0815 476.927 18.2453Z" fill="white"/>
<path d="M479.704 17.1623C479.629 17.4207 479.358 17.5689 479.1 17.4934C478.841 17.418 478.693 17.1473 478.768 16.889C478.844 16.6306 479.115 16.4823 479.373 16.5578C479.631 16.6333 479.78 16.9039 479.704 17.1623Z" fill="white"/>
<path d="M597.927 18.2453C597.605 17.4091 599.163 17.0244 599.163 17.0244C599.163 17.0244 597.498 16.3039 598.089 15.6173C598.681 14.9308 599.745 16.1009 599.745 16.1009C599.745 16.1009 599.41 14.3042 600.329 14.4358C601.247 14.5675 600.785 16.1508 600.785 16.1508C600.785 16.1508 602.082 14.9869 602.515 15.7774C602.948 16.5679 601.264 17.0523 601.264 17.0523C601.264 17.0523 603.008 17.6986 602.406 18.4212C601.805 19.1437 600.733 17.9323 600.733 17.9323C600.733 17.9323 601.123 19.4718 600.244 19.6057C599.365 19.7395 599.659 17.9311 599.659 17.9311C599.659 17.9311 598.249 19.0815 597.927 18.2453Z" fill="white"/>
<path d="M600.704 17.1623C600.629 17.4207 600.358 17.5689 600.1 17.4934C599.841 17.418 599.693 17.1473 599.768 16.889C599.844 16.6306 600.115 16.4823 600.373 16.5578C600.631 16.6333 600.78 16.9039 600.704 17.1623Z" fill="white"/>
<path d="M718.927 18.2453C718.605 17.4091 720.163 17.0244 720.163 17.0244C720.163 17.0244 718.498 16.3039 719.089 15.6173C719.681 14.9308 720.745 16.1009 720.745 16.1009C720.745 16.1009 720.41 14.3042 721.329 14.4358C722.247 14.5675 721.785 16.1508 721.785 16.1508C721.785 16.1508 723.082 14.9869 723.515 15.7774C723.948 16.5679 722.264 17.0523 722.264 17.0523C722.264 17.0523 724.008 17.6986 723.406 18.4212C722.805 19.1437 721.733 17.9323 721.733 17.9323C721.733 17.9323 722.123 19.4718 721.244 19.6057C720.365 19.7395 720.659 17.9311 720.659 17.9311C720.659 17.9311 719.249 19.0815 718.927 18.2453Z" fill="white"/>
<path d="M721.704 17.1623C721.629 17.4207 721.358 17.5689 721.1 17.4934C720.841 17.418 720.693 17.1473 720.768 16.889C720.844 16.6306 721.115 16.4823 721.373 16.5578C721.631 16.6333 721.78 16.9039 721.704 17.1623Z" fill="white"/>
<path d="M839.927 18.2453C839.605 17.4091 841.163 17.0244 841.163 17.0244C841.163 17.0244 839.498 16.3039 840.089 15.6173C840.681 14.9308 841.745 16.1009 841.745 16.1009C841.745 16.1009 841.41 14.3042 842.329 14.4358C843.247 14.5675 842.785 16.1508 842.785 16.1508C842.785 16.1508 844.082 14.9869 844.515 15.7774C844.948 16.5679 843.264 17.0523 843.264 17.0523C843.264 17.0523 845.008 17.6986 844.406 18.4212C843.805 19.1437 842.733 17.9323 842.733 17.9323C842.733 17.9323 843.123 19.4718 842.244 19.6057C841.365 19.7395 841.659 17.9311 841.659 17.9311C841.659 17.9311 840.249 19.0815 839.927 18.2453Z" fill="white"/>
<path d="M842.704 17.1623C842.629 17.4207 842.358 17.5689 842.1 17.4934C841.841 17.418 841.693 17.1473 841.768 16.889C841.844 16.6306 842.115 16.4823 842.373 16.5578C842.631 16.6333 842.78 16.9039 842.704 17.1623Z" fill="white"/>
<path d="M960.927 18.2453C960.605 17.4091 962.163 17.0244 962.163 17.0244C962.163 17.0244 960.498 16.3039 961.089 15.6173C961.681 14.9308 962.745 16.1009 962.745 16.1009C962.745 16.1009 962.41 14.3042 963.329 14.4358C964.247 14.5675 963.785 16.1508 963.785 16.1508C963.785 16.1508 965.082 14.9869 965.515 15.7774C965.948 16.5679 964.264 17.0523 964.264 17.0523C964.264 17.0523 966.008 17.6986 965.406 18.4212C964.805 19.1437 963.733 17.9323 963.733 17.9323C963.733 17.9323 964.123 19.4718 963.244 19.6057C962.365 19.7395 962.659 17.9311 962.659 17.9311C962.659 17.9311 961.249 19.0815 960.927 18.2453Z" fill="white"/>
<path d="M963.704 17.1623C963.629 17.4207 963.358 17.5689 963.1 17.4934C962.841 17.418 962.693 17.1473 962.768 16.889C962.844 16.6306 963.115 16.4823 963.373 16.5578C963.631 16.6333 963.78 16.9039 963.704 17.1623Z" fill="white"/>
<path d="M1081.93 18.2453C1081.61 17.4091 1083.16 17.0244 1083.16 17.0244C1083.16 17.0244 1081.5 16.3039 1082.09 15.6173C1082.68 14.9308 1083.74 16.1009 1083.74 16.1009C1083.74 16.1009 1083.41 14.3042 1084.33 14.4358C1085.25 14.5675 1084.78 16.1508 1084.78 16.1508C1084.78 16.1508 1086.08 14.9869 1086.51 15.7774C1086.95 16.5679 1085.26 17.0523 1085.26 17.0523C1085.26 17.0523 1087.01 17.6986 1086.41 18.4212C1085.8 19.1437 1084.73 17.9323 1084.73 17.9323C1084.73 17.9323 1085.12 19.4718 1084.24 19.6057C1083.37 19.7395 1083.66 17.9311 1083.66 17.9311C1083.66 17.9311 1082.25 19.0815 1081.93 18.2453Z" fill="white"/>
<path d="M1084.7 17.1623C1084.63 17.4207 1084.36 17.5689 1084.1 17.4934C1083.84 17.418 1083.69 17.1473 1083.77 16.889C1083.84 16.6306 1084.11 16.4823 1084.37 16.5578C1084.63 16.6333 1084.78 16.9039 1084.7 17.1623Z" fill="white"/>
<path d="M1202.93 18.2453C1202.61 17.4091 1204.16 17.0244 1204.16 17.0244C1204.16 17.0244 1202.5 16.3039 1203.09 15.6173C1203.68 14.9308 1204.74 16.1009 1204.74 16.1009C1204.74 16.1009 1204.41 14.3042 1205.33 14.4358C1206.25 14.5675 1205.78 16.1508 1205.78 16.1508C1205.78 16.1508 1207.08 14.9869 1207.51 15.7774C1207.95 16.5679 1206.26 17.0523 1206.26 17.0523C1206.26 17.0523 1208.01 17.6986 1207.41 18.4212C1206.8 19.1437 1205.73 17.9323 1205.73 17.9323C1205.73 17.9323 1206.12 19.4718 1205.24 19.6057C1204.37 19.7395 1204.66 17.9311 1204.66 17.9311C1204.66 17.9311 1203.25 19.0815 1202.93 18.2453Z" fill="white"/>
<path d="M1205.7 17.1623C1205.63 17.4207 1205.36 17.5689 1205.1 17.4934C1204.84 17.418 1204.69 17.1473 1204.77 16.889C1204.84 16.6306 1205.11 16.4823 1205.37 16.5578C1205.63 16.6333 1205.78 16.9039 1205.7 17.1623Z" fill="white"/>
<path d="M1323.93 18.2453C1323.61 17.4091 1325.16 17.0244 1325.16 17.0244C1325.16 17.0244 1323.5 16.3039 1324.09 15.6173C1324.68 14.9308 1325.74 16.1009 1325.74 16.1009C1325.74 16.1009 1325.41 14.3042 1326.33 14.4358C1327.25 14.5675 1326.78 16.1508 1326.78 16.1508C1326.78 16.1508 1328.08 14.9869 1328.51 15.7774C1328.95 16.5679 1327.26 17.0523 1327.26 17.0523C1327.26 17.0523 1329.01 17.6986 1328.41 18.4212C1327.8 19.1437 1326.73 17.9323 1326.73 17.9323C1326.73 17.9323 1327.12 19.4718 1326.24 19.6057C1325.37 19.7395 1325.66 17.9311 1325.66 17.9311C1325.66 17.9311 1324.25 19.0815 1323.93 18.2453Z" fill="white"/>
<path d="M1326.7 17.1623C1326.63 17.4207 1326.36 17.5689 1326.1 17.4934C1325.84 17.418 1325.69 17.1473 1325.77 16.889C1325.84 16.6306 1326.11 16.4823 1326.37 16.5578C1326.63 16.6333 1326.78 16.9039 1326.7 17.1623Z" fill="white"/>
<path d="M1444.93 18.2453C1444.61 17.4091 1446.16 17.0244 1446.16 17.0244C1446.16 17.0244 1444.5 16.3039 1445.09 15.6173C1445.68 14.9308 1446.74 16.1009 1446.74 16.1009C1446.74 16.1009 1446.41 14.3042 1447.33 14.4358C1448.25 14.5675 1447.78 16.1508 1447.78 16.1508C1447.78 16.1508 1449.08 14.9869 1449.51 15.7774C1449.95 16.5679 1448.26 17.0523 1448.26 17.0523C1448.26 17.0523 1450.01 17.6986 1449.41 18.4212C1448.8 19.1437 1447.73 17.9323 1447.73 17.9323C1447.73 17.9323 1448.12 19.4718 1447.24 19.6057C1446.37 19.7395 1446.66 17.9311 1446.66 17.9311C1446.66 17.9311 1445.25 19.0815 1444.93 18.2453Z" fill="white"/>
<path d="M1447.7 17.1623C1447.63 17.4207 1447.36 17.5689 1447.1 17.4934C1446.84 17.418 1446.69 17.1473 1446.77 16.889C1446.84 16.6306 1447.11 16.4823 1447.37 16.5578C1447.63 16.6333 1447.78 16.9039 1447.7 17.1623Z" fill="white"/>
</svg>
