<svg width="114" height="84" viewBox="0 0 114 84" fill="none" xmlns="http://www.w3.org/2000/svg">
<path d="M52.7456 12.0692C64.0319 18.6856 49.7499 37.2516 49.7499 37.2516C49.7499 37.2516 75.3086 30.3336 74.8069 43.552C74.3052 56.7704 51.5059 53.0943 51.5059 53.0943C51.5059 53.0943 71.6736 70.5652 59.9893 77.4205C48.3051 84.2757 39.1776 61.9878 39.1776 61.9878C39.1776 61.9878 34.9613 87.0786 22.8235 81.9939C10.6858 76.9092 25.5082 56.0516 25.5082 56.0516C25.5082 56.0516 -0.291762 64.5472 0.00249812 50.8222C0.296756 37.0973 23.5567 41.1762 23.5567 41.1762C23.5567 41.1762 5.09442 27.1474 13.9107 17.6219C22.7269 8.09647 35.8271 31.4191 35.8271 31.4191C35.8271 31.4191 41.4594 5.45276 52.7456 12.0692Z" fill="var(--primary)"/>
<path d="M30.8944 49.7054C29.405 46.0685 31.1459 41.9129 34.7827 40.4236C38.4195 38.9342 42.5751 40.675 44.0645 44.3119C45.5539 47.9487 43.813 52.1043 40.1762 53.5937C36.5394 55.083 32.3838 53.3422 30.8944 49.7054Z" fill="#EDF9FF"/>
<path d="M89.8452 47.7541C96.2897 46.5826 96.9268 58.2928 96.9268 58.2928C96.9268 58.2928 104.373 47.3245 108.496 52.5068C112.62 57.6892 102.764 63.7347 102.764 63.7347C102.764 63.7347 116.123 63.7855 113.925 70.2017C111.726 76.6179 100.986 71.1349 100.986 71.1349C100.986 71.1349 107.574 82.0371 101.307 84.0681C95.0388 86.0991 93.8589 73.3425 93.8589 73.3425C93.8589 73.3425 86.8363 84.9885 82.4685 79.6816C78.1008 74.3746 88.263 68.3317 88.263 68.3317C88.263 68.3317 76.6748 69.0311 76.9132 62.5372C77.1515 56.0433 89.7372 60.6225 89.7372 60.6225C89.7372 60.6225 83.4008 48.9257 89.8452 47.7541Z" fill="var(--primary)"/>
<path d="M93.8326 69.1751C92.0802 68.2804 91.3848 66.1345 92.2795 64.3821C93.1742 62.6296 95.3201 61.9343 97.0726 62.8289C98.825 63.7236 99.5204 65.8696 98.6257 67.622C97.731 69.3744 95.5851 70.0698 93.8326 69.1751Z" fill="#EDF9FF"/>
<path d="M68.1642 23.1623C68.2645 15.5342 81.7922 17.4215 81.7922 17.4215C81.7922 17.4215 70.9179 6.46055 77.7627 2.90443C84.6074 -0.651693 89.3164 11.9645 89.3164 11.9645C89.3164 11.9645 92.3583 -3.29441 99.2013 0.651954C106.044 4.59831 97.3781 15.6497 97.3781 15.6497C97.3781 15.6497 111.312 10.554 112.233 18.1721C113.155 25.7903 98.3097 24.2897 98.3097 24.2897C98.3097 24.2897 110.053 34.9181 103.011 38.7254C95.9698 42.5327 91.3321 29.5669 91.3321 29.5669C91.3321 29.5669 89.5433 42.9691 82.1736 41.2462C74.8039 39.5233 82.8494 26.1599 82.8494 26.1599C82.8494 26.1599 68.064 30.7903 68.1642 23.1623Z" fill="var(--primary)"/>
<path d="M93.5402 23.3889C92.1261 25.1922 89.5179 25.5078 87.7146 24.0937C85.9113 22.6796 85.5957 20.0713 87.0098 18.268C88.4239 16.4647 91.0322 16.1492 92.8355 17.5633C94.6388 18.9774 94.9543 21.5856 93.5402 23.3889Z" fill="#EDF9FF"/>
</svg>
