<svg width="106" height="79" viewBox="0 0 106 79" fill="none" xmlns="http://www.w3.org/2000/svg">
<path d="M68.4618 14.117C71.8126 9.84049 78.6584 16.7509 78.6584 16.7509C78.6584 16.7509 77.2335 5.84794 82.6453 6.78986C88.0571 7.73178 85.2758 16.9097 85.2758 16.9097C85.2758 16.9097 93.5876 9.58228 95.7586 14.7721C97.9296 19.9619 88.2497 22.478 88.2497 22.478C88.2497 22.478 98.3407 25.6091 95.5728 30.3212C92.805 35.0333 85.0463 27.773 85.0463 27.773C85.0463 27.773 87.1069 38.8631 81.4751 37.9783C75.8434 37.0936 78.8161 27.7484 78.8161 27.7484C78.8161 27.7484 72.0156 34.5656 68.5862 30.4075C65.1567 26.2494 75.4835 22.156 75.4835 22.156C75.4835 22.156 65.111 18.3934 68.4618 14.117Z" fill="#005078"/>
<path d="M82.7343 25.2034C81.1548 25.6139 79.5415 24.6663 79.131 23.0868C78.7204 21.5073 79.668 19.894 81.2475 19.4834C82.827 19.0729 84.4403 20.0205 84.8509 21.6C85.2615 23.1795 84.3138 24.7928 82.7343 25.2034Z" fill="#EDF9FF"/>
<path d="M81.7339 72.6426C76.4502 69.9737 82.3749 61.186 82.3749 61.186C82.3749 61.186 71.0286 65.0324 70.8816 59.0491C70.7345 53.0657 81.1341 54.0813 81.1341 54.0813C81.1341 54.0813 71.533 46.7618 76.6156 43.3359C81.6982 39.9099 86.45 49.7167 86.45 49.7167C86.45 49.7167 87.6448 38.267 93.2697 40.2201C98.8946 42.1732 92.7906 52.011 92.7906 52.011C92.7906 52.011 104.201 47.4454 104.456 53.6516C104.711 59.8578 94.0923 58.6734 94.0923 58.6734C94.0923 58.6734 102.826 64.4867 99.1141 69.0374C95.402 73.5881 88.827 63.4263 88.827 63.4263C88.827 63.4263 87.0175 75.3114 81.7339 72.6426Z" fill="#005078"/>
<path d="M90.5377 55.0291C91.3131 56.6294 90.6444 58.5552 89.0441 59.3305C87.4439 60.1059 85.5181 59.4372 84.7428 57.837C83.9674 56.2368 84.6361 54.311 86.2363 53.5356C87.8365 52.7602 89.7623 53.4289 90.5377 55.0291Z" fill="#EDF9FF"/>
<path d="M6.43974 24.9149C9.26656 14.792 26.6152 22.0817 26.6152 22.0817C26.6152 22.0817 16.0039 3.64546 26.3747 1.32649C36.7454 -0.992475 38.5619 17.4712 38.5619 17.4712C38.5619 17.4712 48.0005 -1.7751 55.7199 5.8964C63.4393 13.5679 47.9966 25.2253 47.9966 25.2253C47.9966 25.2253 68.351 23.3589 66.8885 33.8294C65.426 44.2999 46.1865 37.06 46.1865 37.06C46.1865 37.06 58.0727 55.3604 47.351 57.9443C36.6292 60.5282 35.0312 41.6242 35.0312 41.6242C35.0312 41.6242 27.917 58.8403 18.7111 53.9439C9.50517 49.0474 24.9376 34.092 24.9376 34.092C24.9376 34.092 3.61293 35.0379 6.43974 24.9149Z" fill="#005078"/>
<path d="M40.1531 34.1765C37.6332 36.0787 34.0484 35.578 32.1462 33.0581C30.244 30.5382 30.7448 26.9535 33.2646 25.0513C35.7845 23.1491 39.3693 23.6498 41.2715 26.1697C43.1737 28.6895 42.6729 32.2743 40.1531 34.1765Z" fill="#EDF9FF"/>
</svg>
