<svg width="205" height="199" viewBox="0 0 205 199" fill="none" xmlns="http://www.w3.org/2000/svg">
<path d="M119.751 29.7264C122.693 29.8371 125.23 32.1851 127.324 35.5175C129.436 38.8788 131.191 43.3866 132.529 48.1178C133.869 52.8536 134.797 57.8417 135.245 62.1814C135.386 63.5484 135.48 64.8578 135.523 66.0792C135.78 65.9975 136.037 65.9154 136.294 65.8351C144.683 63.2133 153.172 61.2833 159.692 60.4441C162.948 60.0251 165.739 59.875 167.789 60.0556C168.811 60.1457 169.682 60.3214 170.342 60.6065C170.999 60.8899 171.53 61.3209 171.705 61.965C172.631 65.383 173.743 67.4904 174.54 68.9144C174.932 69.6125 175.282 70.2043 175.477 70.6935C175.68 71.2012 175.768 71.7233 175.495 72.2431C175.144 72.9133 174.696 73.7675 174.414 74.5609C174.273 74.9575 174.184 75.3143 174.16 75.6081C174.137 75.9078 174.188 76.0777 174.252 76.1679C174.489 76.4973 174.924 76.7456 175.497 76.9769C175.778 77.0904 176.061 77.1883 176.353 77.2958C176.635 77.3995 176.925 77.5114 177.178 77.644C177.32 77.7188 177.44 77.8424 177.527 77.9427C177.624 78.0551 177.729 78.1954 177.835 78.3517C178.048 78.665 178.293 79.0778 178.553 79.5546C179.075 80.5108 179.672 81.7547 180.212 83.0366C180.751 84.3167 181.239 85.6505 181.534 86.7858C181.68 87.3523 181.782 87.8847 181.815 88.3437C181.847 88.784 181.823 89.2361 181.64 89.5853C181.503 89.8453 181.259 90.1984 180.952 90.6113C180.641 91.0317 180.243 91.5424 179.788 92.1261C178.875 93.2967 177.714 94.7765 176.471 96.4768C173.983 99.8815 171.187 104.147 169.434 108.532L169.417 108.577L169.391 108.616C166.074 113.808 162.858 117.767 159.445 120.622C161.558 122.617 162.91 124.102 163.253 124.544C163.374 124.7 163.5 124.931 163.626 125.195C163.756 125.469 163.9 125.812 164.057 126.21C164.371 127.007 164.739 128.049 165.132 129.263C165.919 131.695 166.816 134.837 167.603 138.135C168.389 141.431 169.069 144.894 169.419 147.962C169.765 151.007 169.797 153.741 169.233 155.536C168.663 157.351 167.215 159.126 165.403 160.75C163.58 162.383 161.339 163.909 159.108 165.215C156.876 166.523 154.639 167.619 152.816 168.392C151.905 168.779 151.091 169.087 150.43 169.3C149.789 169.507 149.238 169.644 148.876 169.651C148.219 169.662 147.597 169.476 147.034 169.243C146.484 169.016 145.918 168.71 145.446 168.483C144.419 167.992 143.736 167.826 143.115 168.309C142.333 168.916 141.901 169.814 141.362 170.789C140.849 171.715 140.227 172.729 139.031 173.151C138.727 173.258 138.272 173.343 137.721 173.413C137.159 173.484 136.464 173.542 135.666 173.584C134.068 173.668 132.034 173.689 129.771 173.616C125.248 173.47 119.778 172.946 115.016 171.787C112.477 171.169 110.2 169.085 108.239 166.102C107.615 165.153 107.018 164.106 106.451 162.974C106.343 163.116 106.235 163.256 106.125 163.394C104.564 165.358 102.797 166.966 101.052 168.037C99.3178 169.102 97.5463 169.67 95.9989 169.449C95.4478 169.371 94.8339 169.514 94.1236 169.88C93.412 170.248 92.643 170.818 91.7975 171.535C90.9531 172.25 90.0579 173.09 89.083 173.987C88.1124 174.881 87.0697 175.826 85.9504 176.736C81.4674 180.379 75.6672 183.509 67.9126 180.654C60.3527 177.87 55.2579 174.711 51.2958 170.509C47.3411 166.315 44.5452 161.111 41.5347 154.301C37.1064 144.283 38.3426 134.17 43.6689 125.543C40.913 125.777 38.2223 126.149 35.6543 126.711C30.49 127.841 26.4368 126.453 23.6636 123.348C20.9162 120.271 19.4796 115.571 19.359 110.158C19.1181 99.3328 24.1275 85.4101 34.9807 75.0651C36.0782 73.737 36.1181 72.0305 35.9439 70.2336C35.8603 69.3721 35.7186 68.4262 35.6677 67.6214C35.6161 66.8038 35.6419 65.9848 35.9416 65.2975C36.1168 64.8958 36.5082 64.4875 36.9846 64.1001C37.4769 63.6996 38.1203 63.2739 38.874 62.8462C40.3826 61.9904 42.3719 61.1082 44.5766 60.3992C48.9578 58.9904 54.3152 58.2266 58.4684 59.8513C62.213 61.0916 65.6164 62.7941 68.6982 64.8447C67.7836 55.9967 68.223 49.8406 70.2697 45.3692C72.7284 39.9976 77.453 37.1577 84.5541 34.9525C84.5547 34.9517 84.5552 34.9507 84.5558 34.9499C84.6229 34.8427 84.7218 34.6897 84.8485 34.5052C85.1015 34.1367 85.4695 33.6369 85.9324 33.1115C86.8461 32.0746 88.1845 30.8721 89.7792 30.447C91.3516 30.0281 93.4588 30.2949 95.1055 30.6341C95.9421 30.8065 96.6856 31.0039 97.2197 31.1575C97.4869 31.2343 97.703 31.3003 97.8523 31.3475C97.8934 31.3605 97.9295 31.3722 97.9603 31.3822C97.9619 31.3819 97.9639 31.3818 97.9655 31.3816C98.0504 31.3663 98.1761 31.3452 98.3393 31.317C98.6658 31.2606 99.1434 31.1794 99.7496 31.0849C100.962 30.8957 102.691 30.6481 104.755 30.413C108.88 29.943 114.358 29.5236 119.751 29.7264ZM90.7589 96.679C92.5152 102.51 93.3787 108.096 93.4594 112.691C93.4749 113.572 93.4579 114.419 93.4163 115.226C95.8455 115.873 98.3936 116.602 101.105 117.403L101.235 117.442L101.329 117.541C101.512 117.736 101.69 117.934 101.866 118.132C102.535 116.802 103.387 115.333 104.456 113.852C105.453 112.47 106.641 111.076 108.044 109.775C107.517 108.88 107.056 107.967 106.654 107.032C100.472 103.481 95.2995 100.21 90.7589 96.679Z" fill="#005078"/>
<path d="M119.751 29.7264L119.788 28.7271L119.788 28.7271L119.751 29.7264ZM127.324 35.5175L128.171 34.9855L128.171 34.9855L127.324 35.5175ZM132.529 48.1178L133.492 47.8456L133.492 47.8456L132.529 48.1178ZM135.245 62.1814L136.24 62.0788L136.24 62.0788L135.245 62.1814ZM135.523 66.0792L134.524 66.1147L134.57 67.4313L135.826 67.0322L135.523 66.0792ZM136.294 65.8351L135.996 64.8806V64.8806L136.294 65.8351ZM159.692 60.4441L159.565 59.4523L159.565 59.4523L159.692 60.4441ZM167.789 60.0556L167.877 59.0595L167.877 59.0595L167.789 60.0556ZM170.342 60.6065L170.739 59.6885L170.739 59.6884L170.342 60.6065ZM171.705 61.965L170.739 62.2265L170.739 62.2265L171.705 61.965ZM174.54 68.9144L173.668 69.4032L173.668 69.4032L174.54 68.9144ZM175.477 70.6935L176.406 70.3228L176.406 70.3226L175.477 70.6935ZM175.495 72.2431L176.381 72.7079L176.381 72.7076L175.495 72.2431ZM174.414 74.5609L173.472 74.2261L173.472 74.2261L174.414 74.5609ZM174.16 75.6081L173.164 75.5295L173.163 75.5297L174.16 75.6081ZM174.252 76.1679L173.44 76.7508L173.441 76.7521L174.252 76.1679ZM175.497 76.9769L175.122 77.9042L175.123 77.9042L175.497 76.9769ZM176.353 77.2958L176.698 76.3573L176.698 76.3573L176.353 77.2958ZM177.178 77.644L177.643 76.7585L177.642 76.7585L177.178 77.644ZM177.527 77.9427L178.282 77.2875L178.282 77.2874L177.527 77.9427ZM177.835 78.3517L178.662 77.7897L178.662 77.7896L177.835 78.3517ZM178.553 79.5546L179.431 79.0756L179.431 79.0756L178.553 79.5546ZM180.212 83.0366L181.134 82.6485V82.6485L180.212 83.0366ZM181.534 86.7858L182.502 86.535L182.502 86.5349L181.534 86.7858ZM181.815 88.3437L182.813 88.2715L182.813 88.2714L181.815 88.3437ZM181.64 89.5853L182.525 90.05L182.525 90.0497L181.64 89.5853ZM180.952 90.6113L181.756 91.2071L181.756 91.2071L180.952 90.6113ZM179.788 92.1261L178.999 91.5109V91.5109L179.788 92.1261ZM176.471 96.4768L175.664 95.8868L175.664 95.8868L176.471 96.4768ZM169.434 108.532L170.363 108.904L170.363 108.903L169.434 108.532ZM169.417 108.577L170.256 109.12L170.309 109.039L170.345 108.949L169.417 108.577ZM169.391 108.616L168.551 108.073L168.548 108.078L169.391 108.616ZM159.445 120.622L158.803 119.855L157.94 120.577L158.758 121.349L159.445 120.622ZM163.253 124.544L164.043 123.93L164.042 123.93L163.253 124.544ZM163.626 125.195L164.529 124.766L164.529 124.766L163.626 125.195ZM164.057 126.21L164.987 125.844V125.844L164.057 126.21ZM165.132 129.263L166.084 128.956L166.084 128.955L165.132 129.263ZM167.603 138.135L168.576 137.903V137.903L167.603 138.135ZM169.419 147.962L170.412 147.849L170.412 147.849L169.419 147.962ZM169.233 155.536L170.187 155.836L170.187 155.836L169.233 155.536ZM165.403 160.75L166.07 161.495L166.07 161.495L165.403 160.75ZM159.108 165.215L159.613 166.078V166.078L159.108 165.215ZM152.816 168.392L153.206 169.313L153.206 169.313L152.816 168.392ZM150.43 169.3L150.738 170.252L150.738 170.252L150.43 169.3ZM148.876 169.651L148.894 170.651L148.894 170.651L148.876 169.651ZM147.034 169.243L146.651 170.167L146.651 170.167L147.034 169.243ZM145.446 168.483L145.877 167.581L145.877 167.581L145.446 168.483ZM143.115 168.309L142.501 167.519L142.501 167.519L143.115 168.309ZM141.362 170.789L142.237 171.273L142.237 171.273L141.362 170.789ZM139.031 173.151L139.363 174.094L139.364 174.094L139.031 173.151ZM137.721 173.413L137.846 174.405L137.846 174.405L137.721 173.413ZM135.666 173.584L135.718 174.583V174.583L135.666 173.584ZM129.771 173.616L129.739 174.616L129.739 174.616L129.771 173.616ZM115.016 171.787L114.78 172.759L114.78 172.759L115.016 171.787ZM108.239 166.102L107.403 166.651L107.403 166.651L108.239 166.102ZM106.451 162.974L107.344 162.525L106.625 161.091L105.654 162.368L106.451 162.974ZM106.125 163.394L106.908 164.017L106.908 164.017L106.125 163.394ZM101.052 168.037L101.575 168.89L101.575 168.89L101.052 168.037ZM95.9989 169.449L96.1401 168.459L96.14 168.459L95.9989 169.449ZM94.1236 169.88L93.6648 168.992L93.6647 168.992L94.1236 169.88ZM91.7975 171.535L91.1512 170.772V170.772L91.7975 171.535ZM89.083 173.987L89.7603 174.723V174.723L89.083 173.987ZM85.9504 176.736L86.5811 177.512L86.5811 177.512L85.9504 176.736ZM67.9126 180.654L67.567 181.592L67.5671 181.592L67.9126 180.654ZM51.2958 170.509L50.5682 171.195L50.5682 171.195L51.2958 170.509ZM41.5347 154.301L40.6201 154.706L40.6201 154.706L41.5347 154.301ZM43.6689 125.543L44.5198 126.068L45.5633 124.378L43.584 124.546L43.6689 125.543ZM35.6543 126.711L35.8681 127.688L35.8681 127.688L35.6543 126.711ZM23.6636 123.348L22.9177 124.014L22.9177 124.014L23.6636 123.348ZM19.359 110.158L18.3593 110.18L18.3593 110.18L19.359 110.158ZM34.9807 75.0651L35.6707 75.7889L35.7137 75.7479L35.7516 75.7021L34.9807 75.0651ZM35.9439 70.2336L36.9392 70.137L36.9392 70.137L35.9439 70.2336ZM35.6677 67.6214L34.6697 67.6844L34.6697 67.6844L35.6677 67.6214ZM35.9416 65.2975L35.025 64.8977L35.0249 64.8978L35.9416 65.2975ZM36.9846 64.1001L36.3536 63.3243L36.3535 63.3243L36.9846 64.1001ZM38.874 62.8462L38.3806 61.9765L38.3805 61.9765L38.874 62.8462ZM44.5766 60.3992L44.2705 59.4472L44.2705 59.4472L44.5766 60.3992ZM58.4684 59.8513L58.1041 60.7826L58.1288 60.7922L58.154 60.8006L58.4684 59.8513ZM68.6982 64.8447L68.1442 65.6772L69.9111 66.8529L69.6929 64.7419L68.6982 64.8447ZM70.2697 45.3692L69.3604 44.953L69.3604 44.953L70.2697 45.3692ZM84.5541 34.9525L84.8507 35.9075L85.1451 35.816L85.3369 35.5747L84.5541 34.9525ZM84.5558 34.9499L83.7082 34.4192L83.7082 34.4192L84.5558 34.9499ZM84.8485 34.5052L84.0241 33.9391L84.0241 33.9392L84.8485 34.5052ZM85.9324 33.1115L85.1821 32.4504L85.1821 32.4504L85.9324 33.1115ZM89.7792 30.447L89.5217 29.4808L89.5216 29.4808L89.7792 30.447ZM95.1055 30.6341L95.3072 29.6547L95.3072 29.6547L95.1055 30.6341ZM97.2197 31.1575L97.496 30.1964L97.496 30.1964L97.2197 31.1575ZM97.8523 31.3475L98.1538 30.394L98.1538 30.394L97.8523 31.3475ZM97.9603 31.3822L97.6528 32.3337L97.8912 32.4108L98.1377 32.3663L97.9603 31.3822ZM97.9655 31.3816L97.7882 30.3974L97.7882 30.3974L97.9655 31.3816ZM98.3393 31.317L98.1691 30.3316L98.1691 30.3316L98.3393 31.317ZM99.7496 31.0849L99.5955 30.0968L99.5955 30.0968L99.7496 31.0849ZM104.755 30.413L104.642 29.4194L104.642 29.4194L104.755 30.413ZM90.7589 96.679L91.3728 95.8897L88.8967 93.964L89.8014 96.9675L90.7589 96.679ZM93.4594 112.691L94.4592 112.673L94.4592 112.673L93.4594 112.691ZM93.4163 115.226L92.4177 115.175L92.376 115.984L93.1591 116.193L93.4163 115.226ZM101.105 117.403L101.396 116.446L101.388 116.444L101.105 117.403ZM101.235 117.442L101.958 116.752L101.777 116.562L101.525 116.485L101.235 117.442ZM101.329 117.541L102.059 116.857L102.053 116.851L101.329 117.541ZM101.866 118.132L101.119 118.796L102.097 119.897L102.759 118.582L101.866 118.132ZM104.456 113.852L103.645 113.267L103.645 113.267L104.456 113.852ZM108.044 109.775L108.724 110.508L109.313 109.962L108.906 109.268L108.044 109.775ZM106.654 107.032L107.572 106.636L107.44 106.331L107.152 106.165L106.654 107.032ZM119.751 29.7264L119.713 30.7256C122.128 30.8165 124.418 32.7724 126.477 36.0495L127.324 35.5175L128.171 34.9855C126.042 31.5977 123.259 28.8577 119.788 28.7271L119.751 29.7264ZM127.324 35.5175L126.477 36.0495C128.518 39.2978 130.242 43.7046 131.567 48.3899L132.529 48.1178L133.492 47.8456C132.141 43.0686 130.353 38.4598 128.171 34.9855L127.324 35.5175ZM132.529 48.1178L131.567 48.3899C132.891 53.07 133.809 58.0014 134.251 62.2841L135.245 62.1814L136.24 62.0788C135.786 57.682 134.847 52.6372 133.492 47.8456L132.529 48.1178ZM135.245 62.1814L134.251 62.2841C134.39 63.6314 134.481 64.9182 134.524 66.1147L135.523 66.0792L136.522 66.0437C136.478 64.7973 136.383 63.4654 136.24 62.0788L135.245 62.1814ZM135.523 66.0792L135.826 67.0322C136.085 66.9499 136.338 66.869 136.592 66.7895L136.294 65.8351L135.996 64.8806C135.735 64.9619 135.475 65.0451 135.22 65.1262L135.523 66.0792ZM136.294 65.8351L136.592 66.7895C144.939 64.1808 153.37 62.266 159.82 61.436L159.692 60.4441L159.565 59.4523C152.974 60.3005 144.426 62.2457 135.996 64.8806L136.294 65.8351ZM159.692 60.4441L159.82 61.436C163.049 61.0204 165.757 60.8804 167.701 61.0517L167.789 60.0556L167.877 59.0595C165.721 58.8695 162.847 59.0298 159.565 59.4523L159.692 60.4441ZM167.789 60.0556L167.701 61.0517C168.675 61.1376 169.426 61.3 169.946 61.5246L170.342 60.6065L170.739 59.6884C169.938 59.3428 168.947 59.1538 167.877 59.0595L167.789 60.0556ZM170.342 60.6065L169.946 61.5246C170.472 61.7517 170.679 62.0042 170.739 62.2265L171.705 61.965L172.67 61.7036C172.381 60.6377 171.525 60.0281 170.739 59.6885L170.342 60.6065ZM171.705 61.965L170.739 62.2265C171.694 65.7512 172.847 67.9375 173.668 69.4032L174.54 68.9144L175.413 68.4256C174.638 67.0432 173.567 65.0147 172.67 61.7035L171.705 61.965ZM174.54 68.9144L173.668 69.4032C174.085 70.1477 174.385 70.6546 174.548 71.0644L175.477 70.6935L176.406 70.3226C176.179 69.7541 175.778 69.0774 175.413 68.4256L174.54 68.9144ZM175.477 70.6935L174.548 71.0642C174.627 71.2607 174.66 71.4051 174.666 71.5152C174.671 71.6118 174.655 71.6916 174.61 71.7787L175.495 72.2431L176.381 72.7076C176.852 71.8102 176.654 70.9458 176.406 70.3228L175.477 70.6935ZM175.495 72.2431L174.61 71.7784C174.265 72.4356 173.782 73.3537 173.472 74.2261L174.414 74.5609L175.356 74.8958C175.61 74.1813 176.022 73.3911 176.381 72.7079L175.495 72.2431ZM174.414 74.5609L173.472 74.2261C173.316 74.6637 173.196 75.1131 173.164 75.5295L174.16 75.6081L175.157 75.6867C175.171 75.5154 175.23 75.2512 175.356 74.8957L174.414 74.5609ZM174.16 75.6081L173.163 75.5297C173.131 75.9413 173.179 76.3878 173.44 76.7508L174.252 76.1679L175.065 75.585C175.133 75.6804 175.151 75.7568 175.155 75.7746C175.158 75.7923 175.151 75.7687 175.157 75.6864L174.16 75.6081ZM174.252 76.1679L173.441 76.7521C173.857 77.3303 174.531 77.6653 175.122 77.9042L175.497 76.9769L175.871 76.0496C175.317 75.8259 175.122 75.6643 175.064 75.5838L174.252 76.1679ZM175.497 76.9769L175.123 77.9042C175.423 78.0255 175.739 78.1354 176.008 78.2343L176.353 77.2958L176.698 76.3573C176.383 76.2413 176.133 76.1554 175.871 76.0495L175.497 76.9769ZM176.353 77.2958L176.008 78.2343C176.289 78.3378 176.524 78.4303 176.713 78.5295L177.178 77.644L177.642 76.7585C177.326 76.5924 176.98 76.4612 176.698 76.3573L176.353 77.2958ZM177.178 77.644L176.713 78.5294C176.7 78.5224 176.693 78.5175 176.693 78.5174C176.693 78.5172 176.696 78.5199 176.704 78.5267C176.72 78.5416 176.742 78.5641 176.772 78.598L177.527 77.9427L178.282 77.2874C178.18 77.169 177.959 76.9245 177.643 76.7585L177.178 77.644ZM177.527 77.9427L176.771 78.5978C176.834 78.6696 176.913 78.775 177.008 78.9137L177.835 78.3517L178.662 77.7896C178.544 77.6158 178.415 77.4405 178.282 77.2875L177.527 77.9427ZM177.835 78.3517L177.008 78.9136C177.195 79.1901 177.424 79.5722 177.676 80.0335L178.553 79.5546L179.431 79.0756C179.163 78.5835 178.9 78.1398 178.662 77.7897L177.835 78.3517ZM178.553 79.5546L177.675 80.0335C178.179 80.9561 178.762 82.1692 179.291 83.4247L180.212 83.0366L181.134 82.6485C180.583 81.3402 179.971 80.0654 179.431 79.0756L178.553 79.5546ZM180.212 83.0366L179.291 83.4247C179.82 84.682 180.288 85.9665 180.566 87.0367L181.534 86.7858L182.502 86.5349C182.19 85.3345 181.682 83.9514 181.134 82.6485L180.212 83.0366ZM181.534 86.7858L180.566 87.0366C180.704 87.5713 180.791 88.0396 180.818 88.416L181.815 88.3437L182.813 88.2714C182.774 87.7299 182.657 87.1334 182.502 86.535L181.534 86.7858ZM181.815 88.3437L180.818 88.4159C180.847 88.8103 180.803 89.0276 180.754 89.1208L181.64 89.5853L182.525 90.0497C182.843 89.4445 182.848 88.7578 182.813 88.2715L181.815 88.3437ZM181.64 89.5853L180.754 89.1205C180.658 89.3037 180.457 89.6005 180.149 90.0155L180.952 90.6113L181.756 91.2071C182.06 90.7964 182.348 90.3868 182.525 90.05L181.64 89.5853ZM180.952 90.6113L180.149 90.0155C179.846 90.4243 179.457 90.9251 178.999 91.5109L179.788 92.1261L180.576 92.7413C181.03 92.1597 181.435 91.6391 181.756 91.2071L180.952 90.6113ZM179.788 92.1261L178.999 91.5109C178.088 92.6791 176.917 94.1716 175.664 95.8868L176.471 96.4768L177.278 97.0669C178.51 95.3815 179.661 93.9142 180.576 92.7413L179.788 92.1261ZM176.471 96.4768L175.664 95.8868C173.159 99.3138 170.305 103.659 168.506 108.161L169.434 108.532L170.363 108.903C172.069 104.635 174.806 100.449 177.278 97.0669L176.471 96.4768ZM169.434 108.532L168.506 108.16L168.488 108.205L169.417 108.577L170.345 108.949L170.363 108.904L169.434 108.532ZM169.417 108.577L168.577 108.033L168.551 108.073L169.391 108.616L170.23 109.16L170.256 109.12L169.417 108.577ZM169.391 108.616L168.548 108.078C165.261 113.224 162.108 117.09 158.803 119.855L159.445 120.622L160.086 121.389C163.607 118.444 166.888 114.393 170.234 109.155L169.391 108.616ZM159.445 120.622L158.758 121.349C160.862 123.335 162.169 124.778 162.464 125.158L163.253 124.544L164.042 123.93C163.651 123.426 162.254 121.899 160.131 119.895L159.445 120.622ZM163.253 124.544L162.463 125.157C162.514 125.223 162.602 125.372 162.723 125.625L163.626 125.195L164.529 124.766C164.398 124.49 164.234 124.177 164.043 123.93L163.253 124.544ZM163.626 125.195L162.723 125.625C162.839 125.869 162.973 126.188 163.126 126.576L164.057 126.21L164.987 125.844C164.827 125.436 164.673 125.07 164.529 124.766L163.626 125.195ZM164.057 126.21L163.126 126.576C163.43 127.348 163.792 128.369 164.181 129.571L165.132 129.263L166.084 128.955C165.686 127.728 165.311 126.666 164.987 125.844L164.057 126.21ZM165.132 129.263L164.181 129.571C164.96 131.977 165.849 135.094 166.63 138.367L167.603 138.135L168.576 137.903C167.783 134.58 166.879 131.412 166.084 128.956L165.132 129.263ZM167.603 138.135L166.63 138.367C167.411 141.641 168.082 145.061 168.425 148.075L169.419 147.962L170.412 147.849C170.057 144.726 169.367 141.221 168.576 137.903L167.603 138.135ZM169.419 147.962L168.425 148.075C168.771 151.111 168.775 153.659 168.279 155.237L169.233 155.536L170.187 155.836C170.82 153.823 170.76 150.903 170.412 147.849L169.419 147.962ZM169.233 155.536L168.279 155.237C167.79 156.795 166.501 158.423 164.735 160.005L165.403 160.75L166.07 161.495C167.929 159.829 169.537 157.907 170.187 155.836L169.233 155.536ZM165.403 160.75L164.735 160.005C162.979 161.579 160.799 163.066 158.603 164.353L159.108 165.215L159.613 166.078C161.88 164.751 164.181 163.188 166.07 161.495L165.403 160.75ZM159.108 165.215L158.603 164.353C156.408 165.638 154.21 166.715 152.425 167.472L152.816 168.392L153.206 169.313C155.067 168.523 157.343 167.408 159.613 166.078L159.108 165.215ZM152.816 168.392L152.425 167.472C151.533 167.85 150.748 168.147 150.123 168.349L150.43 169.3L150.738 170.252C151.434 170.027 152.276 169.707 153.206 169.313L152.816 168.392ZM150.43 169.3L150.123 168.349C149.478 168.557 149.056 168.648 148.859 168.651L148.876 169.651L148.894 170.651C149.421 170.641 150.1 170.458 150.738 170.252L150.43 169.3ZM148.876 169.651L148.859 168.651C148.398 168.659 147.922 168.528 147.416 168.319L147.034 169.243L146.651 170.167C147.273 170.424 148.041 170.666 148.894 170.651L148.876 169.651ZM147.034 169.243L147.416 168.319C146.896 168.104 146.418 167.84 145.877 167.581L145.446 168.483L145.014 169.385C145.419 169.579 146.073 169.928 146.651 170.167L147.034 169.243ZM145.446 168.483L145.877 167.581C145.35 167.329 144.795 167.1 144.241 167.037C143.624 166.967 143.033 167.106 142.501 167.519L143.115 168.309L143.728 169.098C143.818 169.029 143.879 169.009 144.016 169.024C144.215 169.047 144.514 169.146 145.014 169.385L145.446 168.483ZM143.115 168.309L142.501 167.519C141.516 168.285 140.975 169.421 140.487 170.305L141.362 170.789L142.237 171.273C142.826 170.206 143.151 169.548 143.729 169.098L143.115 168.309ZM141.362 170.789L140.487 170.305C139.97 171.24 139.503 171.924 138.698 172.208L139.031 173.151L139.364 174.094C140.952 173.534 141.729 172.191 142.237 171.273L141.362 170.789ZM139.031 173.151L138.698 172.208C138.502 172.277 138.136 172.353 137.596 172.421L137.721 173.413L137.846 174.405C138.408 174.334 138.953 174.239 139.363 174.094L139.031 173.151ZM137.721 173.413L137.596 172.421C137.065 172.488 136.396 172.544 135.613 172.586L135.666 173.584L135.718 174.583C136.533 174.54 137.253 174.48 137.846 174.405L137.721 173.413ZM135.666 173.584L135.613 172.586C134.048 172.668 132.043 172.689 129.803 172.617L129.771 173.616L129.739 174.616C132.025 174.689 134.088 174.669 135.718 174.583L135.666 173.584ZM129.771 173.616L129.803 172.617C125.32 172.472 119.924 171.953 115.253 170.816L115.016 171.787L114.78 172.759C119.632 173.94 125.176 174.468 129.739 174.616L129.771 173.616ZM115.016 171.787L115.253 170.816C113.076 170.286 110.981 168.452 109.074 165.553L108.239 166.102L107.403 166.651C109.42 169.719 111.879 172.053 114.78 172.759L115.016 171.787ZM108.239 166.102L109.074 165.553C108.475 164.641 107.897 163.628 107.344 162.525L106.451 162.974L105.557 163.422C106.139 164.583 106.755 165.665 107.403 166.651L108.239 166.102ZM106.451 162.974L105.654 162.368C105.548 162.508 105.445 162.642 105.342 162.772L106.125 163.394L106.908 164.017C107.024 163.87 107.137 163.723 107.247 163.579L106.451 162.974ZM106.125 163.394L105.342 162.772C103.84 164.662 102.158 166.185 100.529 167.185L101.052 168.037L101.575 168.89C103.437 167.747 105.288 166.054 106.908 164.017L106.125 163.394ZM101.052 168.037L100.529 167.185C98.889 168.191 97.3593 168.633 96.1401 168.459L95.9989 169.449L95.8577 170.439C97.7333 170.707 99.7465 170.012 101.575 168.89L101.052 168.037ZM95.9989 169.449L96.14 168.459C95.309 168.341 94.4794 168.571 93.6648 168.992L94.1236 169.88L94.5824 170.769C95.1884 170.456 95.5866 170.401 95.8578 170.439L95.9989 169.449ZM94.1236 169.88L93.6647 168.992C92.852 169.411 92.0148 170.04 91.1512 170.772L91.7975 171.535L92.4439 172.298C93.2712 171.597 93.972 171.084 94.5824 170.769L94.1236 169.88ZM91.7975 171.535L91.1512 170.772C90.2862 171.504 89.369 172.365 88.4057 173.251L89.083 173.987L89.7603 174.723C90.7467 173.815 91.6199 172.996 92.4439 172.298L91.7975 171.535ZM89.083 173.987L88.4057 173.251C87.4374 174.143 86.4137 175.071 85.3197 175.96L85.9504 176.736L86.5811 177.512C87.7258 176.582 88.7874 175.619 89.7603 174.723L89.083 173.987ZM85.9504 176.736L85.3197 175.96C80.9493 179.512 75.5243 182.391 68.2581 179.715L67.9126 180.654L67.5671 181.592C75.81 184.628 81.9856 181.247 86.5811 177.512L85.9504 176.736ZM67.9126 180.654L68.2581 179.715C60.7964 176.968 55.8497 173.881 52.0234 169.823L51.2958 170.509L50.5682 171.195C54.6662 175.541 59.909 178.772 67.567 181.592L67.9126 180.654ZM51.2958 170.509L52.0234 169.823C48.1899 165.757 45.4493 160.683 42.4494 153.897L41.5347 154.301L40.6201 154.706C43.6411 161.54 46.4924 166.872 50.5682 171.195L51.2958 170.509ZM41.5347 154.301L42.4494 153.897C38.165 144.204 39.3521 134.438 44.5198 126.068L43.6689 125.543L42.818 125.017C37.3331 133.901 36.0477 144.361 40.6201 154.706L41.5347 154.301ZM43.6689 125.543L43.584 124.546C40.7952 124.784 38.0601 125.16 35.4405 125.734L35.6543 126.711L35.8681 127.688C38.3845 127.137 41.0309 126.771 43.7537 126.539L43.6689 125.543ZM35.6543 126.711L35.4405 125.734C30.5898 126.795 26.9168 125.489 24.4095 122.682L23.6636 123.348L22.9177 124.014C25.9567 127.417 30.3903 128.886 35.8681 127.688L35.6543 126.711ZM23.6636 123.348L24.4095 122.682C21.8767 119.845 20.4763 115.411 20.3588 110.136L19.359 110.158L18.3593 110.18C18.4829 115.731 19.9556 120.697 22.9177 124.014L23.6636 123.348ZM19.359 110.158L20.3588 110.136C20.1242 99.5988 25.0159 85.9448 35.6707 75.7889L34.9807 75.0651L34.2907 74.3412C23.239 84.8754 18.1119 99.0668 18.3593 110.18L19.359 110.158ZM34.9807 75.0651L35.7516 75.7021C37.128 74.0365 37.1155 71.9552 36.9392 70.137L35.9439 70.2336L34.9485 70.3301C35.1207 72.1059 35.0285 73.4374 34.2098 74.4281L34.9807 75.0651ZM35.9439 70.2336L36.9392 70.137C36.8467 69.1836 36.7162 68.3569 36.6658 67.5583L35.6677 67.6214L34.6697 67.6844C34.721 68.4954 34.8739 69.5607 34.9485 70.3301L35.9439 70.2336ZM35.6677 67.6214L36.6658 67.5583C36.6162 66.7735 36.6582 66.1558 36.8582 65.6972L35.9416 65.2975L35.0249 64.8978C34.6256 65.8137 34.616 66.834 34.6697 67.6844L35.6677 67.6214ZM35.9416 65.2975L36.8581 65.6974C36.9331 65.5254 37.1648 65.2425 37.6156 64.8758L36.9846 64.1001L36.3535 63.3243C35.8517 63.7325 35.3005 64.2662 35.025 64.8977L35.9416 65.2975ZM36.9846 64.1001L37.6156 64.8759C38.0516 64.5212 38.6446 64.1261 39.3675 63.716L38.874 62.8462L38.3805 61.9765C37.596 62.4216 36.9023 62.8779 36.3536 63.3243L36.9846 64.1001ZM38.874 62.8462L39.3675 63.716C40.8108 62.8972 42.7364 62.0414 44.8828 61.3512L44.5766 60.3992L44.2705 59.4472C42.0074 60.175 39.9544 61.0836 38.3806 61.9765L38.874 62.8462ZM44.5766 60.3992L44.8827 61.3512C49.1963 59.9642 54.2774 59.2856 58.1041 60.7826L58.4684 59.8513L58.8327 58.92C54.353 57.1676 48.7193 58.0167 44.2705 59.4472L44.5766 60.3992ZM58.4684 59.8513L58.154 60.8006C61.81 62.0115 65.1333 63.6738 68.1442 65.6772L68.6982 64.8447L69.2521 64.0121C66.0996 61.9144 62.616 60.1716 58.7829 58.902L58.4684 59.8513ZM68.6982 64.8447L69.6929 64.7419C68.7828 55.9368 69.2477 50.0046 71.1789 45.7854L70.2697 45.3692L69.3604 44.953C67.1983 49.6766 66.7845 56.0566 67.7035 64.9475L68.6982 64.8447ZM70.2697 45.3692L71.1789 45.7854C73.4598 40.8025 77.8451 38.0831 84.8507 35.9075L84.5541 34.9525L84.2575 33.9975C77.0609 36.2324 71.997 39.1928 69.3604 44.953L70.2697 45.3692ZM84.5541 34.9525L85.3369 35.5747C85.3696 35.5336 85.3918 35.4989 85.3999 35.4861C85.4044 35.479 85.4079 35.4731 85.4081 35.4728C85.4095 35.4706 85.4065 35.4755 85.4034 35.4805L84.5558 34.9499L83.7082 34.4192C83.7048 34.4247 83.7015 34.4301 83.7026 34.4283C83.7027 34.4281 83.7036 34.4267 83.7047 34.4248C83.7059 34.4229 83.7077 34.4199 83.71 34.4163C83.7176 34.4044 83.7392 34.3705 83.7713 34.3302L84.5541 34.9525ZM84.5558 34.9499L85.4033 35.4806C85.4633 35.3848 85.5545 35.2436 85.6729 35.0712L84.8485 34.5052L84.0241 33.9392C83.8891 34.1358 83.7825 34.3006 83.7082 34.4192L84.5558 34.9499ZM84.8485 34.5052L85.6728 35.0713C85.9095 34.7267 86.2528 34.2605 86.6827 33.7726L85.9324 33.1115L85.1821 32.4504C84.6861 33.0133 84.2936 33.5468 84.0241 33.9391L84.8485 34.5052ZM85.9324 33.1115L86.6827 33.7726C87.5565 32.7809 88.7323 31.761 90.0367 31.4133L89.7792 30.447L89.5216 29.4808C87.6368 29.9832 86.1356 31.3683 85.1821 32.4504L85.9324 33.1115ZM89.7792 30.447L90.0366 31.4133C91.3631 31.0599 93.2662 31.2763 94.9037 31.6136L95.1055 30.6341L95.3072 29.6547C93.6514 29.3136 91.3401 28.9963 89.5217 29.4808L89.7792 30.447ZM95.1055 30.6341L94.9037 31.6136C95.7086 31.7794 96.4263 31.9699 96.9434 32.1186L97.2197 31.1575L97.496 30.1964C96.9449 30.038 96.1757 29.8336 95.3072 29.6547L95.1055 30.6341ZM97.2197 31.1575L96.9434 32.1186C97.2024 32.193 97.41 32.2564 97.5508 32.301L97.8523 31.3475L98.1538 30.394C97.9959 30.3441 97.7714 30.2756 97.496 30.1964L97.2197 31.1575ZM97.8523 31.3475L97.5508 32.301C97.588 32.3127 97.6195 32.323 97.6528 32.3337L97.9603 31.3822L98.2678 30.4306C98.2394 30.4215 98.1988 30.4083 98.1538 30.394L97.8523 31.3475ZM97.9603 31.3822L98.1377 32.3663C98.123 32.369 98.1103 32.3709 98.1003 32.3723C98.0903 32.3737 98.0818 32.3748 98.0757 32.3755C98.0695 32.3762 98.0646 32.3767 98.0619 32.377C98.0594 32.3772 98.0573 32.3774 98.058 32.3773C98.058 32.3773 98.0587 32.3773 98.0596 32.3772C98.0605 32.3771 98.0619 32.377 98.0635 32.3768C98.0668 32.3765 98.0722 32.3759 98.0788 32.3751C98.0855 32.3744 98.0943 32.3733 98.1047 32.3718C98.1151 32.3704 98.128 32.3684 98.1428 32.3657L97.9655 31.3816L97.7882 30.3974C97.8026 30.3948 97.8151 30.3929 97.825 30.3915C97.835 30.3901 97.8434 30.389 97.8496 30.3883C97.8558 30.3876 97.8607 30.3871 97.8636 30.3868C97.8662 30.3866 97.8683 30.3864 97.8678 30.3864C97.8678 30.3864 97.8676 30.3864 97.8674 30.3864C97.8671 30.3865 97.8668 30.3865 97.8663 30.3865C97.8655 30.3866 97.8642 30.3868 97.8625 30.3869C97.8593 30.3872 97.854 30.3878 97.8474 30.3885C97.8408 30.3893 97.8319 30.3904 97.8215 30.3919C97.811 30.3933 97.7979 30.3953 97.7829 30.3981L97.9603 31.3822ZM97.9655 31.3816L98.1428 32.3657C98.2232 32.3512 98.3381 32.332 98.5094 32.3024L98.3393 31.317L98.1691 30.3316C98.0141 30.3583 97.8777 30.3813 97.7882 30.3974L97.9655 31.3816ZM98.3393 31.317L98.5094 32.3024C98.833 32.2466 99.3048 32.1663 99.9037 32.0729L99.7496 31.0849L99.5955 30.0968C98.982 30.1925 98.4987 30.2747 98.1691 30.3316L98.3393 31.317ZM99.7496 31.0849L99.9037 32.0729C101.105 31.8855 102.82 31.6399 104.868 31.4065L104.755 30.413L104.642 29.4194C102.562 29.6563 100.82 29.9059 99.5955 30.0968L99.7496 31.0849ZM104.755 30.413L104.868 31.4065C108.967 30.9396 114.39 30.5255 119.713 30.7256L119.751 29.7264L119.788 28.7271C114.326 28.5217 108.793 28.9464 104.642 29.4194L104.755 30.413ZM90.7589 96.679L89.8014 96.9675C91.5346 102.721 92.3806 108.217 92.4596 112.708L93.4594 112.691L94.4592 112.673C94.3767 107.976 93.4958 102.298 91.7164 96.3906L90.7589 96.679ZM93.4594 112.691L92.4596 112.708C92.4746 113.566 92.4581 114.39 92.4177 115.175L93.4163 115.226L94.415 115.278C94.4577 114.449 94.4751 113.579 94.4592 112.673L93.4594 112.691ZM93.4163 115.226L93.1591 116.193C95.5762 116.836 98.1148 117.563 100.821 118.362L101.105 117.403L101.388 116.444C98.6724 115.642 96.1148 114.91 93.6736 114.26L93.4163 115.226ZM101.105 117.403L100.814 118.359L100.944 118.399L101.235 117.442L101.525 116.485L101.396 116.446L101.105 117.403ZM101.235 117.442L100.511 118.132L100.605 118.231L101.329 117.541L102.053 116.851L101.958 116.752L101.235 117.442ZM101.329 117.541L100.599 118.224C100.773 118.411 100.946 118.602 101.119 118.796L101.866 118.132L102.613 117.467C102.434 117.266 102.25 117.062 102.059 116.857L101.329 117.541ZM101.866 118.132L102.759 118.582C103.409 117.291 104.234 115.869 105.267 114.437L104.456 113.852L103.645 113.267C102.54 114.797 101.662 116.313 100.973 117.682L101.866 118.132ZM104.456 113.852L105.267 114.437C106.231 113.102 107.375 111.759 108.724 110.508L108.044 109.775L107.364 109.042C105.906 110.394 104.676 111.839 103.645 113.267L104.456 113.852ZM108.044 109.775L108.906 109.268C108.401 108.409 107.959 107.533 107.572 106.636L106.654 107.032L105.735 107.428C106.154 108.4 106.634 109.35 107.182 110.282L108.044 109.775ZM106.654 107.032L107.152 106.165C100.988 102.624 95.8607 99.3799 91.3728 95.8897L90.7589 96.679L90.145 97.4684C94.7382 101.041 99.9557 104.338 106.155 107.899L106.654 107.032Z" fill="#EDF9FF"/>
<circle cx="103.337" cy="107.701" r="21.5" transform="rotate(0.477171 103.337 107.701)" fill="white" stroke="#005078"/>
<circle cx="111.609" cy="108.349" r="5.87208" transform="rotate(73.9141 111.609 108.349)" fill="#005078"/>
</svg>
