<svg width="157" height="157" viewBox="0 0 157 157" fill="none" xmlns="http://www.w3.org/2000/svg">
	<path d="M78.0005 1C79.6279 1.00004 81.5952 1.80079 83.0991 2.55273C83.8632 2.93478 84.5307 3.31659 85.0073 3.60254C85.2458 3.74564 85.4376 3.86511 85.5698 3.94922C85.6063 3.97243 85.6383 3.99316 85.6655 4.01074C85.6671 4.0109 85.6688 4.01159 85.6704 4.01172C85.7564 4.01881 85.8834 4.03012 86.0483 4.04492C86.3784 4.07456 86.861 4.11979 87.4712 4.18457C88.6916 4.31413 90.4253 4.51989 92.48 4.82422C96.5867 5.43249 101.989 6.43763 107.147 8.02246C109.962 8.88738 111.808 11.81 112.973 15.5693C114.148 19.3611 114.683 24.1688 114.757 29.085C114.781 30.6434 114.758 32.2156 114.694 33.7734C117.399 31.4988 120.005 29.4765 122.373 27.8174C125.061 25.9333 127.462 24.5036 129.361 23.7109C130.308 23.3157 131.16 23.0662 131.877 23.0117C132.59 22.9576 133.261 23.0918 133.715 23.5811C136.124 26.1773 138.087 27.5268 139.456 28.417C140.126 28.8534 140.711 29.2143 141.112 29.5566C141.527 29.9121 141.848 30.3336 141.848 30.9209C141.848 31.6779 141.849 32.6419 141.968 33.4756C142.028 33.8922 142.114 34.2496 142.23 34.5205C142.348 34.7968 142.472 34.9238 142.572 34.9736C142.935 35.1551 143.435 35.1728 144.049 35.1113C144.351 35.0811 144.647 35.0367 144.956 34.9961C145.253 34.9569 145.563 34.9209 145.848 34.9209C146.009 34.9209 146.173 34.975 146.296 35.0234C146.435 35.0777 146.592 35.1532 146.758 35.2422C147.092 35.4207 147.502 35.6723 147.954 35.9736C148.86 36.5779 149.968 37.4009 151.041 38.2852C152.114 39.1681 153.165 40.1227 153.954 40.9912C154.347 41.4246 154.684 41.8483 154.927 42.2393C155.16 42.6144 155.348 43.0265 155.348 43.4209C155.348 43.7145 155.296 44.1405 155.216 44.6484C155.136 45.1657 155.021 45.8026 154.889 46.5312C154.624 47.9922 154.284 49.8418 153.974 51.9248C153.353 56.0959 152.86 61.1716 153.346 65.8691L153.351 65.917L153.347 65.9639C152.387 77.2211 149.808 84.6544 144.321 89.8057C142.749 91.281 140.945 92.5612 138.884 93.6904C139.563 94.4862 140.254 95.3139 140.941 96.1621C143.073 98.796 145.18 101.626 146.82 104.243C148.447 106.841 149.656 109.293 149.922 111.156C150.191 113.039 149.651 115.265 148.717 117.513C147.778 119.773 146.415 122.115 144.966 124.257C143.517 126.4 141.972 128.355 140.662 129.839C140.006 130.581 139.406 131.21 138.902 131.688C138.413 132.151 137.975 132.512 137.651 132.674C137.063 132.968 136.422 133.069 135.813 133.102C135.219 133.134 134.576 133.102 134.052 133.102C132.914 133.102 132.227 133.246 131.874 133.95C131.432 134.835 131.429 135.832 131.364 136.944C131.302 138.001 131.178 139.184 130.281 140.081C130.053 140.309 129.679 140.582 129.211 140.883C128.735 141.189 128.134 141.541 127.432 141.924C126.027 142.689 124.201 143.586 122.128 144.497C117.985 146.318 112.825 148.206 108.03 149.216C105.472 149.754 102.519 148.857 99.4614 147.013C96.3919 145.161 93.1443 142.31 89.9634 138.809C89.2281 137.999 88.4957 137.154 87.769 136.277C81.8796 146.081 71.8031 150.472 62.1958 154.315C57.0518 156.373 51.1699 155.851 46.4634 154.134C44.1069 153.274 42.0225 152.106 40.4546 150.789C38.8964 149.48 37.7977 147.978 37.518 146.44C37.4184 145.893 37.0887 145.356 36.5161 144.798C35.9426 144.239 35.1581 143.69 34.2114 143.114C33.2658 142.539 32.1865 141.955 31.0268 141.313C29.8723 140.675 28.646 139.985 27.4292 139.211C22.5554 136.109 17.7522 131.596 18.0102 123.336C18.1707 118.199 18.7938 113.967 19.9331 110.254C17.8624 110.508 15.8539 110.162 13.9663 109.295C10.2176 107.573 7.02165 103.84 4.74656 98.9268C0.197004 89.101 -0.778668 74.3366 5.03269 60.5146C5.50759 58.8584 4.86118 57.2786 3.98289 55.7012C3.56184 54.945 3.05443 54.1343 2.68601 53.417C2.31173 52.6882 2.00741 51.9275 2.0073 51.1777C2.0073 50.7394 2.20312 50.2088 2.48484 49.6631C2.776 49.0991 3.19548 48.4521 3.71531 47.7588C4.7558 46.3711 6.22601 44.7668 7.96336 43.2354C11.4157 40.1922 16.0206 37.3503 20.477 37.1787C32.1485 36.1076 42.6929 39.9738 51.3725 45.8691C50.1376 42.4614 49.0338 38.7534 48.0151 34.6201L47.9936 34.5322L48.0034 34.4424C49.4063 22.4392 51.5507 14.946 55.3061 10.3936C59.0654 5.83653 64.362 4.30974 71.7915 4.00781C71.7923 4.00707 71.7936 4.00662 71.7944 4.00586C71.8869 3.91955 72.021 3.79701 72.1909 3.65137C72.5303 3.36046 73.0152 2.97259 73.5981 2.58398C74.748 1.8174 76.3502 1 78.0005 1ZM78.3052 82.3965L77.9624 82.6592L77.6528 82.3594C77.0981 81.8215 76.5532 81.2905 76.018 80.7656C75.9626 81.5953 75.7797 82.3257 75.4438 82.9229C74.7382 84.1772 73.5147 85.3234 71.9204 86.4072C72.3301 86.6201 72.7382 86.8408 73.145 87.0684L73.7612 87.4189L73.8442 87.4668L73.9038 87.543C75.0938 89.0663 76.1834 90.5458 77.1821 91.9932C79.1648 88.9345 82.0414 86.0498 86.188 83.7881C86.8178 83.4446 87.4621 83.1313 88.1167 82.8408C87.0757 81.2018 86.0266 79.4779 84.9223 77.6836C84.8712 77.6004 84.8245 77.515 84.7778 77.4297C82.8026 78.9451 80.6523 80.5969 78.3052 82.3965Z" fill="var(--primary)"/>
	<path d="M78.0005 1L78.0005 0H78.0005V1ZM83.0991 2.55273L83.5463 1.65831L83.5463 1.65831L83.0991 2.55273ZM85.0073 3.60254L85.5218 2.74505L85.5218 2.74504L85.0073 3.60254ZM85.5698 3.94922L86.1067 3.10556V3.10556L85.5698 3.94922ZM85.6655 4.01074L85.1233 4.851L85.3267 4.98225L85.5676 5.00594L85.6655 4.01074ZM85.6704 4.01172L85.7526 3.0151L85.7526 3.0151L85.6704 4.01172ZM86.0483 4.04492L86.1377 3.04893L86.1377 3.04893L86.0483 4.04492ZM87.4712 4.18457L87.5767 3.19016V3.19016L87.4712 4.18457ZM92.48 4.82422L92.6265 3.83501V3.83501L92.48 4.82422ZM107.147 8.02246L107.441 7.06657L107.441 7.06656L107.147 8.02246ZM112.973 15.5693L113.928 15.2734L113.928 15.2734L112.973 15.5693ZM114.757 29.085L115.757 29.0698V29.0698L114.757 29.085ZM114.694 33.7734L113.695 33.7326L113.602 35.998L115.337 34.5388L114.694 33.7734ZM122.373 27.8174L121.799 26.9985L121.799 26.9985L122.373 27.8174ZM129.361 23.7109L128.976 22.7881L128.976 22.7881L129.361 23.7109ZM131.877 23.0117L131.802 22.0146L131.802 22.0146L131.877 23.0117ZM133.715 23.5811L132.982 24.2611V24.2611L133.715 23.5811ZM139.456 28.417L138.91 29.2552V29.2552L139.456 28.417ZM141.112 29.5566L141.762 28.7967L141.762 28.7967L141.112 29.5566ZM141.848 30.9209H142.848V30.9208L141.848 30.9209ZM141.968 33.4756L140.978 33.617V33.617L141.968 33.4756ZM142.23 34.5205L141.311 34.9142L141.311 34.9145L142.23 34.5205ZM142.572 34.9736L142.123 35.8674L142.125 35.8681L142.572 34.9736ZM144.049 35.1113L144.149 36.1064L144.149 36.1064L144.049 35.1113ZM144.956 34.9961L144.825 34.0046H144.825L144.956 34.9961ZM145.848 34.9209L145.848 33.9209H145.848L145.848 34.9209ZM146.296 35.0234L146.661 34.0922L146.661 34.0922L146.296 35.0234ZM146.758 35.2422L147.229 34.3602L147.229 34.3601L146.758 35.2422ZM147.954 35.9736L148.508 35.1416L148.508 35.1416L147.954 35.9736ZM151.041 38.2852L151.677 37.5132V37.5132L151.041 38.2852ZM153.954 40.9912L154.694 40.3192L154.694 40.3192L153.954 40.9912ZM154.927 42.2393L155.777 41.7118L155.777 41.7117L154.927 42.2393ZM155.348 43.4209H156.348V43.4208L155.348 43.4209ZM155.216 44.6484L156.204 44.8027V44.8027L155.216 44.6484ZM154.889 46.5312L153.905 46.353V46.353L154.889 46.5312ZM153.974 51.9248L152.985 51.7775H152.985L153.974 51.9248ZM153.346 65.8691L154.341 65.7676L154.341 65.7663L153.346 65.8691ZM153.351 65.917L154.348 66L154.355 65.9077L154.346 65.8155L153.351 65.917ZM153.347 65.9639L154.344 66.0489L154.344 66.0469L153.347 65.9639ZM144.321 89.8057L145.005 90.5347L145.005 90.5347L144.321 89.8057ZM138.884 93.6904L138.404 92.8135L137.326 93.4042L138.123 94.3394L138.884 93.6904ZM140.941 96.1621L141.718 95.5329V95.5329L140.941 96.1621ZM146.82 104.243L147.667 103.712V103.712L146.82 104.243ZM149.922 111.156L148.932 111.298V111.298L149.922 111.156ZM148.717 117.513L149.641 117.896V117.896L148.717 117.513ZM144.966 124.257L145.795 124.817L145.795 124.817L144.966 124.257ZM140.662 129.839L141.411 130.501H141.411L140.662 129.839ZM138.902 131.688L139.59 132.413V132.413L138.902 131.688ZM137.651 132.674L138.098 133.568L138.098 133.568L137.651 132.674ZM135.813 133.102L135.867 134.1L135.867 134.1L135.813 133.102ZM134.052 133.102L134.052 132.102H134.052V133.102ZM131.874 133.95L130.98 133.503L130.98 133.503L131.874 133.95ZM131.364 136.944L132.362 137.003V137.003L131.364 136.944ZM130.281 140.081L130.988 140.788L130.988 140.788L130.281 140.081ZM129.211 140.883L129.753 141.724H129.753L129.211 140.883ZM127.432 141.924L127.911 142.802H127.911L127.432 141.924ZM122.128 144.497L122.531 145.413V145.413L122.128 144.497ZM108.03 149.216L108.236 150.194H108.236L108.03 149.216ZM99.4614 147.013L98.9448 147.869H98.9448L99.4614 147.013ZM89.9634 138.809L89.2232 139.481H89.2232L89.9634 138.809ZM87.769 136.277L88.5389 135.639L87.6384 134.553L86.9118 135.762L87.769 136.277ZM62.1958 154.315L62.5672 155.244H62.5672L62.1958 154.315ZM46.4634 154.134L46.1206 155.073H46.1206L46.4634 154.134ZM40.4546 150.789L39.8113 151.555L39.8113 151.555L40.4546 150.789ZM37.518 146.44L38.5019 146.262L38.5019 146.261L37.518 146.44ZM36.5161 144.798L37.214 144.082L37.214 144.082L36.5161 144.798ZM34.2114 143.114L34.731 142.26H34.731L34.2114 143.114ZM31.0268 141.313L30.543 142.189V142.189L31.0268 141.313ZM27.4292 139.211L26.8923 140.055H26.8923L27.4292 139.211ZM18.0102 123.336L17.0107 123.305V123.305L18.0102 123.336ZM19.9331 110.254L20.8891 110.547L21.3414 109.073L19.8111 109.261L19.9331 110.254ZM13.9663 109.295L13.549 110.204H13.549L13.9663 109.295ZM4.74656 98.9268L3.83911 99.3469L3.83912 99.3469L4.74656 98.9268ZM5.03269 60.5146L5.95453 60.9022L5.97757 60.8474L5.99396 60.7903L5.03269 60.5146ZM3.98289 55.7012L4.85659 55.2147L4.85658 55.2147L3.98289 55.7012ZM2.68601 53.417L1.79647 53.8738L1.79647 53.8738L2.68601 53.417ZM2.0073 51.1777L1.0073 51.1777L1.0073 51.1779L2.0073 51.1777ZM2.48484 49.6631L1.59628 49.2043L1.59628 49.2043L2.48484 49.6631ZM3.71531 47.7588L2.91523 47.1589L2.91523 47.1589L3.71531 47.7588ZM7.96336 43.2354L7.30211 42.4852L7.30211 42.4852L7.96336 43.2354ZM20.477 37.1787L20.5155 38.178L20.542 38.1769L20.5684 38.1745L20.477 37.1787ZM51.3725 45.8691L50.8107 46.6964L53.3646 48.431L52.3127 45.5284L51.3725 45.8691ZM48.0151 34.6201L47.0437 34.8576L47.0442 34.8594L48.0151 34.6201ZM47.9936 34.5322L46.9995 34.4242L46.9805 34.5989L47.0222 34.7697L47.9936 34.5322ZM48.0034 34.4424L47.0101 34.3263L47.0093 34.3343L48.0034 34.4424ZM55.3061 10.3936L54.5347 9.7572L54.5347 9.75721L55.3061 10.3936ZM71.7915 4.00781L71.8321 5.00699L72.189 4.99248L72.456 4.75511L71.7915 4.00781ZM71.7944 4.00586L71.1121 3.27479L71.1121 3.27482L71.7944 4.00586ZM72.1909 3.65137L71.5401 2.89209L71.5401 2.89211L72.1909 3.65137ZM73.5981 2.58398L73.0434 1.75193L73.0434 1.75193L73.5981 2.58398ZM78.3052 82.3965L78.9134 83.1902L78.9136 83.1901L78.3052 82.3965ZM77.9624 82.6592L77.2667 83.3775L77.8862 83.9775L78.5707 83.4529L77.9624 82.6592ZM77.6528 82.3594L76.9567 83.0773L76.9571 83.0777L77.6528 82.3594ZM76.018 80.7656L76.7182 80.0517L75.1654 78.5287L75.0203 80.6989L76.018 80.7656ZM75.4438 82.9229L76.3154 83.4131L76.3154 83.4131L75.4438 82.9229ZM71.9204 86.4072L71.3582 85.5802L69.9726 86.5221L71.4593 87.2946L71.9204 86.4072ZM73.145 87.0684L73.6395 86.1992L73.6331 86.1956L73.145 87.0684ZM73.7612 87.4189L74.2606 86.5526L74.2557 86.5498L73.7612 87.4189ZM73.8442 87.4668L74.6319 86.8508L74.5121 86.6976L74.3436 86.6004L73.8442 87.4668ZM73.9038 87.543L74.6918 86.9274L74.6915 86.9269L73.9038 87.543ZM77.1821 91.9932L76.359 92.5611L77.2081 93.7916L78.0212 92.5371L77.1821 91.9932ZM86.188 83.7881L85.7091 82.9102L85.7091 82.9102L86.188 83.7881ZM88.1167 82.8408L88.5223 83.7549L89.5829 83.2842L88.9608 82.3047L88.1167 82.8408ZM84.9223 77.6836L85.774 77.1595V77.1595L84.9223 77.6836ZM84.7778 77.4297L85.6552 76.9498L85.0951 75.9258L84.1691 76.6363L84.7778 77.4297ZM78.0005 1L78.0004 2C79.3732 2.00003 81.1562 2.69934 82.6519 3.44716L83.0991 2.55273L83.5463 1.65831C82.0342 0.902242 79.8825 4.33922e-05 78.0005 0L78.0005 1ZM83.0991 2.55273L82.6519 3.44716C83.3872 3.81483 84.0317 4.18339 84.4928 4.46004L85.0073 3.60254L85.5218 2.74504C85.0297 2.44979 84.3391 2.05472 83.5463 1.65831L83.0991 2.55273ZM85.0073 3.60254L84.4928 4.46003C84.7238 4.59866 84.9082 4.71352 85.0329 4.79288L85.5698 3.94922L86.1067 3.10556C85.9671 3.0167 85.7678 2.89262 85.5218 2.74505L85.0073 3.60254ZM85.5698 3.94922L85.0329 4.79287C85.0659 4.8139 85.0941 4.83217 85.1233 4.851L85.6655 4.01074L86.2077 3.17049C86.1824 3.15415 86.1466 3.13097 86.1067 3.10556L85.5698 3.94922ZM85.6655 4.01074L85.5676 5.00594C85.5411 5.00333 85.518 4.99997 85.4994 4.99682C85.4807 4.99368 85.4652 4.99049 85.4537 4.98799C85.4423 4.98551 85.4333 4.98334 85.4285 4.98214C85.4259 4.98152 85.4239 4.98102 85.423 4.98077C85.4222 4.98059 85.4212 4.98033 85.422 4.98054C85.4223 4.98061 85.4275 4.98193 85.4339 4.98348C85.4407 4.98511 85.4514 4.98762 85.4646 4.99038C85.4778 4.99315 85.4951 4.99648 85.5154 4.99965C85.5357 5.00283 85.5602 5.00603 85.5882 5.00834L85.6704 4.01172L85.7526 3.0151C85.7801 3.01737 85.8043 3.02052 85.8242 3.02364C85.8441 3.02674 85.8609 3.03 85.8738 3.03268C85.8865 3.03536 85.8968 3.03778 85.9032 3.03931C85.9064 3.04009 85.9091 3.04075 85.9108 3.04118C85.9124 3.04159 85.9137 3.04191 85.9138 3.04194C85.9144 3.04209 85.9132 3.04179 85.9123 3.04156C85.9111 3.04125 85.9089 3.0407 85.9062 3.04003C85.9009 3.03873 85.8915 3.03646 85.8797 3.03389C85.8679 3.03131 85.8519 3.02804 85.8329 3.02483C85.8138 3.02161 85.7904 3.0182 85.7634 3.01554L85.6655 4.01074ZM85.6704 4.01172L85.5882 5.00834C85.6699 5.01507 85.793 5.02602 85.9589 5.04092L86.0483 4.04492L86.1377 3.04893C85.9739 3.03422 85.8429 3.02255 85.7526 3.0151L85.6704 4.01172ZM86.0483 4.04492L85.9589 5.04092C86.2849 5.07018 86.7619 5.1149 87.3656 5.17898L87.4712 4.18457L87.5767 3.19016C86.96 3.12469 86.4719 3.07893 86.1377 3.04893L86.0483 4.04492ZM87.4712 4.18457L87.3656 5.17898C88.5747 5.30734 90.2945 5.51143 92.3334 5.81343L92.48 4.82422L92.6265 3.83501C90.5561 3.52835 88.8086 3.32093 87.5767 3.19016L87.4712 4.18457ZM92.48 4.82422L92.3334 5.81343C96.4139 6.4178 101.762 7.41398 106.853 8.97836L107.147 8.02246L107.441 7.06656C102.216 5.46129 96.7595 4.44717 92.6265 3.83501L92.48 4.82422ZM107.147 8.02246L106.853 8.97836C109.163 9.68811 110.872 12.1683 112.018 15.8653L112.973 15.5693L113.928 15.2734C112.744 11.4517 110.761 8.08665 107.441 7.06657L107.147 8.02246ZM112.973 15.5693L112.018 15.8653C113.153 19.5296 113.684 24.2314 113.757 29.1001L114.757 29.085L115.757 29.0698C115.682 24.1061 115.143 19.1926 113.928 15.2734L112.973 15.5693ZM114.757 29.085L113.757 29.1001C113.781 30.6385 113.758 32.192 113.695 33.7326L114.694 33.7734L115.693 33.8143C115.757 32.2391 115.781 30.6482 115.757 29.0698L114.757 29.085ZM114.694 33.7734L115.337 34.5388C118.025 32.279 120.608 30.2753 122.946 28.6363L122.373 27.8174L121.799 26.9985C119.403 28.6777 116.773 30.7187 114.05 33.008L114.694 33.7734ZM122.373 27.8174L122.946 28.6363C125.612 26.7679 127.945 25.3856 129.746 24.6338L129.361 23.7109L128.976 22.7881C126.979 23.6217 124.509 25.0987 121.799 26.9985L122.373 27.8174ZM129.361 23.7109L129.746 24.6338C130.649 24.257 131.388 24.0518 131.953 24.0088L131.877 23.0117L131.802 22.0146C130.932 22.0807 129.967 22.3744 128.976 22.7881L129.361 23.7109ZM131.877 23.0117L131.953 24.0088C132.525 23.9654 132.826 24.0925 132.982 24.2611L133.715 23.5811L134.448 22.901C133.697 22.091 132.655 21.9497 131.802 22.0146L131.877 23.0117ZM133.715 23.5811L132.982 24.2611C135.466 26.9384 137.502 28.339 138.91 29.2552L139.456 28.417L140.001 27.5788C138.673 26.7147 136.782 25.4162 134.448 22.901L133.715 23.5811ZM139.456 28.417L138.91 29.2552C139.626 29.721 140.127 30.0299 140.462 30.3166L141.112 29.5566L141.762 28.7967C141.296 28.3987 140.627 27.9858 140.001 27.5788L139.456 28.417ZM141.112 29.5566L140.462 30.3165C140.622 30.454 140.719 30.5664 140.775 30.6612C140.825 30.7445 140.848 30.8224 140.848 30.921L141.848 30.9209L142.848 30.9208C142.848 29.9075 142.272 29.2333 141.762 28.7967L141.112 29.5566ZM141.848 30.9209H140.848C140.848 31.6638 140.847 32.7006 140.978 33.617L141.968 33.4756L142.958 33.3342C142.851 32.5833 142.848 31.6919 142.848 30.9209H141.848ZM141.968 33.4756L140.978 33.617C141.044 34.0758 141.146 34.5297 141.311 34.9142L142.23 34.5205L143.149 34.1268C143.082 33.9695 143.012 33.7086 142.958 33.3341L141.968 33.4756ZM142.23 34.5205L141.311 34.9145C141.474 35.294 141.724 35.6671 142.123 35.8674L142.572 34.9736L143.02 34.0798C143.125 34.1325 143.177 34.1919 143.188 34.2059C143.199 34.2199 143.182 34.2023 143.149 34.1266L142.23 34.5205ZM142.572 34.9736L142.125 35.8681C142.762 36.1867 143.514 36.1698 144.149 36.1064L144.049 35.1113L143.95 34.1163C143.355 34.1758 143.107 34.1234 143.019 34.0792L142.572 34.9736ZM144.049 35.1113L144.149 36.1064C144.471 36.0741 144.801 36.025 145.086 35.9875L144.956 34.9961L144.825 34.0046C144.492 34.0484 144.231 34.0881 143.95 34.1163L144.049 35.1113ZM144.956 34.9961L145.086 35.9875C145.383 35.9484 145.635 35.9209 145.848 35.9209L145.848 34.9209L145.848 33.9209C145.491 33.9209 145.123 33.9654 144.825 34.0046L144.956 34.9961ZM145.848 34.9209L145.848 35.9209C145.833 35.9209 145.824 35.9197 145.824 35.9196C145.824 35.9196 145.828 35.9202 145.838 35.9228C145.86 35.9283 145.89 35.9381 145.932 35.9547L146.296 35.0234L146.661 34.0922C146.516 34.0355 146.206 33.921 145.848 33.9209L145.848 34.9209ZM146.296 35.0234L145.932 35.9546C146.02 35.9893 146.139 36.0453 146.287 36.1242L146.758 35.2422L147.229 34.3601C147.044 34.2611 146.849 34.166 146.661 34.0922L146.296 35.0234ZM146.758 35.2422L146.287 36.1242C146.582 36.2816 146.961 36.5139 147.399 36.8057L147.954 35.9736L148.508 35.1416C148.042 34.8308 147.603 34.5598 147.229 34.3602L146.758 35.2422ZM147.954 35.9736L147.399 36.8057C148.274 37.389 149.355 38.1914 150.406 39.0571L151.041 38.2852L151.677 37.5132C150.581 36.6104 149.446 35.7668 148.508 35.1416L147.954 35.9736ZM151.041 38.2852L150.406 39.0571C151.459 39.9242 152.47 40.8444 153.213 41.6632L153.954 40.9912L154.694 40.3192C153.861 39.401 152.769 38.4121 151.677 37.5132L151.041 38.2852ZM153.954 40.9912L153.213 41.6632C153.584 42.0725 153.879 42.4464 154.078 42.7668L154.927 42.2393L155.777 41.7117C155.49 41.2503 155.109 40.7768 154.694 40.3192L153.954 40.9912ZM154.927 42.2393L154.078 42.7667C154.286 43.1016 154.348 43.3151 154.348 43.421L155.348 43.4209L156.348 43.4208C156.348 42.7379 156.035 42.1273 155.777 41.7118L154.927 42.2393ZM155.348 43.4209H154.348C154.348 43.6277 154.308 43.9833 154.228 44.4941L155.216 44.6484L156.204 44.8027C156.283 44.2977 156.348 43.8014 156.348 43.4209H155.348ZM155.216 44.6484L154.228 44.4941C154.15 44.9972 154.038 45.6218 153.905 46.353L154.889 46.5312L155.873 46.7095C156.005 45.9834 156.121 45.3342 156.204 44.8027L155.216 44.6484ZM154.889 46.5312L153.905 46.353C153.641 47.8109 153.298 49.6762 152.985 51.7775L153.974 51.9248L154.963 52.0721C155.271 50.0073 155.608 48.1734 155.873 46.7095L154.889 46.5312ZM153.974 51.9248L152.985 51.7775C152.36 55.976 151.853 61.1495 152.351 65.972L153.346 65.8691L154.341 65.7663C153.868 61.1937 154.346 56.2158 154.963 52.0721L153.974 51.9248ZM153.346 65.8691L152.351 65.9707L152.356 66.0185L153.351 65.917L154.346 65.8155L154.341 65.7676L153.346 65.8691ZM153.351 65.917L152.354 65.8339L152.351 65.8808L153.347 65.9639L154.344 66.0469L154.348 66L153.351 65.917ZM153.347 65.9639L152.351 65.8789C151.399 77.0432 148.856 84.1759 143.636 89.0766L144.321 89.8057L145.005 90.5347C150.759 85.1329 153.375 77.399 154.344 66.0489L153.347 65.9639ZM144.321 89.8057L143.636 89.0766C142.134 90.4871 140.4 91.7194 138.404 92.8135L138.884 93.6904L139.365 94.5674C141.49 93.4029 143.365 92.0749 145.005 90.5347L144.321 89.8057ZM138.884 93.6904L138.123 94.3394C138.798 95.1298 139.483 95.9508 140.164 96.7913L140.941 96.1621L141.718 95.5329C141.025 94.6769 140.328 93.8426 139.645 93.0415L138.884 93.6904ZM140.941 96.1621L140.164 96.7913C142.281 99.4073 144.362 102.203 145.972 104.774L146.82 104.243L147.667 103.712C145.999 101.049 143.865 98.1848 141.718 95.5329L140.941 96.1621ZM146.82 104.243L145.972 104.774C147.595 107.364 148.699 109.661 148.932 111.298L149.922 111.156L150.912 111.015C150.614 108.925 149.299 106.317 147.667 103.712L146.82 104.243ZM149.922 111.156L148.932 111.298C149.163 112.915 148.704 114.939 147.794 117.129L148.717 117.513L149.641 117.896C150.598 115.591 151.219 113.164 150.912 111.015L149.922 111.156ZM148.717 117.513L147.794 117.129C146.889 119.306 145.564 121.588 144.138 123.697L144.966 124.257L145.795 124.817C147.266 122.642 148.667 120.239 149.641 117.896L148.717 117.513ZM144.966 124.257L144.138 123.697C142.713 125.803 141.195 127.724 139.912 129.177L140.662 129.839L141.411 130.501C142.749 128.985 144.32 126.997 145.795 124.817L144.966 124.257ZM140.662 129.839L139.912 129.177C139.27 129.904 138.69 130.51 138.214 130.962L138.902 131.688L139.59 132.413C140.121 131.91 140.743 131.258 141.411 130.501L140.662 129.839ZM138.902 131.688L138.214 130.962C137.724 131.427 137.38 131.691 137.203 131.78L137.651 132.674L138.098 133.568C138.569 133.333 139.103 132.875 139.59 132.413L138.902 131.688ZM137.651 132.674L137.204 131.779C136.791 131.986 136.305 132.073 135.759 132.103L135.813 133.102L135.867 134.1C136.539 134.064 137.336 133.95 138.098 133.568L137.651 132.674ZM135.813 133.102L135.759 132.103C135.197 132.133 134.652 132.102 134.052 132.102L134.052 133.102L134.052 134.102C134.501 134.102 135.242 134.134 135.867 134.1L135.813 133.102ZM134.052 133.102V132.102C133.468 132.102 132.868 132.134 132.341 132.317C131.755 132.52 131.281 132.901 130.98 133.503L131.874 133.95L132.769 134.398C132.82 134.296 132.866 134.252 132.996 134.207C133.186 134.141 133.498 134.102 134.052 134.102V133.102ZM131.874 133.95L130.98 133.503C130.422 134.618 130.425 135.877 130.365 136.886L131.364 136.944L132.362 137.003C132.434 135.786 132.441 135.052 132.769 134.397L131.874 133.95ZM131.364 136.944L130.365 136.886C130.303 137.952 130.177 138.771 129.574 139.374L130.281 140.081L130.988 140.788C132.179 139.597 132.3 138.05 132.362 137.003L131.364 136.944ZM130.281 140.081L129.574 139.374C129.426 139.521 129.129 139.747 128.67 140.042L129.211 140.883L129.753 141.724C130.229 141.417 130.68 141.096 130.988 140.788L130.281 140.081ZM129.211 140.883L128.67 140.042C128.221 140.331 127.642 140.671 126.954 141.046L127.432 141.924L127.911 142.802C128.627 142.412 129.25 142.047 129.753 141.724L129.211 140.883ZM127.432 141.924L126.954 141.046C125.577 141.796 123.778 142.68 121.726 143.582L122.128 144.497L122.531 145.413C124.625 144.492 126.477 143.583 127.911 142.802L127.432 141.924ZM122.128 144.497L121.726 143.582C117.619 145.386 112.528 147.247 107.824 148.237L108.03 149.216L108.236 150.194C113.122 149.166 118.351 147.249 122.531 145.413L122.128 144.497ZM108.03 149.216L107.824 148.237C105.631 148.699 102.949 147.949 99.978 146.156L99.4614 147.013L98.9448 147.869C102.088 149.765 105.314 150.81 108.236 150.194L108.03 149.216ZM99.4614 147.013L99.978 146.156C97.0192 144.371 93.8453 141.594 90.7035 138.136L89.9634 138.809L89.2232 139.481C92.4433 143.026 95.7646 145.95 98.9448 147.869L99.4614 147.013ZM89.9634 138.809L90.7035 138.136C89.979 137.339 89.2565 136.505 88.5389 135.639L87.769 136.277L86.9992 136.916C87.7349 137.803 88.4771 138.66 89.2232 139.481L89.9634 138.809ZM87.769 136.277L86.9118 135.762C81.2164 145.243 71.4558 149.534 61.8244 153.387L62.1958 154.315L62.5672 155.244C72.1504 151.411 82.5429 146.919 88.6262 136.792L87.769 136.277ZM62.1958 154.315L61.8244 153.387C56.9685 155.329 51.3495 154.852 46.8061 153.194L46.4634 154.134L46.1206 155.073C50.9902 156.85 57.1352 157.417 62.5672 155.244L62.1958 154.315ZM46.4634 154.134L46.8061 153.194C44.5384 152.367 42.561 151.253 41.0978 150.023L40.4546 150.789L39.8113 151.555C41.4841 152.96 43.6755 154.181 46.1206 155.073L46.4634 154.134ZM40.4546 150.789L41.0979 150.023C39.6246 148.786 38.7223 147.473 38.5019 146.262L37.518 146.44L36.5342 146.619C36.8731 148.483 38.1683 150.174 39.8113 151.555L40.4546 150.789ZM37.518 146.44L38.5019 146.261C38.3515 145.435 37.8704 144.721 37.214 144.082L36.5161 144.798L35.8181 145.514C36.3069 145.99 36.4852 146.35 36.5342 146.619L37.518 146.44ZM36.5161 144.798L37.214 144.082C36.5589 143.443 35.6979 142.848 34.731 142.26L34.2114 143.114L33.6918 143.969C34.6184 144.532 35.3262 145.035 35.8181 145.514L36.5161 144.798ZM34.2114 143.114L34.731 142.26C33.7626 141.671 32.6572 141.072 31.5107 140.438L31.0268 141.313L30.543 142.189C31.7159 142.837 32.769 143.407 33.6918 143.969L34.2114 143.114ZM31.0268 141.313L31.5107 140.438C30.3588 139.801 29.1553 139.124 27.966 138.367L27.4292 139.211L26.8923 140.055C28.1368 140.847 29.3858 141.549 30.543 142.189L31.0268 141.313ZM27.4292 139.211L27.9661 138.367C23.2146 135.344 18.768 131.107 19.0097 123.367L18.0102 123.336L17.0107 123.305C16.7365 132.085 21.8961 136.875 26.8923 140.055L27.4292 139.211ZM18.0102 123.336L19.0097 123.367C19.1683 118.293 19.7827 114.153 20.8891 110.547L19.9331 110.254L18.9771 109.961C17.8049 113.78 17.1732 118.106 17.0107 123.305L18.0102 123.336ZM19.9331 110.254L19.8111 109.261C17.9355 109.492 16.1131 109.18 14.3836 108.386L13.9663 109.295L13.549 110.204C15.5946 111.143 17.7892 111.525 20.0551 111.246L19.9331 110.254ZM13.9663 109.295L14.3836 108.386C10.9278 106.799 7.87133 103.295 5.654 98.5066L4.74656 98.9268L3.83912 99.3469C6.17198 104.385 9.50739 108.348 13.549 110.204L13.9663 109.295ZM4.74656 98.9268L5.65401 98.5066C1.22559 88.9425 0.249432 74.4715 5.95453 60.9022L5.03269 60.5146L4.11086 60.1271C-1.80677 74.2018 -0.831578 89.2596 3.83911 99.3469L4.74656 98.9268ZM5.03269 60.5146L5.99396 60.7903C6.58956 58.7131 5.74504 56.8104 4.85659 55.2147L3.98289 55.7012L3.10918 56.1876C3.97732 57.7468 4.42562 59.0038 4.07143 60.239L5.03269 60.5146ZM3.98289 55.7012L4.85658 55.2147C4.39144 54.3793 3.94083 53.6714 3.57555 52.9601L2.68601 53.417L1.79647 53.8738C2.16803 54.5973 2.73224 55.5107 3.10919 56.1876L3.98289 55.7012ZM2.68601 53.417L3.57556 52.9601C3.21601 52.26 3.00738 51.6776 3.0073 51.1776L2.0073 51.1777L1.0073 51.1779C1.00745 52.1774 1.40746 53.1164 1.79647 53.8738L2.68601 53.417ZM2.0073 51.1777L3.0073 51.1777C3.0073 50.9904 3.10652 50.6388 3.3734 50.1218L2.48484 49.6631L1.59628 49.2043C1.29972 49.7787 1.00729 50.4884 1.0073 51.1777L2.0073 51.1777ZM2.48484 49.6631L3.3734 50.1218C3.63114 49.6226 4.01669 49.0238 4.51539 48.3587L3.71531 47.7588L2.91523 47.1589C2.37427 47.8804 1.92087 48.5756 1.59628 49.2043L2.48484 49.6631ZM3.71531 47.7588L4.51539 48.3587C5.51094 47.0309 6.93341 45.4763 8.62461 43.9855L7.96336 43.2354L7.30211 42.4852C5.51862 44.0573 4.00066 45.7113 2.91523 47.1589L3.71531 47.7588ZM7.96336 43.2354L8.6246 43.9855C12.0237 40.9894 16.4094 38.3361 20.5155 38.178L20.477 37.1787L20.4386 36.1795C15.6319 36.3645 10.8078 39.3951 7.30211 42.4852L7.96336 43.2354ZM20.477 37.1787L20.5684 38.1745C31.9539 37.1297 42.271 40.8961 50.8107 46.6964L51.3725 45.8691L51.9344 45.0419C43.1147 39.0515 32.3431 35.0855 20.3856 36.1829L20.477 37.1787ZM51.3725 45.8691L52.3127 45.5284C51.0918 42.1596 49.9978 38.4862 48.9861 34.3808L48.0151 34.6201L47.0442 34.8594C48.0697 39.0205 49.1833 42.7631 50.4324 46.2099L51.3725 45.8691ZM48.0151 34.6201L48.9865 34.3827L48.965 34.2948L47.9936 34.5322L47.0222 34.7697L47.0437 34.8576L48.0151 34.6201ZM47.9936 34.5322L48.9878 34.6403L48.9975 34.5504L48.0034 34.4424L47.0093 34.3343L46.9995 34.4242L47.9936 34.5322ZM48.0034 34.4424L48.9966 34.5585C50.3987 22.5627 52.5247 15.3368 56.0775 11.0299L55.3061 10.3936L54.5347 9.75721C50.5768 14.5552 48.4139 22.3157 47.0102 34.3263L48.0034 34.4424ZM55.3061 10.3936L56.0775 11.0299C59.5648 6.80265 64.5024 5.30486 71.8321 5.00699L71.7915 4.00781L71.7509 3.00864C64.2215 3.31463 58.5661 4.8704 54.5347 9.7572L55.3061 10.3936ZM71.7915 4.00781L72.456 4.75511C72.4276 4.78038 72.4015 4.80061 72.3803 4.81607C72.3591 4.83151 72.3407 4.84362 72.3271 4.85217C72.3137 4.86068 72.3028 4.86713 72.2969 4.87059C72.2938 4.87239 72.2914 4.87379 72.2901 4.87451C72.2892 4.87504 72.2879 4.87576 72.2888 4.87525C72.289 4.87514 72.2951 4.87166 72.3026 4.86724C72.3105 4.86258 72.3232 4.85493 72.3385 4.84497C72.3539 4.83498 72.374 4.8213 72.3969 4.80402C72.4198 4.78672 72.4472 4.76447 72.4767 4.7369L71.7944 4.00586L71.1121 3.27482C71.1414 3.24744 71.1686 3.22537 71.1913 3.20824C71.2139 3.19114 71.2338 3.17762 71.249 3.16779C71.264 3.158 71.2765 3.1505 71.2841 3.146C71.288 3.14368 71.2912 3.14181 71.2933 3.1406C71.2953 3.13945 71.2969 3.13855 71.2971 3.13844C71.2979 3.13801 71.2965 3.1388 71.2954 3.13941C71.294 3.1402 71.2915 3.14168 71.2882 3.14355C71.2821 3.14716 71.2709 3.15376 71.2572 3.16243C71.2434 3.17115 71.2248 3.18342 71.2033 3.19903C71.1819 3.21466 71.1556 3.23506 71.127 3.26051L71.7915 4.00781ZM71.7944 4.00586L72.4767 4.73693C72.5615 4.65778 72.6849 4.54502 72.8417 4.41062L72.1909 3.65137L71.5401 2.89211C71.3571 3.049 71.2123 3.18132 71.1121 3.27479L71.7944 4.00586ZM72.1909 3.65137L72.8417 4.41064C73.1584 4.13916 73.611 3.77724 74.1528 3.41603L73.5981 2.58398L73.0434 1.75193C72.4194 2.16794 71.9022 2.58177 71.5401 2.89209L72.1909 3.65137ZM73.5981 2.58398L74.1528 3.41604C75.2528 2.68271 76.6507 2 78.0005 2V1V0C76.0497 0 74.2432 0.952083 73.0434 1.75193L73.5981 2.58398ZM78.3052 82.3965L77.6969 81.6028L77.3541 81.8655L77.9624 82.6592L78.5707 83.4529L78.9134 83.1902L78.3052 82.3965ZM77.9624 82.6592L78.6581 81.9408L78.3485 81.641L77.6528 82.3594L76.9571 83.0777L77.2667 83.3775L77.9624 82.6592ZM77.6528 82.3594L78.3489 81.6414C77.7954 81.1047 77.2519 80.5751 76.7182 80.0517L76.018 80.7656L75.3178 81.4796C75.8545 82.0059 76.4007 82.5383 76.9567 83.0773L77.6528 82.3594ZM76.018 80.7656L75.0203 80.6989C74.9715 81.4283 74.8144 82.0021 74.5722 82.4326L75.4438 82.9229L76.3154 83.4131C76.745 82.6494 76.9536 81.7623 77.0158 80.8324L76.018 80.7656ZM75.4438 82.9229L74.5723 82.4326C73.9748 83.4947 72.8939 84.5362 71.3582 85.5802L71.9204 86.4072L72.4826 87.2342C74.1355 86.1106 75.5016 84.8598 76.3154 83.4131L75.4438 82.9229ZM71.9204 86.4072L71.4593 87.2946C71.8592 87.5023 72.2582 87.7182 72.6569 87.9411L73.145 87.0684L73.6331 86.1956C73.2181 85.9635 72.801 85.7379 72.3815 85.5199L71.9204 86.4072ZM73.145 87.0684L72.6505 87.9375L73.2667 88.2881L73.7612 87.4189L74.2557 86.5498L73.6395 86.1992L73.145 87.0684ZM73.7612 87.4189L73.2618 88.2853L73.3448 88.3332L73.8442 87.4668L74.3436 86.6004L74.2606 86.5526L73.7612 87.4189ZM73.8442 87.4668L73.0565 88.0828L73.1161 88.159L73.9038 87.543L74.6915 86.9269L74.6319 86.8508L73.8442 87.4668ZM73.9038 87.543L73.1157 88.1586C74.2947 89.6678 75.3725 91.1313 76.359 92.5611L77.1821 91.9932L78.0052 91.4252C76.9943 89.9602 75.8929 88.4648 74.6918 86.9274L73.9038 87.543ZM77.1821 91.9932L78.0212 92.5371C79.916 89.614 82.6703 86.8459 86.6668 84.666L86.188 83.7881L85.7091 82.9102C81.4125 85.2538 78.4136 88.2549 76.343 91.4492L77.1821 91.9932ZM86.188 83.7881L86.6668 84.666C87.2694 84.3373 87.8889 84.0359 88.5223 83.7549L88.1167 82.8408L87.7111 81.9268C87.0353 82.2266 86.3662 82.5518 85.7091 82.9102L86.188 83.7881ZM88.1167 82.8408L88.9608 82.3047C87.9249 80.6736 86.8819 78.9598 85.774 77.1595L84.9223 77.6836L84.0707 78.2077C85.1712 79.9961 86.2265 81.73 87.2725 83.3769L88.1167 82.8408ZM84.9223 77.6836L85.774 77.1595C85.7385 77.1018 85.704 77.0391 85.6552 76.9498L84.7778 77.4297L83.9005 77.9095C83.945 77.9909 84.0038 78.0991 84.0707 78.2077L84.9223 77.6836ZM84.7778 77.4297L84.1691 76.6363C82.1931 78.1523 80.0438 79.8033 77.6967 81.6029L78.3052 82.3965L78.9136 83.1901C81.2608 81.3904 83.412 79.738 85.3865 78.2231L84.7778 77.4297Z" fill="#EDF9FF"/>
	<circle cx="81.5004" cy="80.5" r="21.5" fill="white" stroke="var(--primary)"/>
	<circle cx="75.0004" cy="76" r="6" fill="var(--primary)" stroke="var(--primary)"/>
</svg>
