<svg viewBox="0 0 1549 1603" fill="none" xmlns="http://www.w3.org/2000/svg">
<path d="M60.1098 440.063L629.337 660.877C687.21 632.9 701.016 611.48 716.099 570.344C724.897 563.617 317.264 178.715 299.631 171.221C281.998 163.727 284.597 126.719 301.336 106.403C326.607 86.8857 341.049 84.635 367.532 100.37C367.532 100.37 927.282 528.069 939.649 529.349C952.015 530.629 966.415 518.755 987.015 508.291C1007.62 497.828 967.492 98.4223 988.616 40.1328C1009.74 -18.1567 1061.96 7.72636 1061.96 7.72636C1061.96 7.72636 1120.83 502.945 1124.89 536.211C1128.94 569.477 1252.56 757.488 1336.4 871.821C1372.56 931.546 1384.89 975.676 1384.89 975.676L1546.08 1229.84L1172.96 1598.69C1172.96 1598.69 1070.88 1383.06 1062.37 1367.36C1053.87 1351.66 1022.81 1320.39 1014.15 1312.09C1005.49 1303.79 1001 1273.81 989.978 1263.24C986.742 1260.14 933.543 1251.72 859.996 1241.37C703.863 1188.58 467.251 1181.81 388.212 1180.4C309.173 1178.98 174.167 1226.33 137.437 1210.4C121.257 1162.96 130.678 1145.22 161.742 1120.42C250.301 1047.1 302.832 1033.53 400.872 1050.56C568.498 1019.63 612.368 988.968 601.491 910.569C589.867 843.045 568.387 816.758 510.134 785.26C308.609 674.459 2.50956 523.806 2.01718 500.68C0.872468 443.431 57.1078 431.181 60.1098 440.063Z" fill="#FF0000" stroke="#7B0000" stroke-width="4" stroke-linecap="round"/>
</svg>
