<svg width="1057" height="982" viewBox="0 0 1057 982" fill="none" xmlns="http://www.w3.org/2000/svg">
<path d="M53.9232 86.526C53.9232 86.526 517.045 268.633 562.548 283.831C608.051 299.029 666.217 221.616 640.073 202.937C613.928 184.258 283.7 -146.997 267.944 -153.694C252.188 -160.39 254.51 -193.457 269.467 -211.611C292.048 -229.05 304.952 -231.061 328.615 -217.002C328.615 -217.002 811.71 149.814 839.822 166.306C867.934 182.798 885.009 175.968 882.146 147.49C879.283 119.012 864.701 -218.742 883.576 -270.826C902.451 -322.909 949.114 -299.782 949.114 -299.782C949.114 -299.782 1001.72 142.713 1005.34 172.438C1008.96 202.162 1119.42 370.156 1194.33 472.317C1226.64 525.683 1237.66 565.115 1237.66 565.115L1381.69 792.216L1048.29 1121.8C1048.29 1121.8 957.083 929.13 949.482 915.099C941.882 901.068 914.134 873.126 906.396 865.71C898.658 858.294 894.642 831.504 884.793 822.066C881.902 819.295 834.367 811.771 768.65 802.524C629.139 755.354 417.719 749.301 347.094 748.039C276.47 746.778 155.838 789.079 123.017 774.851C108.56 732.457 116.978 716.607 144.735 694.453C223.866 628.935 270.804 616.81 358.407 632.03C508.186 604.393 547.386 576.992 537.667 506.94C527.28 446.605 508.086 423.116 456.036 394.972C275.966 295.967 2.45532 161.353 2.01538 140.69C0.992499 89.5355 51.2407 78.5895 53.9232 86.526Z" fill="#FF0000" stroke="#7B0000" stroke-width="4" stroke-linecap="round"/>
</svg>
