<svg width="294" height="745" viewBox="0 0 294 745" fill="none" xmlns="http://www.w3.org/2000/svg">
<g id="Component 3">
<path id="Vector 25" d="M233.298 744.104L156.083 278.569L182.827 275.104L256.083 744.104H233.298Z" fill="#C6E5F4" stroke="#004E78"/>
<path id="Vector 23" d="M186.069 1.30707L277.759 70.8979L278.093 71.1508L278.147 71.5678L292.075 180.592L292.127 181.004L291.873 181.332L223.394 269.48L223.146 269.799L222.746 269.856L109.003 286.094L108.596 286.152L108.267 285.908L14.2544 216.318L13.9058 216.059L13.856 215.627L1.08936 104.284L1.0415 103.867L1.30518 103.54L69.7827 18.8725L70.0269 18.5707L70.4106 18.5131L185.314 1.11566L185.732 1.05219L186.069 1.30707Z" fill="#004E78" stroke="#EDF9FF" stroke-width="2"/>
<path id="Vector 24" d="M29.4359 205.383L18.0825 106.629L78.9781 31.5343L181.159 16.1039L262.697 77.8253L275.083 174.522L214.187 252.702L113.038 267.104L29.4359 205.383Z" fill="white" stroke="#005078"/>
<path id="Vector 27" d="M199.435 229.104L222.965 194.104L226.494 229.104L197.083 199.749L237.083 206.523L199.435 229.104Z" stroke="#005078"/>
<path id="Vector 28" d="M42.0825 99.1039H52.4229V77.3981L68.5081 84.6334L75.4017 66.5451L86.891 74.9863L96.0825 58.1039" stroke="#005078"/>
<path id="Vector 29" d="M203.966 63.3245C198.972 61.0647 201.469 55.4152 203.966 54.2853C206.464 53.1554 212.707 57.675 212.707 57.675C212.707 57.675 217.701 54.2853 220.199 54.2853C222.696 54.2853 225.194 62.1946 220.199 63.3245C215.204 64.4544 210.21 70.1039 210.21 70.1039C210.21 70.1039 208.961 65.5843 203.966 63.3245Z" stroke="#005078"/>
<path id="ROUTE_INDEX_1" d="M93.7597 98.3539L100.878 133.354M93.7597 98.3539L102.657 95.7289M93.7597 98.3539L83.0825 100.979M93.7597 135.104L100.878 133.354L107.106 130.729M114.224 130.729L109.775 95.7289L122.232 125.479L119.563 93.9789M164.941 88.7289L151.594 90.4789L153.819 106.229M153.819 106.229L156.043 121.979L170.279 119.354M153.819 106.229L164.941 103.604M170.279 88.7289L182.736 104.041M195.193 119.354L182.736 104.041M182.736 104.041L196.083 86.1039M182.736 104.041L175.618 120.229M128.46 93.9789L132.02 125.479L148.035 107.979L128.46 93.9789Z" stroke="#004E78" stroke-width="2"/>
<path id="ROUTE_INDEX_2" d="M93.5825 98.6039L101.083 133.104M83.5825 101.604L93.5825 98.6039L102.583 96.6039M93.0825 136.604L101.083 133.104L107.083 130.104M114.083 131.104L111.083 98.6039L122.083 125.604L119.583 92.1039M164.583 87.6039L151.083 89.6039L154.083 106.104M154.083 106.104L165.583 104.604M154.083 106.104L156.083 122.104L170.083 120.604M170.083 89.6039L182.583 104.854M195.083 120.104L182.583 104.854M182.583 104.854L197.083 87.1039M182.583 104.854L172.583 119.604M128.583 94.6039L132.583 127.104L148.583 106.604L128.583 94.6039Z" stroke="#005078" stroke-width="2"/>
<path id="ROUTE_CONTACT_1" d="M107.885 151.377L99.0825 163.74L111.657 176.104M135.55 174.868L131.777 150.758L143.723 172.395L141.208 147.668M153.783 148.904L156.298 171.158M153.783 148.904L148.124 149.522M153.783 148.904L160.699 147.668M178.933 168.686L173.589 156.631L168.244 144.577C167.615 152.613 166.358 168.809 166.358 169.304M173.589 156.631L166.358 158.177M189.621 144.577L177.675 153.849L190.879 164.977M195.28 142.722L197.795 164.977M195.28 142.722H187.735M195.28 142.722L204.083 142.104M112.915 160.031L121.089 149.522L128.633 160.031L121.717 173.631L112.915 160.031Z" stroke="#004E78" stroke-width="2"/>
<path id="ROUTE_CONTACT_2" d="M108.583 153.104L98.0825 164.604L111.583 177.604M135.583 175.604L131.583 149.604L144.083 174.104L142.583 146.604M156.083 171.104L153.583 149.604M153.583 149.604L147.083 150.104M153.583 149.604L161.083 148.604M179.083 169.604L173.833 158.354L168.583 147.104L166.583 169.604M173.833 158.354L165.083 159.104M190.083 146.604C189.683 146.604 181.583 151.271 177.583 153.604L190.583 163.604M188.083 142.604L195.583 143.604M195.583 143.604L198.083 164.604M195.583 143.604L204.083 142.604M113.083 160.604L121.083 148.104L128.583 160.104L121.083 176.104L113.083 160.604Z" stroke="#005078" stroke-width="2"/>
<path id="ROUTE_MUSIC_1" d="M118.083 211.104L123.154 193.982L130.127 207.933L134.565 192.714L145.341 206.031M147.877 190.811C147.877 190.811 149.779 203.494 153.583 203.494C157.386 203.494 158.654 188.909 158.654 188.909M171.966 187.641L163.091 195.884L171.333 197.153L165.627 203.494M179.574 190.177L177.672 203.494M189.083 190.177L182.109 195.884L189.083 202.226M179.574 187.641L180.841 186.372L179.574 185.104L177.672 187.641H179.574Z" stroke="#004E78" stroke-width="2"/>
<path id="ROUTE_MUSIC_2" d="M118.583 211.104L123.583 195.604L129.083 208.604L132.583 192.604L140.083 206.104M147.583 191.104C147.583 191.104 152.083 203.104 153.583 202.604C155.083 202.104 158.583 189.604 158.583 189.604M171.583 187.604L165.583 195.604L173.083 194.604L170.583 204.604M179.083 192.604L179.583 203.604M189.083 191.604L181.583 193.604L188.083 202.604M179.083 189.104L181.083 186.104L177.083 186.604L179.083 189.104Z" stroke="#005078" stroke-width="2"/>
<rect id="ROUTE_CONTACT_RECT" x="92.1655" y="148.858" width="114.162" height="39.1333" transform="rotate(-9.18772 92.1655 148.858)" fill="white" fill-opacity="0.01"/>
<rect id="ROUTE_MUSIC_RECT" x="115.083" y="189.375" width="76.182" height="26.1142" transform="rotate(-5.47652 115.083 189.375)" fill="white" fill-opacity="0.01"/>
<rect id="ROUTE_INDEX_RECT" x="80.1189" y="98.012" width="120.578" height="40.8597" transform="rotate(-9.18772 80.1189 98.012)" fill="white" fill-opacity="0.01"/>
<path id="Vector 62" d="M49.0825 192.104C49.0825 192.104 55.3325 221.067 69.0825 207.845C82.8325 194.622 89.0825 226.104 89.0825 226.104" stroke="#005078"/>
<path id="Star 1" d="M37.2057 126.075C37.5725 127.107 38.05 128.18 38.6556 129.021C39.2541 129.852 40.0418 130.543 41.0459 130.631C42.3235 130.743 44.1052 130.765 45.7793 130.754C45.67 130.788 45.5599 130.824 45.4503 130.861C44.1759 131.286 42.8622 131.844 41.8462 132.561C40.8397 133.272 40.0319 134.207 39.9779 135.403C39.8912 137.324 40.015 140.264 40.1607 142.748C39.4077 140.439 38.3644 137.684 37.1387 135.699C36.4623 134.603 35.3469 133.884 34.1204 133.412C33.008 132.983 31.7663 132.743 30.5869 132.612C32.1902 132.272 33.8175 131.883 34.8208 131.519C35.6789 131.207 36.1819 130.318 36.4939 129.392C36.8164 128.434 36.99 127.272 37.0819 126.168C37.0925 126.042 37.0983 125.915 37.1068 125.789C37.139 125.884 37.1718 125.979 37.2057 126.075Z" fill="#005078" stroke="white"/>
<path id="Star 2" d="M43.0613 111.94C43.1993 112.398 43.3511 112.87 43.5194 113.344C44.0269 114.772 44.684 116.244 45.5108 117.392C46.3304 118.53 47.3809 119.436 48.6933 119.551C50.8203 119.737 53.9635 119.745 56.649 119.706C56.0668 119.868 55.466 120.05 54.8641 120.25C53.0991 120.839 51.2922 121.607 49.9018 122.589C48.5209 123.564 47.458 124.818 47.3869 126.391C47.2642 129.109 47.4435 133.308 47.6518 136.809C47.6796 137.275 47.7103 137.73 47.7385 138.167C47.6316 137.819 47.52 137.46 47.402 137.091C46.3467 133.799 44.8444 129.762 43.0752 126.896C42.1651 125.422 40.6567 124.444 38.9726 123.796C37.2857 123.146 35.3764 122.808 33.5964 122.643C33.3268 122.618 33.0597 122.597 32.7963 122.579C35.4055 122.051 38.2979 121.397 39.9506 120.797C41.0546 120.396 41.7292 119.239 42.16 117.96C42.6012 116.65 42.8404 115.051 42.9677 113.522C43.0124 112.985 43.0404 112.452 43.0613 111.94Z" fill="#005078" stroke="white"/>
<path id="Vector 63" d="M227.083 396.604L151.583 409.104L171.083 524.104L241.583 505.104L227.083 396.604Z" fill="white" stroke="#005078"/>
</g>
</svg>
