<svg width="383" height="383" viewBox="0 0 383 383" fill="none" xmlns="http://www.w3.org/2000/svg">
<path d="M248 92.0596C237.354 99.1115 230.884 105.381 227.819 112.918C224.755 120.454 225.135 129.162 227.95 140.993L133.837 238.227C119.46 234.814 109.118 234.408 101.053 239.096C92.9428 243.81 87.2752 253.594 82.0225 270.155L82.001 270.226L82 270.299C81.8266 280.968 83.0265 288.46 86.8203 294.188C90.6173 299.919 96.9537 303.797 106.828 307.389L106.885 307.41L106.945 307.416C125.653 309.459 137.992 308.118 145.362 300.693C149.047 296.981 151.442 291.792 152.799 284.879C154.145 278.017 154.475 269.421 154.008 258.812L248 166.238V238.465C237.039 243.752 230.191 249.142 227.023 256.952C223.838 264.808 224.423 274.998 228.014 289.748L228.036 289.841L228.092 289.919C236.033 301.142 242.377 307.73 248.925 310.383C255.525 313.056 262.221 311.694 270.727 307.365L270.744 307.355C280.258 302.028 287.384 297.051 292.283 292.077C297.188 287.098 299.882 282.099 300.479 276.737C301.076 271.382 299.575 265.739 296.237 259.485C292.92 253.269 287.768 246.413 280.992 238.585L278.008 161.709C293.465 148.796 300.788 138.408 300.877 127.66C300.966 116.929 293.835 106.035 280.999 92.1328V17H343C359.569 17 373 30.4315 373 47V353C373 369.569 359.569 383 343 383H41C24.4315 383 11 369.569 11 353V47C11 30.4315 24.4315 17 41 17H248V92.0596ZM170.37 318.122C167.523 322.416 165.755 327.611 165.066 333.705C164.773 336.302 164.783 338.585 165.098 340.553C166.162 347.758 169.455 352.343 174.976 354.309C176.105 354.758 177.306 355.055 178.578 355.199C182.235 355.612 185.523 354.776 188.442 352.69C191.415 350.611 193.264 347.788 193.989 344.22C194.161 346.976 195.069 349.388 196.714 351.452C198.606 353.706 200.931 354.987 203.687 355.299C203.951 355.329 204.246 355.335 204.569 355.318C204.887 355.354 205.208 355.364 205.532 355.347C209.302 355.236 212.146 353.813 214.065 351.078C215.465 349.143 216.51 346.309 217.2 342.576C219.08 332.591 216.033 325.833 208.06 322.302L205.728 331.538C207.098 332.23 208.197 333.427 209.024 335.131C209.723 336.552 210.029 338.116 209.943 339.824C209.864 341.479 209.364 342.818 208.443 343.841C207.523 344.864 206.294 345.289 204.757 345.115C202.331 344.734 200.494 343.184 199.244 340.467C198.159 338.197 197.639 335.669 197.686 332.884L190.125 332.109C189.571 335.589 188.838 338.27 187.928 340.153C187.147 341.836 186.014 343.077 184.528 343.875C183.043 344.673 181.504 344.982 179.914 344.803C177.265 344.503 175.424 343.222 174.392 340.959C173.488 338.978 173.277 336.565 173.76 333.722C174.194 331.302 174.843 329.362 175.706 327.903C176.616 326.503 177.552 325.107 178.515 323.713L170.37 318.122ZM352.939 125.746C353.326 123.835 351.027 122.556 349.607 123.894L293.745 176.526C292.76 177.454 292.962 179.073 294.145 179.73L334.779 202.323C335.962 202.981 337.442 202.299 337.711 200.973L352.939 125.746ZM68.1152 103.844C66.9497 102.28 64.464 103.139 64.5127 105.089L66.4277 181.816C66.4616 183.169 67.802 184.098 69.0811 183.656L113.024 168.474C114.304 168.032 114.784 166.473 113.976 165.388L68.1152 103.844Z" fill="white"/>
<circle cx="103.5" cy="281.5" r="14.5" fill="white"/>
<circle cx="275.5" cy="266.5" r="14.5" fill="white"/>
</svg>
