<svg width="48" height="48" viewBox="0 0 48 48" fill="none" xmlns="http://www.w3.org/2000/svg">
<g clip-path="url(#clip0_0_11)">
<circle cx="24" cy="24" r="24" fill="white"/>
<path d="M14.7304 30.3159C14.7304 29.7629 14.7451 20.5975 14.7451 20.5975L33.8824 20.439C33.8824 20.439 34.548 30.7583 34.615 31.1453C34.6819 31.5324 41.6449 38.9419 39.6363 39.7714C37.6278 40.6008 31.5352 32.9701 29.9953 33.4677C28.4555 33.9654 30.7987 41.5408 29.3928 41.9832C27.9868 42.4255 25.1079 33.8548 23.9028 33.9101C22.6976 33.9654 20.4213 42.4255 18.6806 41.9832C16.9398 41.5408 19.484 33.9101 18.6806 33.4677C17.8771 33.0254 9.17347 38.6102 8.10224 37.3384C7.03102 36.0666 14.7304 30.8688 14.7304 30.3159Z" fill="#91CFF9" stroke="#91CFF9"/>
<path d="M35.8201 20.1969C35.1506 20.584 12.8558 20.9711 12.2532 20.1969C11.6507 19.4228 24.1036 2.94484 24.2375 3.00014C24.3714 3.05543 36.4896 19.8099 35.8201 20.1969Z" fill="#55A4DA" stroke="#55A4DA"/>
<path d="M28.3922 24.7439C29.4969 24.7439 30.4017 25.6504 30.402 26.78C30.402 27.9098 29.4971 28.8171 28.3922 28.8171C27.2873 28.8171 26.3824 27.9099 26.3824 26.78C26.3827 25.6504 27.2874 24.7439 28.3922 24.7439Z" fill="white" stroke="white"/>
<ellipse cx="29.0196" cy="26.7805" rx="1.2549" ry="1.26829" fill="black"/>
<path d="M20.2353 24.744C21.34 24.7441 22.2448 25.6506 22.245 26.7802C22.245 27.91 21.3401 28.8172 20.2353 28.8173C19.1303 28.8173 18.2255 27.91 18.2255 26.7802C18.2257 25.6505 19.1305 24.744 20.2353 24.744Z" fill="white" stroke="white"/>
<ellipse cx="19.6078" cy="26.7805" rx="1.2549" ry="1.26829" fill="black"/>
</g>
<defs>
<clipPath id="clip0_0_11">
<rect width="48" height="48" fill="white"/>
</clipPath>
</defs>
</svg>
